<?xml version="1.0" encoding="UTF-8"?>
<svg id="Layer_1" data-name="Layer 1" xmlns="http://www.w3.org/2000/svg" viewBox="0 0 158.03 234.38">
  <defs>
    <style>
      .cls-1 {
        fill: #5f00d4;
        stroke-width: 0px;
      }
    </style>
  </defs>
  <path class="cls-1" d="m152.93,87.75c.06,4.1-3.03,8.28-4.73,12.39-3.45,8.35-7.49,16.5-10.3,25.06-3.42,10.42-5.48,12.32-16.69,12.17-2.36-.04-5.56.22-6.93,1.33-2.48,2.01-19.61,7.77-18.82,23.19.28,5.46-4.66,10.24-16.1,19.45-9.03-8.88-18.87-9.6-16.94-23.45.84-6.03-20.66-21.49-26.93-20.15-9.53,2.05-12.43-3.87-15.24-10.66-4.02-9.73-8.16-19.4-12.08-29.17-1.47-3.65-3.56-7.51-3.48-11.24C5.29,57.91,6.35,29.15,9.52.28c.36,4.14.85,8.28,1.05,12.44.78,15.75,2.71,30.85,11.93,44.71,4.84,7.28,6.33,16.78,9.79,26.55,1.55-2.92,2.68-5.05,3.88-7.32,11,8.33,22.02,16.62,23.3,33.14,1.17-3.01,2.34-6.02,2.86-7.35h32.73c.3.97,1.35,4.37,3.12,10.14,2.81-8.51,3.8-15.67,7.37-21.15,3.76-5.76,9.99-9.92,15.88-15.48,1.2,2.71,2.1,4.72,3.06,6.87.69-.36,1.77-.56,2-1.11,5.28-12.47,11.22-24.72,15.42-37.55,2.94-8.97,3.69-18.69,4.98-28.13.73-5.3.58-10.71,3.52-16.04.92,29.25,2.05,58.49,2.52,87.75h0Z"/>
  <path class="cls-1" d="m69.59,197.61c-6.14,17.75-9.02,18.15-27.79,11.52-9.97-3.53-21.5-2.63-32.9-3.78,1.23-2.99,2.48-6.01,4.17-10.13-3.79.41-6.9.75-13.07,1.43,15.34-16.02,16.97-33.98,16.33-53.8,10.22,4.26,13.94,12.71,18.92,19.79,2.95,4.2,5.41,7.62,11.58,8.07,3.39.24,7.01,4.51,9.55,7.73,4.59,5.81,8.46,12.18,13.21,19.17h0Z"/>
  <path class="cls-1" d="m144.43,194.99c1.84,4.23,3.15,7.24,4.63,10.66-7.46.56-14.49,1.03-21.51,1.62-3.87.33-8.08.02-11.52,1.46-18.72,7.82-21.43,6.78-28.36-11.77,3.87-5,7.93-9.42,11.02-14.44,3.94-6.39,6.33-13.73,16.39-12.85,2.16.19,4.98-4.2,7.08-6.82,5.28-6.58,10.31-13.35,17.17-19.84,2.1,18.85,2.29,37.65,18.7,53.74-6.33-.82-9.42-1.22-13.6-1.76Z"/>
  <path class="cls-1" d="m95.46,220.17c-5.77,4.99-10.57,9.16-16.4,14.21-5.3-4.37-10.44-8.6-18.01-14.84,13.34-3.73,23.1-4.74,34.41.63h0Z"/>
  <path class="cls-1" d="m87.67,184.52c-2.07,4.39-6.16,4.99-8.52,10.02-2.79-4.64-6.55-5.01-9.56-10.02h18.08Z"/>
</svg>