<?xml version="1.0" encoding="UTF-8"?>
<svg id="Layer_1" data-name="Layer 1" xmlns="http://www.w3.org/2000/svg" viewBox="0 0 306 526.38">
  <defs>
    <style>
      .cls-1 {
        stroke-width: 0px;
      }

      .cls-2 {
        stroke: #231f20;
        stroke-miterlimit: 10;
      }
    </style>
  </defs>
  <g id="Layer_3" data-name="Layer 3">
    <g>
      <path class="cls-2" d="m9.13,320.47c.45.57.92.92,1.38,1.36-.79,2.25-3.16,2.74-4.28.88-1.17-1.93-1.82-6.51-1.38-9.87.14-1.08.39-2.04.53-3.12.12-.92.16-1.93.24-3.02,1.39.95,1.75,2.21,1.54,5.64-.2,3.19.54,6.29,1.97,8.13h0Z"/>
      <path class="cls-2" d="m291.71,357.45c-.74.79-1.43,1.37-2.04,2.21-.72,1-1.32,2.35-2.04,3.34-1.42,1.96-3.27,2.47-4.86,1.66-.91-.46-1.74-1.37-2.34-2.68-.15-.33-.28-.7-.41-1.12-1.2-4.02-1.28-11.89-.04-15.47.42,1.55.78,3.22,1.29,4.66.49,1.4,1.04,2.5,1.64,3.31.55.76,1.14,1.25,1.74,1.48.9.34,1.84.08,2.75-.8,2.33-2.27,3.3-1.46,4.3,3.41h0Z"/>
      <path class="cls-2" d="m300.46,312.84c.44,3.36-.22,7.94-1.38,9.87-1.13,1.86-3.49,1.37-4.28-.88.46-.44.94-.79,1.38-1.36,1.43-1.84,2.17-4.94,1.97-8.13-.21-3.43.14-4.69,1.54-5.64.09,1.1.12,2.1.24,3.02.14,1.08.39,2.03.53,3.12h0Z"/>
      <path class="cls-2" d="m77.56,505.71c-1.58,11.07-5.32,17.79-10.53,18.02-4.76.22-9.09-6.78-10.97-18.46,7.52,13.57,14.39,12.24,16.98-2.16-1.74.96-3.63,1.99-5.52,3.02-.09-.51-.19-1.01-.29-1.51,4-7.35,5.8-16.81,6.08-27.72,3.78,3.1,5.61,19.14,4.24,28.82h0Z"/>
      <path class="cls-1" d="m37.61,387.35c-.18.78-.39,1.45-.63,1.99-1.63,3.59-4.97,4.12-7.2,1.03-.72-.99-1.32-2.35-2.04-3.35-.6-.85-1.3-1.42-2.04-2.21,1-4.87,1.97-5.68,4.3-3.41,1.51,1.47,3.1,1.21,4.47-.65.6-.81,1.16-1.93,1.66-3.34.51-1.44.86-3.1,1.29-4.66,1.16,3.34,1.17,10.4.2,14.6h0Z"/>
      <path class="cls-2" d="m280.88,38.46c7.04-2.18,13.5.9,19.56,7.28,1.82,1.92,3.51,4.31,5.06,7.1V.5H.5v57.97c2.21-5.28,4.81-9.63,7.76-12.73,6.06-6.38,12.52-9.45,19.56-7.28,1.91.59,2.66,2.58,2.97,6.56.74,9.36-.61,16.63-3.74,21.83-1.93,3.21-4.05,5.92-6.19,8.42-4.43,5.19-5.15,8.37-4.15,20.01.08.94.15,1.87.3,3.67-5.31-6.5-7.73-15.98-8.13-29.44-5.44,17.14-3.21,33.78,5.21,42.28,7.36,7.43,14.69,6.02,21.92,2.71,3.96-1.81,7.8-4.54,11.75-6.42,7.22-3.42,12.01,1.85,15.39,17.47,5.05,23.34,4.9,46.44,1.21,69.25-.56-4.64-1.03-9.32-1.69-13.91-2.38-16.51-8.41-25.55-15.6-21.77-7.24,3.8-14.25,9.31-21.35,14.07-.34.23-.66.49-1,.71-9.89,6.06-17.98,2.89-24.21-14.18v108.74c1.67-4.86,4.18-8.61,7.37-10.24-.88,4.51-1.94,8.85-2.59,13.45-1.16,8.27.26,14.88,3.54,19.52,1.6,2.25,3.35,4.17,5.14,5.6,8.37,6.69,11.9,20.54,12.69,38.51.27,6.24.12,12.59.55,18.77.64,9.11,3.1,13.78,5.91,12.21,2.43-1.35,3.57-8.81,2.54-16.69-.13-1-.34-1.96-.51-2.93.19-.4.38-.8.56-1.2,1.16,2.45,2.54,4.58,3.43,7.41,2.47,7.85,2.9,16.69,2.46,25.7-.02.06-.03.13-.05.2-.78,3.69-1.42,7.21-1.93,10.6-.76,5.04-1.24,9.76-1.43,14.18-.93,20.75,4.24,34.87,13.89,45.39.33.35.67.65,1,.99,7.05,7.26,14.28,13.87,21.12,21.98,6.79,8.05,8.41,23.03,4.74,37.66-1.02,4.06-2.22,7.91-3.34,11.85,10.44-9.92,18.26-25.26,22.15-48.43.41-2.45.71-4.78.89-7,17.03,12.66,35.32,19.54,54.36,19.54,22.36,0,43.68-9.49,63.13-26.66-.21,3.8-.03,8.04.53,12.8,2.82,23.87,9.9,40.76,19.84,52.8-.93-4.16-1.96-8.24-2.78-12.5-2.99-15.32-.69-29.89,6.43-36.49,7.17-6.65,14.67-11.73,22.02-17.49.34-.28.7-.5,1.04-.79,13.67-11.46,19.44-31.22,13.67-67.64-.86-5.42-2.03-10.53-3.46-15.27-.27-.9-.55-1.79-.84-2.66-.66-1.59-1.27-3.25-1.81-5.01-2.68-8.57-3.96-19.06-4.18-30.96-.18-9.89.54-19.45,3.59-27.37,1.01-2.64,2.49-4.47,3.75-6.66.17.44.34.87.51,1.31-.22.93-.47,1.84-.64,2.81-1.39,7.62-.59,15.27,1.77,17.13,2.73,2.15,5.39-1.99,6.44-10.92.71-6.05.85-12.41,1.4-18.56,1.6-17.72,5.75-30.77,14.38-35.69,1.85-1.06,3.68-2.59,5.37-4.51.9-1.02,1.69-2.21,2.34-3.54v-83.62c-5.81,11.46-12.99,13.09-21.51,7.87-.34-.21-.66-.47-1-.71-7.11-4.76-14.12-10.27-21.36-14.07-7.19-3.78-13.22,5.26-15.59,21.77-.66,4.58-1.13,9.27-1.69,13.91-3.7-22.8-3.85-45.91,1.2-69.25,3.38-15.61,8.18-20.89,15.39-17.47,3.95,1.87,7.79,4.61,11.75,6.42,7.23,3.31,14.56,4.7,21.92-2.71,8.42-8.49,10.65-25.14,5.21-42.28-.41,13.46-2.82,22.94-8.13,29.44.15-1.79.22-2.73.3-3.67,1-11.64.28-14.82-4.15-20.01-2.14-2.5-4.26-5.21-6.19-8.42-3.13-5.2-4.47-12.48-3.74-21.83.31-3.97,1.06-5.96,2.97-6.56h0ZM45.36,105.77c-1.56.93-3.4-.03-5.16-1.43,2.93-2.09,5.85-4.29,8.8-6.24,3.5-2.3,6.59-.39,9.58,7.43-4.9-3.63-9.06-2.25-13.23.24h0Zm14.05,103.3c-3.1,7.12-8.34,8.03-13.51,1.73,9.56-.47,13.71-11.53,10.61-26.46-.84,3.28-1.76,6.83-2.67,10.39-.23-.25-.47-.49-.7-.75.21-11.52-1.77-21.48-5.23-30.34,3.56-3.11,10.16,6.63,12.49,16.11,2.66,10.86,2.41,21.53-.98,29.32h0Zm188.92-29.32c2.32-9.49,8.93-19.23,12.49-16.11-3.47,8.86-5.44,18.82-5.24,30.34-.23.26-.46.5-.7.75-.91-3.55-1.83-7.11-2.67-10.39-3.1,14.92,1.05,25.99,10.61,26.46-5.17,6.3-10.41,5.39-13.51-1.73-3.39-7.78-3.64-18.45-.98-29.32h0Zm15.03-73.98c-4.17-2.5-8.32-3.86-13.23-.24,3-7.82,6.08-9.74,9.58-7.43,2.96,1.95,5.87,4.15,8.8,6.24-1.76,1.4-3.6,2.37-5.16,1.43h0Z"/>
    </g>
  </g>
</svg>