<?xml version="1.0" encoding="UTF-8"?>
<svg id="Layer_1" data-name="Layer 1" xmlns="http://www.w3.org/2000/svg" viewBox="0 0 1920 1080">
  <defs>
    <style>
      .cls-1 {
        stroke-width: 0px;
      }

      .cls-2 {
        stroke: #231f20;
        stroke-miterlimit: 10;
      }
    </style>
  </defs>
  <g id="Layer_3" data-name="Layer 3">
    <g>
      <path class="cls-2" d="m54.3,659.55c2.8,1.18,5.82,1.89,8.72,2.8-4.99,4.64-19.87,5.65-26.94,1.81-7.35-3.98-11.46-13.41-8.72-20.35.88-2.24,2.46-4.21,3.34-6.43.77-1.89,1.02-3.97,1.54-6.23,8.77,1.96,11.02,4.56,9.68,11.63-1.25,6.57,3.38,12.96,12.38,16.76h0Z"/>
      <path class="cls-2" d="m1833.22,735.77c-4.65,1.63-9,2.82-12.83,4.56-4.51,2.06-8.31,4.84-12.83,6.89-8.91,4.05-20.6,5.09-30.59,3.41-5.76-.95-10.96-2.82-14.71-5.53-.92-.67-1.79-1.44-2.55-2.3-7.53-8.29-8.04-24.5-.23-31.89,2.67,3.2,4.93,6.64,8.1,9.6,3.09,2.88,6.57,5.16,10.31,6.83,3.48,1.56,7.18,2.58,10.96,3.04,5.68.7,11.58.17,17.3-1.65,14.67-4.67,20.76-3,27.05,7.04h0Z"/>
      <path class="cls-2" d="m1888.3,643.82c2.76,6.93-1.36,16.36-8.7,20.35-7.08,3.84-21.96,2.83-26.96-1.81,2.92-.91,5.93-1.63,8.72-2.8,9.02-3.8,13.63-10.19,12.38-16.76-1.32-7.06.9-9.67,9.68-11.63.54,2.26.77,4.34,1.54,6.23.9,2.22,2.46,4.19,3.34,6.43h0Z"/>
      <path class="cls-2" d="m485.11,1041.36c-9.93,22.82-33.48,36.67-66.26,37.15-29.97.45-57.24-13.97-69.06-38.04,47.31,27.96,90.6,25.23,106.91-4.46-10.96,1.97-22.85,4.1-34.73,6.23-.6-1.05-1.21-2.08-1.8-3.12,25.17-15.15,36.5-34.66,38.28-57.15,23.77,6.39,35.31,39.46,26.67,59.4h0Z"/>
      <path class="cls-1" d="m233.61,797.39c-1.11,1.6-2.46,2.99-3.99,4.1-10.27,7.41-31.28,8.49-45.31,2.13-4.51-2.05-8.31-4.84-12.83-6.91-3.8-1.75-8.16-2.94-12.83-4.56,6.3-10.04,12.38-11.71,27.05-7.04,9.5,3.03,19.49,2.5,28.15-1.34,3.78-1.67,7.3-3.97,10.43-6.88,3.19-2.96,5.43-6.39,8.1-9.6,7.28,6.89,7.33,21.44,1.23,30.09h0Z"/>
      <path class="cls-2" d="m1765.04,78.25c44.33-4.48,85,1.85,123.13,15,11.46,3.96,22.1,8.88,31.83,14.64V0H0v119.49c13.9-10.87,30.3-19.84,48.84-26.23,38.15-13.15,78.82-19.49,123.15-15,12.02,1.22,16.72,5.32,18.7,13.52,4.63,19.29-3.84,34.29-23.54,45-12.13,6.61-25.48,12.2-38.96,17.36-27.92,10.69-32.45,17.26-26.15,41.25.5,1.93.96,3.86,1.88,7.57-33.41-13.4-48.63-32.94-51.19-60.69-34.21,35.33-20.18,69.63,32.79,87.15,46.33,15.31,92.45,12.41,137.99,5.6,24.9-3.73,49.08-9.37,73.94-13.23,45.43-7.05,75.61,3.81,96.88,36.01,31.81,48.11,30.85,95.72,7.6,142.73-3.51-9.56-6.47-19.22-10.62-28.67-14.96-34.04-52.95-52.68-98.19-44.88-45.58,7.83-89.68,19.19-134.42,29.01-2.11.48-4.19,1.02-6.3,1.46C90.18,369.93,39.23,363.38,0,328.19v224.14c10.48-10.03,26.3-17.74,46.43-21.11-5.57,9.3-12.23,18.24-16.3,27.73-7.28,17.05,1.65,30.68,22.29,40.24,10.04,4.64,21.06,8.6,32.35,11.55,52.67,13.78,74.94,42.34,79.87,79.37,1.71,12.87.73,25.95,3.46,38.68,4.03,18.78,19.51,28.4,37.23,25.16,15.32-2.79,22.5-18.16,15.97-34.39-.83-2.06-2.13-4.03-3.21-6.05,1.17-.82,2.36-1.65,3.55-2.47,7.3,5.05,15.99,9.43,21.6,15.28,15.53,16.18,18.24,34.39,15.48,52.97-.12.13-.19.28-.29.41-4.9,7.61-8.95,14.87-12.17,21.84-4.8,10.4-7.78,20.12-9.02,29.22-5.84,42.78,26.69,71.88,87.46,93.55,2.05.73,4.22,1.35,6.32,2.05,44.41,14.97,89.89,28.6,132.94,45.31,42.72,16.59,52.97,47.46,29.84,77.62-6.41,8.37-13.98,16.3-21.02,24.43,65.74-20.45,114.95-52.07,139.45-99.83,2.59-5.05,4.45-9.86,5.61-14.43,107.17,26.1,222.32,40.27,342.18,40.27,140.74,0,274.96-19.55,397.4-54.95-1.32,7.83-.17,16.58,3.36,26.39,17.74,49.21,62.32,84.03,124.92,108.84-5.88-8.57-12.31-16.99-17.53-25.76-18.84-31.58-4.34-61.62,40.47-75.22,45.16-13.7,92.33-24.18,138.62-36.06,2.17-.57,4.42-1.03,6.57-1.63,86.04-23.61,122.36-64.34,86.04-139.41-5.41-11.18-12.77-21.71-21.75-31.47-1.69-1.87-3.46-3.69-5.3-5.49-4.19-3.27-7.99-6.71-11.4-10.32-16.88-17.67-24.9-39.29-26.28-63.81-1.15-20.38,3.4-40.1,22.58-56.42,6.37-5.44,15.67-9.21,23.62-13.73,1.08.9,2.13,1.8,3.21,2.7-1.36,1.92-2.94,3.8-4.05,5.79-8.74,15.72-3.72,31.48,11.14,35.32,17.2,4.43,33.93-4.1,40.53-22.5,4.49-12.47,5.34-25.58,8.83-38.26,10.04-36.52,36.17-63.43,90.51-73.58,11.64-2.18,23.16-5.34,33.79-9.3,5.68-2.1,10.64-4.55,14.75-7.3v-172.37c-36.56,23.61-81.79,26.99-135.4,16.22-2.13-.42-4.19-.98-6.3-1.46-44.76-9.82-88.86-21.18-134.44-29.01-45.24-7.79-83.21,10.85-98.17,44.88-4.17,9.45-7.1,19.1-10.62,28.67-23.27-47-24.23-94.62,7.58-142.73,21.29-32.18,51.48-43.06,96.9-36.01,24.86,3.86,49.04,9.5,73.94,13.23,45.54,6.81,91.64,9.7,137.97-5.6,52.99-17.5,67.03-51.82,32.81-87.15-2.57,27.75-17.78,47.29-51.19,60.69.92-3.69,1.38-5.62,1.88-7.57,6.3-23.98,1.77-30.54-26.15-41.25-13.5-5.16-26.82-10.74-38.96-17.36-19.72-10.71-28.17-25.72-23.54-45,1.96-8.19,6.66-12.29,18.7-13.52h0ZM282.37,216.98c-9.81,1.92-21.41-.07-32.47-2.95,18.45-4.3,36.81-8.84,55.41-12.86,22-4.75,41.47-.79,60.33,15.32-30.87-7.47-57.02-4.64-83.27.5h0Zm88.42,212.92c-19.55,14.67-52.51,16.55-85.06,3.56,60.21-.97,86.3-23.77,66.8-54.54-5.3,6.76-11.06,14.09-16.8,21.42-1.48-.52-2.94-1.02-4.42-1.55,1.31-23.74-11.12-44.28-32.95-62.53,22.39-6.4,63.97,13.66,78.6,33.22,16.74,22.4,15.19,44.38-6.18,60.43h0Zm1189.27-60.43c14.61-19.56,56.2-39.63,78.6-33.22-21.85,18.26-34.25,38.79-32.97,62.53-1.46.53-2.92,1.03-4.4,1.55-5.76-7.32-11.5-14.66-16.8-21.42-19.51,30.76,6.59,53.57,66.8,54.54-32.54,12.99-65.51,11.11-85.08-3.56-21.37-16.05-22.92-38.03-6.16-60.43h0Zm94.6-152.5c-26.25-5.15-52.4-7.96-83.27-.5,18.85-16.11,38.3-20.07,60.33-15.32,18.6,4.02,36.94,8.56,55.41,12.86-11.06,2.88-22.68,4.88-32.47,2.95h0Z"/>
    </g>
  </g>
</svg>