<?xml version="1.0" encoding="UTF-8"?>
<svg id="Layer_1" data-name="Layer 1" xmlns="http://www.w3.org/2000/svg" viewBox="0 0 1001 1201.92">
  <defs>
    <style>
      .cls-1 {
        stroke-width: 0px;
      }

      .cls-2 {
        stroke: #231f20;
        stroke-miterlimit: 10;
      }
    </style>
  </defs>
  <g id="Layer_3" data-name="Layer 3">
    <g>
      <path class="cls-2" d="m28.78,733.28c1.46,1.31,3.03,2.1,4.54,3.12-2.6,5.16-10.35,6.28-14.03,2.01-3.83-4.42-5.97-14.9-4.54-22.6.46-2.48,1.28-4.67,1.74-7.14.4-2.1.53-4.41.8-6.92,4.57,2.18,5.74,5.07,5.04,12.92-.65,7.3,1.76,14.4,6.45,18.62h0Z"/>
      <path class="cls-2" d="m955.3,817.97c-2.42,1.81-4.69,3.13-6.68,5.07-2.35,2.29-4.33,5.38-6.68,7.66-4.64,4.5-10.73,5.66-15.93,3.79-3-1.06-5.71-3.13-7.66-6.14-.48-.75-.93-1.6-1.33-2.56-3.92-9.22-4.19-27.22-.12-35.43,1.39,3.56,2.57,7.38,4.22,10.67,1.61,3.2,3.42,5.73,5.37,7.58,1.81,1.73,3.74,2.87,5.71,3.38,2.96.78,6.03.19,9.01-1.84,7.64-5.19,10.81-3.34,14.09,7.82h0Z"/>
      <path class="cls-2" d="m983.99,715.81c1.44,7.7-.71,18.18-4.53,22.6-3.69,4.26-11.44,3.15-14.04-2.01,1.52-1.01,3.09-1.81,4.54-3.12,4.7-4.22,7.1-11.32,6.45-18.62-.69-7.85.47-10.74,5.04-12.92.28,2.51.4,4.82.8,6.92.47,2.47,1.28,4.66,1.74,7.14h0Z"/>
      <path class="cls-2" d="m253.16,1157.48c-5.17,25.35-17.44,40.74-34.51,41.27-15.61.5-29.81-15.52-35.97-42.27,24.64,31.07,47.19,28.03,55.68-4.95-5.71,2.19-11.9,4.56-18.09,6.92-.31-1.16-.63-2.31-.94-3.47,13.11-16.83,19.01-38.51,19.94-63.49,12.38,7.1,18.39,43.84,13.89,65.99h0Z"/>
      <path class="cls-1" d="m122.17,886.42c-.58,1.78-1.28,3.32-2.08,4.56-5.35,8.23-16.29,9.44-23.6,2.37-2.35-2.28-4.33-5.38-6.68-7.67-1.98-1.94-4.25-3.26-6.68-5.07,3.28-11.16,6.45-13.01,14.09-7.82,4.95,3.37,10.15,2.78,14.66-1.48,1.97-1.85,3.8-4.41,5.43-7.64,1.66-3.29,2.83-7.1,4.22-10.67,3.79,7.66,3.82,23.82.64,33.44h0Z"/>
      <path class="cls-2" d="m919.79,87.43c23.09-4.98,44.27,2.06,64.13,16.67,5.97,4.39,11.51,9.86,16.58,16.27V.5H.5v132.76c7.24-12.08,15.78-22.05,25.44-29.14,19.87-14.61,41.05-21.65,64.14-16.67,6.26,1.35,8.71,5.91,9.74,15.02,2.41,21.43-2,38.09-12.26,50-6.32,7.35-13.27,13.55-20.29,19.28-14.54,11.88-16.9,19.18-13.62,45.83.26,2.15.5,4.29.98,8.41-17.4-14.89-25.33-36.6-26.66-67.43-17.82,39.26-10.51,77.37,17.08,96.82,24.13,17,48.15,13.79,71.87,6.22,12.97-4.14,25.56-10.41,38.51-14.7,23.66-7.83,39.38,4.23,50.46,40.01,16.57,53.45,16.07,106.35,3.96,158.58-1.83-10.63-3.37-21.35-5.53-31.85-7.79-37.82-27.58-58.52-51.14-49.87-23.74,8.7-46.71,21.33-70.01,32.23-1.1.53-2.18,1.13-3.28,1.62-32.42,13.89-58.96,6.61-79.39-32.48v249.03c5.46-11.14,13.7-19.71,24.18-23.46-2.9,10.33-6.37,20.27-8.49,30.81-3.79,18.94.86,34.08,11.61,44.71,5.23,5.16,10.97,9.55,16.85,12.83,27.43,15.31,39.03,47.05,41.6,88.18.89,14.3.38,28.84,1.8,42.97,2.1,20.87,10.16,31.55,19.39,27.95,7.98-3.1,11.72-20.18,8.32-38.21-.43-2.29-1.11-4.48-1.67-6.72.61-.91,1.23-1.84,1.85-2.75,3.8,5.61,8.33,10.48,11.25,16.98,8.09,17.97,9.5,38.21,8.06,58.85-.06.15-.1.31-.15.46-2.55,8.45-4.66,16.52-6.34,24.26-2.5,11.55-4.05,22.35-4.7,32.47-3.04,47.53,13.9,79.86,45.55,103.94,1.07.81,2.2,1.5,3.29,2.28,23.13,16.64,46.82,31.78,69.24,50.34,22.25,18.43,27.59,52.73,15.54,86.24-3.34,9.3-7.28,18.11-10.95,27.15,34.24-22.72,59.87-57.85,72.63-110.92,1.35-5.61,2.32-10.95,2.92-16.03,55.82,29,115.79,44.74,178.22,44.74,73.3,0,143.21-21.72,206.98-61.05-.69,8.7-.09,18.42,1.75,29.32,9.24,54.67,32.46,93.36,65.06,120.93-3.06-9.52-6.41-18.87-9.13-28.62-9.81-35.08-2.26-68.46,21.08-83.57,23.52-15.23,48.09-26.87,72.2-40.06,1.13-.63,2.3-1.15,3.42-1.81,44.81-26.23,63.73-71.49,44.81-154.89-2.82-12.42-6.65-24.12-11.33-34.96-.88-2.07-1.8-4.1-2.76-6.1-2.18-3.63-4.16-7.45-5.94-11.46-8.79-19.64-12.97-43.65-13.69-70.9-.6-22.65,1.77-44.55,11.76-62.68,3.32-6.04,8.16-10.23,12.3-15.26.56,1,1.11,2,1.67,3-.71,2.13-1.53,4.22-2.11,6.44-4.55,17.46-1.94,34.98,5.8,39.24,8.96,4.92,17.67-4.56,21.11-25,2.34-13.86,2.78-28.42,4.6-42.5,5.23-40.58,18.84-70.47,47.14-81.75,6.06-2.43,12.06-5.94,17.6-10.33,2.96-2.34,5.54-5.06,7.68-8.11v-191.5c-19.04,26.23-42.6,29.98-70.52,18.02-1.11-.47-2.18-1.09-3.28-1.62-23.31-10.91-46.28-23.53-70.02-32.23-23.56-8.66-43.34,12.05-51.13,49.87-2.17,10.49-3.7,21.22-5.53,31.85-12.12-52.22-12.62-105.13,3.95-158.58,11.09-35.76,26.81-47.84,50.47-40.01,12.95,4.29,25.54,10.55,38.51,14.7,23.72,7.57,47.73,10.77,71.86-6.22,27.6-19.44,34.91-57.57,17.09-96.82-1.34,30.83-9.26,52.54-26.66,67.43.48-4.1.72-6.25.98-8.41,3.28-26.65.92-33.94-13.62-45.83-7.03-5.73-13.97-11.93-20.29-19.28-10.27-11.9-14.67-28.57-12.26-50,1.02-9.1,3.47-13.65,9.74-15.02h0ZM147.57,241.58c-5.11,2.13-11.15-.07-16.91-3.28,9.61-4.78,19.17-9.82,28.86-14.29,11.46-5.28,21.6-.88,31.42,17.02-16.08-8.3-29.7-5.16-43.37.56h0Zm46.05,236.56c-10.18,16.3-27.35,18.39-44.3,3.95,31.36-1.07,44.95-26.41,34.79-60.6-2.76,7.51-5.76,15.65-8.75,23.79-.77-.57-1.53-1.13-2.3-1.72.68-26.38-5.79-49.19-17.16-69.47,11.66-7.11,33.32,15.18,40.94,36.9,8.72,24.88,7.91,49.31-3.22,67.14h0Zm619.41-67.14c7.61-21.74,29.27-44.03,40.94-36.9-11.38,20.28-17.84,43.09-17.17,69.47-.76.59-1.52,1.15-2.29,1.72-3-8.13-5.99-16.28-8.75-23.79-10.16,34.17,3.43,59.52,34.79,60.6-16.95,14.43-34.12,12.35-44.31-3.95-11.13-17.83-11.94-42.25-3.21-67.14h0Zm49.27-169.43c-13.67-5.72-27.29-8.85-43.37-.56,9.82-17.9,19.95-22.3,31.42-17.02,9.69,4.47,19.24,9.51,28.86,14.29-5.76,3.2-11.81,5.42-16.91,3.28h0Z"/>
    </g>
  </g>
</svg>