<?xml version="1.0" encoding="UTF-8"?>
<svg id="Layer_1" data-name="Layer 1" xmlns="http://www.w3.org/2000/svg" viewBox="0 0 601.01 686.57">
  <defs>
    <style>
      .cls-1 {
        stroke-width: 0px;
      }

      .cls-2 {
        stroke: #231f20;
        stroke-miterlimit: 10;
      }
    </style>
  </defs>
  <g id="Layer_3" data-name="Layer 3">
    <g>
      <path class="cls-2" d="m17.47,356.29c.88.92,1.82,1.48,2.72,2.19-1.56,3.63-6.21,4.41-8.42,1.42-2.3-3.11-3.58-10.48-2.72-15.9.28-1.75.77-3.29,1.04-5.02.24-1.48.32-3.1.48-4.87,2.74,1.53,3.44,3.57,3.02,9.09-.39,5.14,1.06,10.13,3.87,13.1h.01Z"/>
      <path class="cls-2" d="m573.38,415.86c-1.45,1.27-2.81,2.2-4.01,3.57-1.41,1.61-2.6,3.78-4.01,5.39-2.78,3.16-6.44,3.98-9.56,2.67-1.8-.74-3.43-2.2-4.6-4.32-.29-.53-.56-1.13-.8-1.8-2.35-6.48-2.51-19.15-.07-24.93.83,2.5,1.54,5.19,2.53,7.51.97,2.25,2.05,4.03,3.22,5.33,1.09,1.22,2.24,2.02,3.43,2.38,1.78.55,3.62.13,5.41-1.29,4.58-3.65,6.49-2.35,8.45,5.5h.01Z"/>
      <path class="cls-2" d="m590.59,343.99c.86,5.42-.43,12.79-2.72,15.9-2.21,3-6.86,2.21-8.42-1.42.91-.71,1.85-1.27,2.72-2.19,2.82-2.97,4.26-7.96,3.87-13.1-.41-5.52.28-7.56,3.02-9.09.17,1.77.24,3.39.48,4.87.28,1.74.77,3.28,1.04,5.02h.01Z"/>
      <path class="cls-2" d="m152.1,654.69c-3.1,17.83-10.46,28.66-20.71,29.03-9.37.35-17.89-10.92-21.58-29.73,14.78,21.86,28.31,19.72,33.41-3.48-3.43,1.54-7.14,3.2-10.85,4.87-.19-.82-.38-1.62-.56-2.44,7.87-11.84,11.41-27.09,11.96-44.66,7.43,4.99,11.03,30.84,8.33,46.42h0Z"/>
      <path class="cls-1" d="m73.5,464.01c-.35,1.25-.77,2.34-1.25,3.2-3.21,5.79-9.77,6.64-14.16,1.66-1.41-1.6-2.6-3.78-4.01-5.4-1.19-1.36-2.55-2.3-4.01-3.57,1.97-7.85,3.87-9.15,8.45-5.5,2.97,2.37,6.09,1.95,8.8-1.04,1.18-1.3,2.28-3.1,3.26-5.38,1-2.32,1.7-4.99,2.53-7.51,2.27,5.39,2.29,16.76.38,23.52h0v.02Z"/>
      <path class="cls-2" d="m558.2,120.17c-.67-.33-1.31-.77-1.97-1.14-13.99-7.67-27.77-16.55-42.01-22.67-14.14-6.09-26,8.48-30.68,35.08-1.3,7.38-2.22,14.93-3.32,22.4-7.27-36.73-7.57-73.95,2.37-111.55,6.65-25.15,16.09-33.65,30.28-28.14,7.77,3.02,15.32,7.42,23.11,10.34,14.23,5.32,28.64,7.58,43.12-4.37,6.04-4.99,10.46-11.73,13.12-19.62h-77.4c4.31,2.47,8.6,5.08,12.91,7.59-3.46,2.25-7.09,3.81-10.15,2.31-8.2-4.02-16.37-6.22-26.02-.39,1.96-4.19,3.94-7.33,5.97-9.51H108.79c2.03,2.18,4.01,5.32,5.97,9.51-9.65-5.84-17.82-3.63-26.02.39-3.07,1.5-6.69-.05-10.15-2.31,4.3-2.51,8.59-5.12,12.9-7.59H14.11c2.66,7.88,7.07,14.62,13.11,19.61,14.48,11.96,28.89,9.7,43.12,4.37,7.78-2.92,15.34-7.32,23.11-10.34,14.2-5.51,23.63,2.98,30.28,28.14,9.94,37.6,9.64,74.81,2.38,111.55-1.1-7.47-2.02-15.02-3.32-22.4-4.67-26.6-16.55-41.17-30.68-35.08-14.24,6.12-28.03,15-42.01,22.67-.66.37-1.31.8-1.97,1.14-19.45,9.77-35.38,4.65-47.63-22.85v175.18c3.28-7.84,8.22-13.86,14.51-16.5-1.74,7.27-3.82,14.26-5.09,21.67-2.27,13.33.52,23.98,6.97,31.45,3.14,3.63,6.58,6.72,10.11,9.03,16.46,10.77,23.42,33.09,24.96,62.03.53,10.06.23,20.28,1.08,30.23,1.26,14.68,6.1,22.2,11.63,19.66,4.79-2.18,7.03-14.19,4.99-26.88-.26-1.61-.67-3.15-1-4.72.37-.64.74-1.29,1.11-1.93,2.28,3.95,5,7.37,6.75,11.94,4.85,12.64,5.7,26.88,4.84,41.4-.04.1-.06.22-.09.32-1.53,5.94-2.8,11.62-3.8,17.07-1.5,8.13-2.43,15.73-2.82,22.84-1.82,33.44,8.34,56.18,27.33,73.11.64.57,1.32,1.05,1.97,1.6,13.88,11.7,28.09,22.35,41.54,35.41,13.35,12.96,16.55,37.1,9.32,60.67-2,6.54-4.37,12.74-6.57,19.1,20.54-15.98,35.92-40.69,43.58-78.03.81-3.95,1.39-7.7,1.75-11.28,33.49,20.4,69.47,31.47,106.93,31.47,43.98,0,85.93-15.28,124.19-42.95-.41,6.12-.05,12.95,1.05,20.63,5.54,38.46,19.48,65.67,39.04,85.07-1.84-6.7-3.85-13.27-5.48-20.13-5.89-24.68-1.36-48.16,12.65-58.79,14.11-10.71,28.85-18.9,43.32-28.18.68-.44,1.38-.81,2.05-1.27,26.89-18.45,38.24-50.29,26.89-108.96-1.69-8.74-3.99-16.97-6.8-24.6-.53-1.46-1.08-2.88-1.66-4.29-1.31-2.55-2.5-5.24-3.56-8.06-5.27-13.81-7.78-30.71-8.21-49.87-.36-15.93,1.06-31.34,7.06-44.09,1.99-4.25,4.9-7.2,7.38-10.73.34.7.67,1.41,1,2.11-.43,1.5-.92,2.97-1.27,4.53-2.73,12.28-1.16,24.61,3.48,27.6,5.38,3.46,10.6-3.2,12.67-17.59,1.4-9.75,1.67-19.99,2.76-29.9,3.14-28.55,11.3-49.57,28.28-57.5,3.64-1.71,7.24-4.18,10.56-7.27,1.78-1.64,3.32-3.56,4.61-5.71V107.49c-11.42,18.45-25.56,21.09-42.31,12.68Zm-441.83,56.64c-6.11,11.47-16.41,12.93-26.58,2.78,18.82-.75,26.97-18.58,20.87-42.63-1.66,5.28-3.46,11.01-5.25,16.74-.46-.4-.92-.8-1.38-1.21.41-18.56-3.47-34.6-10.3-48.87,7-5,19.99,10.68,24.56,25.96,5.23,17.5,4.75,34.69-1.93,47.23h.01Zm373.57,0c-6.68-12.54-7.16-29.72-1.93-47.23h.01c4.57-15.29,17.56-30.97,24.56-25.96-6.83,14.27-10.7,30.31-10.3,48.87-.46.41-.91.81-1.37,1.21-1.8-5.72-3.59-11.46-5.25-16.74-6.1,24.04,2.06,41.87,20.87,42.63-10.17,10.15-20.47,8.68-26.59-2.78Z"/>
    </g>
  </g>
</svg>