<?xml version="1.0" encoding="UTF-8"?>
<svg id="layout" xmlns="http://www.w3.org/2000/svg" viewBox="0 0 1000 1000">
  <defs>
    <style>
      .cls-1, .cls-2 {
        stroke-width: 0px;
      }

      .cls-2 {
        fill: #fff;
      }
    </style>
  </defs>
  <g>
    <path class="cls-1" d="m579.99,452.5c3.94,3.6,6.06,6.3,8.81,7.9,7.06,4.11,7.42,8.68,3.82,15.89-13.94,28-32.81,52.1-55.88,73.04-3.84,3.48-7.76,6.89-12.23,10.85,1.68.2,2.26.42,2.72.29,2.15-.66,4.29-1.41,6.42-2.18,32.12-11.54,65.19-16.3,99.28-13.97,5.59.37,9.9,1.02,10.14,8.15.15,4.21,1.72,8.37,2.63,12.46,22.59-38.24,44.73-75.75,66.42-112.43h-132.13Zm62.16,64.51c-.47,1.67-3.29,3.43-5.29,3.81-22.35,4.23-44.77,8.18-65.92,12,0,0,0-.01.01-.03.28-.34.97-1.17,1.68-1.97,13.74-15.28,27.77-30.31,41.06-45.97,3.6-4.23,6.07-5.25,11.18-3.31,7.61,2.89,15.6,4.75,24.06,7.25-2.26,9.7-4.21,19.04-6.78,28.22Z"/>
    <path class="cls-1" d="m426.36,640.16c13.82-17.29,29.5-33.11,44.2-49.31-1.24.34-2.46.69-3.67,1.15-31.43,11.6-63.79,17.07-97.33,15.39-13.53-.67-13.52-.5-16.13-13.5-.5-2.41-1.31-4.78-2.01-7.32-22.38,38.02-44.33,75.31-66.09,112.26h131.98c-4.7-4.18-7.29-7.22-10.53-9.2-5.57-3.42-6.13-7.29-2.87-12.62,7.49-12.3,13.54-25.71,22.45-36.85Zm-42.57,26.05c-3.77,4.6-6.3,5.65-11.75,3.53-7.58-2.95-15.59-4.74-23.81-7.15,2.24-9.44,4.2-18.54,6.71-27.49.52-1.89,2.9-4.25,4.77-4.6,22.65-4.21,45.36-8.1,66.77-11.84-.46.41-2.79,2.18-4.69,4.31-12.78,14.32-25.84,28.41-38,43.24Zm87.38-76.03c-.2.23-.4.45-.61.67.39-.12.78-.22,1.17-.33.04,0,.09,0,.12.02-.08-.03-.29-.13-.68-.36Z"/>
    <path class="cls-1" d="m552.14,711.8c-6.37,3.65-10.41,2.01-13.64-4.19-7.94-15.27-17.47-29.89-23.72-45.82-7.13-18.1-11.38-37.32-16.69-55.46-.02,0-.43.7-.58,1.45-.49,2.2-.87,4.45-1.27,6.65-6.15,33.85-18.38,65.19-37.72,93.77-3.78,5.61-7.23,6.88-13.11,3.77-3.33-1.75-7.23-2.43-11.02-3.65,21.87,38.82,43.29,76.82,64.21,113.99,20.99-37.2,42.43-75.22,64.32-114.04-3.95,1.26-7.72,1.78-10.78,3.53Zm-32.66,17.73c-6.62,6.9-13.8,13.23-20.8,19.78-7.11-6.59-14.43-13.17-21.44-20.05-1.06-1.02-1.52-3.67-.99-5.11,7.98-22.45,16.17-44.82,22.4-61.95,5.96,16.59,13.84,38.28,21.43,60.06.75,2.16.75,5.9-.6,7.27Z"/>
    <path class="cls-1" d="m467.88,555.82c-26.93-22.73-48.74-49.42-63.99-81.38-2.63-5.5-2.71-9.2,2.82-12.68,3.38-2.13,6.13-5.27,10.38-9.04h-131.52c21.94,37.4,43.8,74.62,66.01,112.49.79-3.54,1.95-6.51,2.05-9.51.29-8.36,4.18-11.16,12.62-11.6,33.82-1.82,66.51,2.99,98.28,14.57,2.38.86,4.78,1.63,7.17,2.44-.92-2.73-2.34-4.04-3.82-5.29Zm-112.25-37.26c-2.19-8.58-4.85-19.07-7.5-29.57,9.58-2.93,18.9-5.99,28.36-8.54,1.49-.39,4.19,1.09,5.4,2.5,14.94,17.52,29.73,35.2,42.26,50.09-19.71-4.16-43.43-9.18-68.52-14.48Z"/>
    <path class="cls-1" d="m589.97,690.02c-3.05,1.97-5.43,5.02-9.27,8.69h131.09c-21.99-37.38-43.87-74.6-66.15-112.48-.79,3.48-1.94,6.45-2.02,9.46-.24,8.93-4.74,11.42-13.35,11.8-30.58,1.32-60.35-2.43-89.42-11.91-4.76-1.54-9.48-3.14-14.66-4.85.29,1.39.22,2.1.53,2.39,2.9,2.69,5.86,5.3,8.81,7.92,24.22,21.41,43.57,46.49,57.74,75.63,2.92,6.01,2.29,9.75-3.3,13.35Zm-19.42-73.46c9.01,2.59,18.78,6.08,28.81,8.16,11.87,2.47,24.03,3.5,35.97,5.69,2.63.48,6.28,2.77,6.98,5,2.75,8.84,4.53,17.98,6.82,27.62-6.06,1.46-11.59,2.57-17.01,4.13-14.54,4.18-13.91,3.75-23.67-8.1-12.13-14.76-25.41-28.6-37.9-42.5Z"/>
    <path class="cls-1" d="m498.61,329.08c-20.9,37.14-42.28,75.09-64.03,113.69,3.11-.88,6.28-1.19,8.81-2.63,8.03-4.64,12.36-1.37,16.95,5.69,16.52,25.47,27.87,52.98,34.18,82.63,1.21,5.67,2.35,11.38,3.52,17.06,2.03-3.7,2.68-7.26,3.36-10.83,6.08-31.77,17.71-61.27,35.24-88.52,4.68-7.32,9.25-10.75,17.59-5.89,2.44,1.42,5.55,1.69,8.4,2.49-21.78-38.71-43.18-76.68-64.02-113.69Zm-.28,162.29c-4.11-13.45-8.78-29.63-14.05-45.61-2.36-7.18-9.17-14.59-8-20.77,1.16-6.09,9.89-10.71,15.22-16.06,2.36-2.34,4.53-4.87,6.62-7.12,7.56,8.29,14.72,16.17,21.91,24.03-7.03,21.23-14.76,44.56-21.7,65.53Z"/>
    <path class="cls-1" d="m574.81,575.92c-6.89,5.01-13.4,10.34-20.55,14.57-2.39,1.41-6.61.59-9.73-.22-12.7-3.38-25.3-7.13-40.35-11.45,9.98,9.42,17.97,17.32,26.35,24.76,6.98,6.22,11.55,12.77,8.68,22.79-1.29,4.5-1.17,9.41-1.7,14.13-18.07-2.28-26.9-9.73-30.94-25.9-2.55-10.1-4.91-20.28-7.9-32.6-3.46,14.11-6.76,26.03-9.24,38.12-1.58,7.74-5.42,12.57-12.91,15.05-5.06,1.66-9.85,4.14-14.72,6.25-6.86-14.38-4.82-27.93,5.6-38.36,3.99-3.99,8.18-7.81,12.31-11.68,3.85-3.62,7.74-7.2,10.87-12.04-11.78,3.43-23.67,6.52-35.29,10.43-7.51,2.53-13.52,1.63-19.38-3.79-3.89-3.6-8.56-6.37-12.85-9.51,10.36-14.13,22.09-18.36,37.94-13.86,8.68,2.48,17.32,5.08,25.96,7.62-7.39-8.56-14.54-17.35-22.5-25.34-5.52-5.55-8.12-10.99-6.38-18.75,1.14-5.15,1.26-10.53,1.85-15.79,18.08,2.34,26.91,9.81,31.01,25.98,2.53,10.02,4.87,20.11,7.88,32.54,3.45-14.21,6.61-25.93,9.03-37.78,1.63-8,5.64-13.11,13.48-15.61,5.03-1.61,9.8-3.99,15.96-6.57.92,9.48,2.07,17.8,2.31,26.15.07,2.31-2.31,4.96-4.09,7-8.97,10.14-18.1,20.12-25.85,28.7,6.1-1.83,15.35-3.46,23.59-7.3,17.42-8.12,29.5-.25,41.54,12.46Z"/>
    <path class="cls-2" d="m570.95,532.79s-.02.03-.02.03c-.03.03-.07.07-.08.08.03-.03.05-.07.1-.12Z"/>
  </g>
  <g>
    <path class="cls-1" d="m255.23,156.39c3.94,3.6,6.06,6.3,8.81,7.9,7.06,4.11,7.42,8.68,3.82,15.89-13.94,28.01-32.81,52.1-55.88,73.04-3.84,3.48-7.76,6.89-12.23,10.85,1.68.2,2.26.42,2.72.29,2.15-.66,4.29-1.41,6.41-2.17,32.13-11.55,65.19-16.31,99.29-13.98,5.59.37,9.9,1.02,10.14,8.15.15,4.21,1.72,8.37,2.63,12.47,22.59-38.25,44.73-75.76,66.42-112.44h-132.13Zm62.16,64.51c-.47,1.67-3.29,3.43-5.29,3.81-22.35,4.23-44.77,8.18-65.92,12,0,0,0,0,.01-.03.27-.34.97-1.17,1.68-1.97,13.74-15.28,27.77-30.31,41.06-45.97,3.6-4.23,6.07-5.24,11.18-3.31,7.6,2.89,15.6,4.76,24.06,7.25-2.26,9.7-4.21,19.04-6.78,28.22Z"/>
    <path class="cls-1" d="m101.6,344.05c13.82-17.29,29.49-33.11,44.2-49.31-1.24.34-2.46.69-3.67,1.15-31.43,11.6-63.8,17.07-97.33,15.39-13.54-.66-13.52-.49-16.13-13.5-.5-2.41-1.31-4.77-2.01-7.32-8.95,15.21-17.83,30.29-26.66,45.29v66.97h92.55c-4.71-4.18-7.29-7.22-10.53-9.2-5.57-3.42-6.13-7.29-2.87-12.62,7.49-12.29,13.53-25.71,22.45-36.85Zm-42.57,26.05c-3.77,4.6-6.3,5.65-11.75,3.53-7.58-2.95-15.59-4.74-23.81-7.15,2.24-9.44,4.19-18.54,6.71-27.49.52-1.88,2.9-4.24,4.77-4.6,22.65-4.21,45.35-8.1,66.77-11.84-.46.41-2.79,2.18-4.69,4.32-12.79,14.31-25.84,28.41-38,43.23Zm87.38-76.02c-.2.22-.41.44-.61.66.39-.12.78-.22,1.17-.32.04-.02.09,0,.12.01-.08-.03-.29-.13-.68-.35Z"/>
    <path class="cls-1" d="m227.38,415.69c-6.37,3.65-10.41,2.01-13.64-4.19-7.95-15.27-17.47-29.89-23.72-45.82-7.13-18.1-11.38-37.32-16.69-55.46-.02,0-.43.7-.58,1.45-.49,2.21-.87,4.45-1.27,6.65-6.15,33.85-18.38,65.19-37.72,93.77-3.79,5.61-7.23,6.88-13.11,3.77-3.33-1.75-7.23-2.42-11.02-3.65,21.87,38.82,43.29,76.82,64.21,114,20.98-37.21,42.43-75.23,64.32-114.05-3.96,1.26-7.73,1.78-10.78,3.53Zm-32.66,17.73c-6.62,6.9-13.8,13.23-20.8,19.78-7.11-6.58-14.43-13.17-21.45-20.05-1.05-1.02-1.51-3.67-.98-5.11,7.98-22.45,16.16-44.81,22.4-61.95,5.96,16.59,13.84,38.28,21.43,60.06.74,2.16.74,5.9-.6,7.27Z"/>
    <path class="cls-1" d="m143.12,259.71c-26.93-22.72-48.74-49.42-63.99-81.38-2.63-5.5-2.71-9.2,2.82-12.68,3.38-2.12,6.13-5.27,10.38-9.04H0v66.8c8.9,15.16,17.83,30.37,26.81,45.69.8-3.54,1.96-6.51,2.06-9.51.29-8.36,4.18-11.16,12.62-11.6,33.82-1.82,66.51,2.99,98.28,14.57,2.38.87,4.77,1.63,7.17,2.44-.92-2.73-2.35-4.04-3.82-5.29Zm-112.25-37.26c-2.19-8.58-4.85-19.07-7.5-29.56,9.57-2.94,18.9-6,28.36-8.55,1.49-.39,4.19,1.09,5.4,2.5,14.94,17.53,29.73,35.2,42.26,50.09-19.71-4.16-43.44-9.18-68.52-14.48Z"/>
    <path class="cls-1" d="m265.21,393.91c-3.06,1.97-5.43,5.02-9.27,8.69h131.09c-21.99-37.37-43.88-74.6-66.16-112.48-.78,3.48-1.93,6.45-2.02,9.46-.23,8.93-4.73,11.43-13.34,11.8-30.59,1.32-60.35-2.43-89.43-11.9-4.75-1.55-9.47-3.15-14.65-4.86.29,1.39.22,2.1.53,2.39,2.9,2.69,5.86,5.3,8.81,7.92,24.21,21.41,43.57,46.49,57.74,75.63,2.92,6.01,2.29,9.75-3.3,13.35Zm-19.43-73.46c9.02,2.6,18.79,6.08,28.82,8.17,11.87,2.46,24.03,3.49,35.97,5.68,2.63.48,6.28,2.77,6.98,5,2.75,8.84,4.53,17.98,6.82,27.62-6.06,1.46-11.6,2.57-17.01,4.13-14.54,4.18-13.91,3.75-23.67-8.1-12.13-14.76-25.41-28.6-37.91-42.5Z"/>
    <path class="cls-1" d="m173.85,32.98c-20.9,37.13-42.28,75.09-64.03,113.68,3.11-.88,6.28-1.18,8.81-2.63,8.03-4.63,12.36-1.37,16.95,5.69,16.52,25.47,27.86,52.98,34.18,82.63,1.21,5.67,2.34,11.38,3.52,17.07,2.03-3.71,2.68-7.27,3.36-10.84,6.08-31.77,17.71-61.27,35.23-88.52,4.69-7.32,9.26-10.75,17.6-5.89,2.44,1.42,5.55,1.7,8.4,2.49-21.79-38.71-43.18-76.68-64.02-113.68Zm-.29,162.28c-4.11-13.45-8.77-29.63-14.04-45.61-2.36-7.18-9.17-14.58-8-20.77,1.16-6.09,9.89-10.71,15.22-16.06,2.36-2.34,4.53-4.87,6.62-7.11,7.56,8.28,14.72,16.16,21.91,24.02-7.03,21.23-14.76,44.56-21.71,65.53Z"/>
    <path class="cls-1" d="m250.05,279.81c-6.89,5.01-13.4,10.34-20.55,14.57-2.39,1.41-6.61.59-9.73-.22-12.7-3.38-25.3-7.13-40.35-11.45,9.98,9.42,17.97,17.32,26.35,24.76,6.98,6.22,11.55,12.77,8.68,22.79-1.29,4.5-1.17,9.41-1.7,14.13-18.07-2.28-26.9-9.73-30.94-25.9-2.55-10.1-4.91-20.28-7.9-32.6-3.46,14.11-6.76,26.03-9.24,38.12-1.58,7.74-5.42,12.57-12.91,15.05-5.06,1.66-9.85,4.14-14.72,6.25-6.86-14.38-4.82-27.93,5.6-38.36,3.99-3.99,8.18-7.81,12.31-11.68,3.85-3.62,7.74-7.2,10.87-12.04-11.78,3.43-23.67,6.52-35.29,10.43-7.51,2.53-13.52,1.63-19.38-3.79-3.89-3.6-8.56-6.37-12.85-9.51,10.36-14.13,22.09-18.36,37.94-13.86,8.68,2.48,17.32,5.08,25.96,7.62-7.39-8.56-14.54-17.35-22.5-25.34-5.52-5.55-8.12-10.99-6.38-18.75,1.14-5.15,1.26-10.53,1.85-15.79,18.08,2.34,26.91,9.81,31.01,25.98,2.53,10.02,4.87,20.11,7.88,32.54,3.45-14.21,6.61-25.93,9.03-37.78,1.63-8,5.64-13.11,13.48-15.61,5.03-1.61,9.8-3.99,15.96-6.57.92,9.48,2.07,17.8,2.31,26.15.07,2.31-2.31,4.96-4.09,7-8.97,10.14-18.1,20.12-25.85,28.7,6.1-1.83,15.35-3.46,23.59-7.3,17.42-8.12,29.5-.25,41.54,12.46Z"/>
    <path class="cls-2" d="m246.19,236.68s-.02.03-.02.03c-.03.03-.07.07-.08.08.03-.03.05-.07.1-.12Z"/>
  </g>
  <g>
    <path class="cls-1" d="m912.97,155.86c3.94,3.6,6.06,6.3,8.81,7.9,7.07,4.1,7.42,8.67,3.82,15.89-13.94,28-32.81,52.1-55.88,73.03-3.84,3.49-7.76,6.9-12.23,10.86,1.68.2,2.26.42,2.72.28,2.15-.66,4.29-1.41,6.42-2.17,32.12-11.55,65.19-16.3,99.28-13.97,5.59.37,9.9,1.01,10.14,8.15.16,4.21,1.72,8.37,2.63,12.46,6.29-10.65,12.55-21.24,18.77-31.78v-80.65h-84.48Zm62.17,64.51c-.48,1.66-3.3,3.43-5.3,3.8-22.35,4.23-44.76,8.19-65.92,12.01,0,0,0-.02.01-.03.28-.34.97-1.18,1.69-1.97,13.73-15.29,27.76-30.32,41.06-45.97,3.6-4.23,6.06-5.25,11.17-3.31,7.61,2.88,15.6,4.75,24.06,7.25-2.26,9.69-4.21,19.03-6.77,28.22Z"/>
    <path class="cls-1" d="m759.34,343.52c13.82-17.29,29.5-33.12,44.2-49.32-1.24.34-2.46.7-3.67,1.16-31.43,11.6-63.79,17.06-97.33,15.38-13.53-.66-13.52-.49-16.13-13.5-.49-2.41-1.31-4.77-2.01-7.32-22.38,38.02-44.33,75.31-66.09,112.27h131.98c-4.7-4.18-7.28-7.22-10.53-9.21-5.57-3.41-6.13-7.28-2.87-12.62,7.49-12.29,13.54-25.7,22.45-36.84Zm-42.57,26.04c-3.77,4.61-6.3,5.66-11.75,3.54-7.57-2.96-15.59-4.74-23.81-7.15,2.24-9.44,4.2-18.55,6.71-27.49.53-1.89,2.9-4.25,4.77-4.61,22.65-4.21,45.36-8.1,66.77-11.83-.46.41-2.79,2.17-4.69,4.31-12.78,14.32-25.84,28.41-38,43.23Zm87.38-76.02c-.2.22-.4.44-.61.66.39-.12.78-.22,1.17-.32,0-.01.02-.01.04-.01-.11-.06-.3-.16-.6-.33Z"/>
    <path class="cls-1" d="m885.12,415.16c-6.37,3.65-10.41,2-13.64-4.2-7.94-15.26-17.47-29.88-23.72-45.81-7.13-18.1-11.38-37.32-16.69-55.46-.02,0-.43.7-.58,1.44-.49,2.21-.86,4.45-1.27,6.66-6.15,33.84-18.38,65.19-37.72,93.77-3.78,5.6-7.23,6.88-13.11,3.77-3.32-1.75-7.23-2.43-11.02-3.65,21.87,38.82,43.29,76.82,64.21,113.99,20.99-37.2,42.43-75.22,64.32-114.04-3.95,1.25-7.72,1.78-10.78,3.53Zm-32.66,17.73c-6.62,6.89-13.8,13.23-20.8,19.78-7.11-6.59-14.43-13.18-21.44-20.05-1.06-1.02-1.52-3.67-.99-5.12,7.98-22.44,16.17-44.81,22.4-61.94,5.96,16.59,13.84,38.27,21.43,60.06.75,2.16.75,5.89-.6,7.27Z"/>
    <path class="cls-1" d="m800.86,259.17c-26.93-22.72-48.74-49.41-63.99-81.37-2.63-5.5-2.71-9.21,2.82-12.69,3.38-2.12,6.13-5.26,10.38-9.03h-131.52c21.94,37.39,43.8,74.61,66.01,112.48.79-3.53,1.95-6.5,2.05-9.51.29-8.35,4.18-11.15,12.62-11.6,33.82-1.81,66.51,2.99,98.28,14.57,2.38.87,4.78,1.63,7.17,2.45-.92-2.73-2.34-4.04-3.82-5.3Zm-112.25-37.25c-2.19-8.58-4.85-19.07-7.5-29.57,9.58-2.94,18.9-5.99,28.36-8.54,1.49-.39,4.19,1.09,5.4,2.5,14.94,17.52,29.73,35.2,42.26,50.09-19.71-4.16-43.43-9.19-68.52-14.48Z"/>
    <path class="cls-1" d="m978.62,289.58c-.78,3.49-1.94,6.46-2.02,9.46-.24,8.93-4.74,11.43-13.35,11.8-30.58,1.33-60.35-2.42-89.42-11.9-4.76-1.54-9.48-3.14-14.66-4.86.29,1.4.22,2.11.53,2.4,2.9,2.68,5.86,5.3,8.81,7.91,24.22,21.41,43.57,46.5,57.74,75.64,2.92,6.01,2.29,9.74-3.3,13.34-3.05,1.97-5.43,5.03-9.27,8.7h83.77v-80.46c-6.25-10.64-12.52-21.31-18.83-32.03Zm-13.52,80.94c-14.54,4.17-13.91,3.75-23.67-8.1-12.13-14.76-25.41-28.6-37.9-42.51,9.01,2.6,18.78,6.08,28.81,8.17,11.87,2.46,24.03,3.5,35.97,5.69,2.63.47,6.28,2.77,6.98,4.99,2.75,8.85,4.53,17.98,6.82,27.63-6.06,1.46-11.59,2.56-17.01,4.13Z"/>
    <path class="cls-1" d="m831.59,32.44c-20.9,37.14-42.28,75.09-64.03,113.69,3.11-.88,6.28-1.19,8.81-2.63,8.03-4.64,12.36-1.38,16.95,5.69,16.52,25.47,27.87,52.98,34.18,82.63,1.21,5.67,2.35,11.37,3.52,17.06,2.04-3.7,2.68-7.27,3.36-10.83,6.08-31.77,17.71-61.27,35.24-88.52,4.68-7.32,9.25-10.75,17.59-5.9,2.44,1.43,5.55,1.7,8.4,2.5-21.78-38.72-43.18-76.69-64.02-113.69Zm-.28,162.29c-4.11-13.45-8.78-29.63-14.05-45.61-2.36-7.19-9.17-14.59-8-20.77,1.16-6.1,9.89-10.72,15.22-16.06,2.36-2.35,4.53-4.88,6.62-7.12,7.56,8.29,14.73,16.17,21.91,24.03-7.03,21.23-14.76,44.56-21.7,65.53Z"/>
    <path class="cls-1" d="m907.79,279.28c-6.89,5.01-13.4,10.34-20.55,14.57-2.39,1.41-6.61.59-9.73-.22-12.7-3.38-25.3-7.13-40.35-11.45,9.98,9.42,17.97,17.32,26.35,24.76,6.98,6.22,11.55,12.77,8.68,22.79-1.29,4.5-1.17,9.41-1.7,14.13-18.07-2.28-26.9-9.73-30.94-25.9-2.55-10.1-4.91-20.28-7.9-32.6-3.46,14.11-6.76,26.03-9.24,38.12-1.58,7.74-5.42,12.57-12.91,15.05-5.06,1.66-9.85,4.14-14.72,6.25-6.86-14.38-4.82-27.93,5.6-38.36,3.99-3.99,8.18-7.81,12.31-11.68,3.85-3.62,7.74-7.2,10.87-12.04-11.78,3.43-23.67,6.52-35.29,10.43-7.51,2.53-13.52,1.63-19.38-3.79-3.89-3.6-8.56-6.37-12.85-9.51,10.36-14.13,22.09-18.36,37.94-13.86,8.68,2.48,17.32,5.08,25.96,7.62-7.39-8.56-14.54-17.35-22.5-25.34-5.52-5.55-8.12-10.99-6.38-18.75,1.14-5.15,1.26-10.53,1.85-15.79,18.08,2.34,26.91,9.81,31.01,25.98,2.53,10.02,4.87,20.11,7.88,32.54,3.45-14.21,6.61-25.93,9.03-37.78,1.63-8,5.64-13.11,13.48-15.61,5.03-1.61,9.8-3.99,15.96-6.57.92,9.48,2.07,17.8,2.31,26.15.07,2.31-2.31,4.96-4.09,7-8.97,10.14-18.1,20.12-25.85,28.7,6.1-1.83,15.35-3.46,23.59-7.3,17.42-8.12,29.5-.25,41.54,12.46Z"/>
    <path class="cls-2" d="m903.93,236.15s-.02.03-.02.03c-.03.03-.07.07-.08.08.03-.03.05-.07.1-.12Z"/>
  </g>
  <g>
    <path class="cls-1" d="m435.26,54.78c13.82-17.29,29.49-33.11,44.2-49.31-1.24.34-2.46.69-3.67,1.15-31.43,11.6-63.8,17.07-97.33,15.39-13.54-.67-13.52-.5-16.13-13.5-.5-2.41-1.31-4.78-2.01-7.32-22.38,38.02-44.34,75.31-66.09,112.26h131.98c-4.71-4.18-7.29-7.22-10.53-9.2-5.57-3.42-6.13-7.29-2.87-12.62,7.49-12.3,13.53-25.71,22.45-36.85Zm-42.57,26.05c-3.77,4.6-6.3,5.65-11.75,3.53-7.58-2.95-15.59-4.74-23.81-7.15,2.24-9.44,4.19-18.54,6.71-27.49.52-1.89,2.9-4.25,4.77-4.6,22.65-4.21,45.35-8.1,66.77-11.84-.46.41-2.79,2.18-4.69,4.31-12.79,14.32-25.84,28.41-38,43.24ZM480.07,4.8c-.2.23-.41.45-.61.67.39-.12.78-.22,1.17-.33.04-.01.09,0,.12.02-.08-.03-.29-.13-.68-.36Z"/>
    <path class="cls-1" d="m561.04,126.42c-6.37,3.65-10.41,2.01-13.64-4.19-7.95-15.27-17.47-29.89-23.72-45.82-7.13-18.1-11.38-37.32-16.69-55.46-.02,0-.43.7-.58,1.45-.49,2.2-.87,4.45-1.27,6.65-6.15,33.85-18.38,65.19-37.72,93.77-3.79,5.61-7.23,6.88-13.11,3.77-3.33-1.75-7.23-2.43-11.02-3.65,21.87,38.82,43.29,76.82,64.21,113.99,20.98-37.2,42.43-75.22,64.32-114.04-3.96,1.26-7.73,1.78-10.78,3.53Zm-32.66,17.73c-6.62,6.9-13.8,13.23-20.8,19.78-7.11-6.59-14.43-13.17-21.45-20.05-1.05-1.02-1.51-3.67-.98-5.11,7.98-22.45,16.16-44.82,22.4-61.95,5.96,16.59,13.84,38.28,21.43,60.06.74,2.16.74,5.9-.6,7.27Z"/>
    <path class="cls-1" d="m598.87,104.64c-3.06,1.97-5.43,5.02-9.27,8.69h131.09c-21.99-37.37-43.88-74.6-66.16-112.48-.78,3.48-1.93,6.45-2.02,9.46-.23,8.93-4.73,11.42-13.34,11.8-30.59,1.32-60.35-2.43-89.43-11.91-4.75-1.54-9.47-3.14-14.65-4.85.29,1.39.22,2.1.53,2.39,2.9,2.69,5.85,5.3,8.81,7.92,24.21,21.41,43.57,46.49,57.73,75.63,2.93,6.01,2.3,9.75-3.29,13.35Zm-19.43-73.46c9.02,2.59,18.79,6.08,28.82,8.16,11.87,2.47,24.03,3.5,35.97,5.69,2.63.48,6.28,2.77,6.98,5,2.75,8.84,4.53,17.98,6.82,27.62-6.06,1.46-11.6,2.57-17.01,4.13-14.54,4.18-13.91,3.75-23.67-8.1-12.13-14.76-25.41-28.6-37.91-42.5Z"/>
    <path class="cls-1" d="m478.3,0c-4.72,1.37-9.43,2.81-14.09,4.38-7.5,2.53-13.52,1.63-19.37-3.79-.22-.2-.44-.41-.67-.59h34.13Z"/>
    <path class="cls-1" d="m494.74,0h12c-3.15,12.66-6.12,23.63-8.4,34.74-1.58,7.75-5.41,12.57-12.9,15.05-5.06,1.66-9.85,4.14-14.73,6.25-6.86-14.39-4.82-27.94,5.61-38.36,3.99-3.99,8.18-7.82,12.31-11.69,2.06-1.94,4.14-3.87,6.11-5.99Z"/>
    <path class="cls-1" d="m548.11,40.99c-1.29,4.5-1.17,9.41-1.69,14.13-18.07-2.28-26.9-9.73-30.94-25.9-2.31-9.16-4.47-18.38-7.08-29.22h11.59c6.95,6.65,13.08,12.55,19.45,18.2,6.98,6.22,11.54,12.77,8.67,22.79Z"/>
    <path class="cls-1" d="m570.93,0c-2.54,1.81-5.11,3.54-7.77,5.11-2.39,1.41-6.61.59-9.73-.22-5.81-1.55-11.6-3.17-17.62-4.89h35.12Z"/>
  </g>
</svg>