<?xml version="1.0" encoding="UTF-8"?>
<svg id="layout" xmlns="http://www.w3.org/2000/svg" viewBox="0 0 1000 1000">
  <defs>
    <style>
      .cls-1, .cls-2 {
        stroke-width: 0px;
      }

      .cls-2 {
        fill: #fff;
      }
    </style>
  </defs>
  <path class="cls-2" d="m227.06,295.76c.16.26.3.55.43.83.11-.19.23-.39.36-.61-.27-.08-.53-.14-.8-.22Zm0,0c.16.26.3.55.43.83.11-.19.23-.39.36-.61-.27-.08-.53-.14-.8-.22Zm174.68,14.91s.06.07.1.09h.01s.1,0,.14.02c-.1-.04-.19-.08-.26-.11Zm-176,138.73s.09.1.14.13c.04-.02.05-.05.08-.08-.07-.02-.15-.03-.22-.05Zm-.05-.05l.02.04s.02,0,.03,0c-.02-.02-.03-.03-.05-.05Zm426.65-203.86h0c.36.09.72.16,1.07.22-.35-.08-.7-.14-1.07-.22Zm-73.84,29.49c1.1,1.41.4,3.83-1.31,8.44.01,0,.02,0,.04.02,1.69-4.63,2.38-7.05,1.27-8.46Zm-1.2,8.47s-.04,0-.06-.01h-.02s0,.01,0,.04c0-.01.02,0,.03,0,.03,0,.08,0,.11,0-.02,0-.04,0-.06-.01Zm-175.31,27.34c-.1-.04-.19-.08-.26-.11.03.03.06.07.1.09s.06.06.1.08c-.03-.04-.06-.06-.09-.08.05.01.1,0,.14.02Zm-150.92-131.09s.05.01.08.02h0s-.05-.01-.09-.02Zm-.08-.02l.02-.02s.02-.08.02-.1c-.01.05-.04.08-.04.13Zm-23.94,116.08c.16.26.3.55.43.83.11-.19.23-.39.36-.61-.27-.08-.53-.14-.8-.22Zm-1.32,153.64s.09.1.14.13c.04-.02.05-.05.08-.08-.07-.02-.15-.03-.22-.05Zm-.05-.05l.02.04s.02,0,.03,0c-.02-.02-.03-.03-.05-.05Z"/>
  <path class="cls-1" d="m926.36,642.01c-7.17-4.57-14.17-9.44-19.43-12.97,4.39-11.89,8.31-22.64,12.36-33.34,1.54-4.09,1.4-7.02-2.82-9.81-12.98-8.56-25.57-17.69-38.5-26.32-3.14-2.09-3.83-4.22-3.89-7.89-.27-16.7-8.26-29.13-22.37-37.76-3.43-2.07-5.9-1.88-7.2,2.85-2.8,10.22-5.75,20.45-9.26,30.45-2.67,7.58-6.29,14.8-9.77,22.83-3.04-1.88-4.97-2.96-6.79-4.22-17.52-12.03-35.05-24.04-52.48-36.21-1.74-1.22-4.31-4.17-3.89-5.06,2.04-4.23-.29-10.89,6.61-12.52,7.57-1.78,15.07-3.82,22.66-5.44,3.87-.82,6.1-2.44,6.72-6.63,1.13-7.67,3.15-15.24,4-22.93.55-4.98,2.14-7.69,7.06-9.89,18.08-8.09,21.99-33.81,7.65-47.58-14.95-14.38-42.03-8.18-49.32,11.45-1.1,2.98-1.91,4.91-5.67,4.9-13.48.01-26.98.38-40.47.56-1.51.02-3-.42-4.51-.65,9.66-1.07,10.73-1.35,8.16-11.17-4.47-17.15-10.41-33.91-15.71-50.83-1.65-5.29-5.28-7.6-10.67-7.11-16.05,1.47-32.13,2.82-48.13,4.62-6.62.76-7.05,2.13-3.67,7.59,10.85,17.46,18.02,36.2,19.36,56.84.31,4.66,2.47,6.34,6.44,8.27,8.58,4.17,17.15,8.74,24.83,14.37,9.02,6.63,17.09,14.6,25.6,21.95,1.1.94,2.37,1.67,3.56,2.5.7-.26,1.42-.5,2.13-.75-.71-9.42-1.22-18.86-2.4-28.23-.14-1.23-3.65-2.48-5.75-2.8-.73-.11-2,2.55-2.78,4.05-.44.84-.36,1.93-.73,4.23-7.1-5.62-13.51-10.68-20.39-16.11,6.72-6.76,12.64-12.71,19.76-19.87.25,3.97.38,5.83.51,7.82-3.93-.84-15.09,7.38-15.15,10.85-.03.9.46,2.12,1.14,2.66,3.92,3.14,7.97,6.11,10.84,8.26,3.18-2,5.39-4.53,7.68-4.62,13.68-.55,27.39-.69,41.07-.56,1.73.02,3.77,2.05,5.15,3.61,4.54,5.14,8.07,11.51,13.44,15.49,5.09,3.77,2.36,7.52,2.51,11.4.14,3.84-2.32,5.14-5.7,5.87-7.19,1.54-14.31,3.5-21.52,5.01-4.77.99-7.35,3.26-8.02,8.4-.65,5.03-2.02,10.06-3.79,14.83-2.46,6.62-5.58,13.01-8.42,19.49l-2.11-.9c1.87-5.02,3.78-10.04,5.6-15.09,6.85-18.94,11.74-38.28,12.27-58.56.11-4.65-1.28-7.08-6.31-6.36-1.2.17-2.46.14-3.68.02-4.32-.4-6.33,1.1-6.2,5.84.14,4.67-.26,9.45-1.11,14.05-5.89,31.67-18.54,60.43-37.89,86.19-17.15,22.87-39.61,39.34-64.67,52.41-5.36,2.79-7.9,5.64-6.89,11.76.55,3.37-.06,6.93-.23,10.4-.48,9.7-.6,9.81-11.17,11.4-.14-.56-.47-1.14-.41-1.68,2.17-19.5,1.21-38.78-3.8-57.84-.31-1.17,1.63-3.61,3.11-4.48,6.14-3.6,12.52-6.79,18.75-10.23,3-1.65,3.63-4.06,2.05-7.24-4.8-9.73-9.3-19.6-14.34-29.2-.72-1.37-3.86-2.23-5.75-2.04-2.06.2-4.05,1.82-5.96,3-12.52,7.64-25.78,13.33-40.31,15.87-5.23.91-10.46,1.86-15.22,2.69,5.62,9.79,11.68,18.59,16,28.16,9.21,20.44,10.56,41.88,4.89,63.56-2.38,9.1-5.23,10.33-13.7,8.84,1.33-12.82,3.68-25.5,3.71-38.2.04-15.43-5.3-29.68-14.52-42.26-2.06-2.81-4.52-5.33-7.99-2.07-3.21,3.03-5.49,1.52-7.67-1.01-2.83-3.28-5.06-2.83-8.07.13-12.56,12.29-25.26,24.48-38.19,36.37-2.43,2.23-6.02,3.69-9.31,4.36-5.73,1.14-9.95,5.34-9.66,10.84.27,5.25,5.45,10.28,10.49,10.2,5.48-.09,9.75-5.31,10.04-11.23.1-2.4,1.31-5.3,3.02-6.96,6.15-5.96,12.77-11.43,19.12-17.2,6.88-6.25,13.65-12.6,20.56-19,10.36,10.93,14.06,23.48,15.2,37.01,1.27,14.96-2.73,28.73-10.08,41.6-2.37,4.17-1.15,6.57,3.22,6.46,13.01-.29,26.04-.82,39-1.92,2.28-.2,5.65-3.31,6.19-5.61,2.09-8.92,3.68-18.01,4.59-27.14.7-7.15,1.1-8.21,10.57-8.99-1.57,10.56-2.84,20.78-4.62,30.9-1.07,6.09-.64,7.26,5.59,6.04,8.8-1.72,17.39-4.48,26.16-6.35,11.96-2.53,17.38-9.37,15.96-21.71-.18-1.58,1.52-4.32,3.02-4.98,18.56-8.14,33.4-21.21,47.57-35.23.87-.85,2.09-1.36,3.15-2.03.4.35.81.73,1.21,1.08-1.06,1.72-1.74,3.88-3.21,5.1-10.81,9.02-21.56,18.17-32.85,26.57-3.76,2.78-4.34,4.64-2.11,8.29,4.79,7.85,9.3,15.88,14.15,23.67,2.02,3.24,2.28,5.4-1.65,7.22-7.25,3.36-14.26,7.22-21.6,10.27-1.87.77-4.7-.49-7.02-1.08-5.79-1.45-11.6-4.55-17.27-4.25-9.69.51-17.38,8.96-18.97,18.21-1.41,8.28,3.64,17.54,12.69,22.64,3.2,1.8,6.94,4.92,10.03-.14,4.01-6.56,2.93-10.16-2.32-13.87-1.88-1.33-3.06-4.93-2.87-7.35.09-1.2,4.86-3.5,6.03-2.82,1.91,1.15,3.7,4.37,3.59,6.63-.32,6.53,1.24,8.82,9.7,10.99,5,1.28,5.35-3.22,7.04-5.91.65-1.02,1.4-2.28,1.35-3.39-.27-5.49,3.6-6.86,7.66-8.71,21.12-9.65,40.99-21.34,58.46-36.81,3.84-3.39,4.4-5.57-.24-8.88-6.92-4.95-13.32-10.6-19.94-15.95,1.91-3.97,3.87-5.85,7.71-3,19.49,14.45,39.02,28.85,59.11,43.69-2.24,2.77-3.76,5.55-6.06,7.35-12.94,10.22-25.87,20.49-39.27,30.08-4.19,3-4.33,4.84-.96,7.85,14.6,13.05,29.74,17.49,48.28,7.8,4.07-2.14,6.47-1.53,9.74.88,11.49,8.53,23.26,16.72,34.68,25.33,3.68,2.78,6.24,2.71,9.44-.49,8.35-8.34,16.92-16.49,25.94-25.27,7.92,5.55,16.39,11.23,24.57,17.3,3.8,2.83,6.31,3.53,9.39-1.06,2.34-3.48,5.88-6.13,8.9-9.16,1.91-4.25.8-7.93-.78-12.34-1.9-5.27-2.94-11.81-1.62-17.12,4.3-17.22,16.71-24.18,36.18-21.67,1.22-1.84,2.52-3.68,3.7-5.59,1.07-1.74,2.08-3.54,2.99-5.35,3.65-7.3,3.05-8.88-3.82-13.27Zm-136.54-214.51c9.09-3.76,18.06-.49,21.47,7.88,3.18,7.79-.81,16.76-8.95,20.11-9.01,3.71-17.56.53-20.87-7.72-3.83-9.53-1-16.4,8.34-20.27Zm-20.17,66.19c2.56,1.56,4.99,2.36,5,3.19,0,.15,0,.32-.03.47-.01.13-.03.27-.06.4-.02.13-.06.26-.09.4-.05.22-.13.42-.22.64h0c-.08.22-.17.44-.27.64-.41.83-.97,1.64-1.53,2.32-.04.05-.13.06-.26.06-.11,0-.25-.02-.41-.06-.13-.02-.28-.07-.44-.11-.06-.02-.13-.04-.18-.06-.15-.04-.3-.11-.46-.16-.79-.31-1.59-.74-1.84-1.14-.03-.05-.05-.09-.05-.13-.42-1.54.36-3.4.85-6.48Zm-13.43,4.54c.24.17.49.33.73.48.16.11.32.2.49.3.4.24.78.45,1.11.65.04.03.08.05.12.07.04.03.07.04.11.07.13.07.25.15.36.22.36.23.66.44.84.66.05.06.09.11.12.16.08.12.13.24.14.36.02.24.02.49,0,.75,0,.11-.01.22-.04.33-.02.11-.03.23-.07.35-.09.44-.22.89-.4,1.3-.09.19-.18.38-.29.54-.05.09-.1.18-.16.25-.21.32-.46.56-.73.7-.14.08-.33.1-.55.11-.44.01-1.01-.11-1.55-.3-.14-.06-.29-.11-.43-.16-.3-.13-.58-.28-.82-.43-.12-.08-.24-.17-.33-.25-.08-.06-.14-.13-.21-.21-.05-.05-.08-.11-.11-.16-.04-.06-.06-.11-.08-.16-.4-1.26.85-3.04,1.74-5.61Zm-47.25,60.13c-.01-.1-.02-.19-.01-.29,0-.13,0-.26,0-.39.02-.19.03-.37.06-.56.19-1.35.73-2.8,1.26-4.24.14-.38.28-.75.4-1.12.13-.37.26-.74.37-1.1.06-.18.11-.36.16-.55.42-.18.83-.36,1.24-.54.42-.18.84-.37,1.25-.55.36.25.73.5,1.11.73.38.24.78.47,1.17.69.9.52,1.8,1.03,2.64,1.57.13.1.28.19.41.27.08.05.16.1.23.15.06.05.12.08.18.14.27.19.53.38.77.58.02.02.05.03.05.05.19.15.35.3.51.44.06.05.11.09.15.14.15.14.29.28.44.45.11.13.21.25.31.38.05.07.11.13.15.2.11.13.19.25.28.39,1.35,2.15,1.19,4.41-.06,6.19-.2.29-.43.57-.68.81-.27.27-.58.52-.92.76-.16.11-.32.21-.48.31-.18.11-.36.21-.55.3-.11.06-.21.12-.34.16-.22.1-.46.2-.7.28-1.49.52-2.91.58-4.16.29-.41-.1-.81-.23-1.18-.4-.37-.17-.74-.38-1.07-.61-.17-.12-.33-.24-.49-.37-.16-.14-.31-.28-.46-.42-.29-.29-.57-.61-.8-.96-.13-.16-.24-.34-.34-.54-.11-.18-.21-.37-.3-.56-.18-.39-.34-.79-.46-1.22-.08-.28-.13-.58-.14-.88Zm147.12,119.47h-.01c-2.98,3.57-5.66,7.38-8.42,11.13-.4.54-.79,1.08-1.19,1.61-.34.46-.69.87-1.02,1.23-.18.19-.35.37-.52.53-1.39,1.3-2.87,1.84-4.69,1.33-.19-.05-.4-.11-.6-.2-.42-.15-.84-.37-1.29-.63-.22-.13-.44-.27-.69-.43-.11-.08-.23-.16-.35-.25-19.69-14.09-39.47-28.06-59.27-42.01-6.6-4.65-13.19-9.29-19.8-13.94-2.38-1.69-4.77-3.36-7.16-5.02-7.17-5-14.39-9.94-21.54-14.97-.38-.26-.75-.52-1.12-.79l-1.1-.81c-.74-.55-1.49-1.11-2.24-1.7-1.12-.86-2.27-1.76-3.48-2.68-.41-.31-.81-.62-1.23-.93h.01c6.37-7.07,12.22-13.54,18.66-20.67,2.37,1.63,4.82,3.3,7.32,5,1.66,1.14,3.35,2.29,5.04,3.45.85.58,1.7,1.17,2.55,1.75,1.69,1.17,3.39,2.35,5.1,3.54,15.93,11.14,31.85,22.3,47.77,33.43,15.92,11.14,31.85,22.26,47.84,33.33.26.18.49.35.72.53,3.36,2.55,3.62,4.72.72,8.18Zm22.23-3.1c-11.31-7.43-22.45-14.57-33.41-21.98-5.91-4-11.82-8-17.73-12.02-5.91-4-11.81-8.02-17.72-12.03-3.74-2.52-7.48-5.07-11.22-7.62-7.78-5.28-15.54-10.56-23.31-15.86-4.99-3.39-9.97-6.78-14.95-10.19-2.78-1.91-5.57-3.8-8.36-5.7-.78-.54-1.56-1.07-2.32-1.61-3.95-2.78-7.82-5.67-11.78-8.44-.68-.47-1.37-.95-2.07-1.42-.78-.54-1.57-1.06-2.36-1.57-1.51-.97-4.45-1.1-6.03-.29-.47.23-.92.46-1.38.67-.15.08-.29.14-.45.2-.37.15-.74.31-1.11.45-.37.14-.74.28-1.12.39-.54.17-1.08.32-1.63.43-2.14.45-4.37.46-6.83-.19-.24-.06-.48-.12-.72-.21-.24-.06-.49-.14-.73-.24-.74-.26-1.5-.59-2.29-.96-.53-.25-1.06-.54-1.61-.84h.02c.28-.08.57-.14.84-.22,4.02-.9,8.28-.97,11.92-1.73.42-.09.82-.18,1.22-.28.03,0,.06,0,.09-.03.16-.05.31-.09.47-.14.03,0,.07-.02.1-.04.17-.05.33-.1.49-.15.45-.14.87-.32,1.27-.51.11-.05.21-.1.32-.16.18-.08.36-.19.53-.29.31-.19.62-.39.91-.61,1.13-.84,2.04-1.95,2.72-3.47.06-.13.11-.27.17-.41.05-.15.11-.29.16-.44.14-.38.25-.77.37-1.16.03-.1.06-.19.09-.3.1-.37.19-.75.28-1.12.1-.44.19-.88.28-1.32.32-1.77.5-3.6.61-5.47.1-1.57.15-3.17.18-4.78.04-2.22.07-4.47.21-6.74.04-.48.07-.97.11-1.45.43.29.83.59,1.19.9.37.3.71.62,1.03.94.16.16.31.32.45.49.46.52.85,1.06,1.18,1.62.1.15.19.3.26.45.1.17.19.35.28.53.13.27.25.55.35.82.55,1.45.79,2.97.83,4.52.02.92-.03,1.86-.15,2.79-.04.31-.08.62-.13.93-.04.27-.08.52-.13.79-.1.52-.19,1.03-.31,1.54-.85,3.79.16,5.28,3.11,7.3,10.91,7.49,21.82,14.98,32.71,22.48,9.64,6.64,19.27,13.27,28.9,19.91,12.16,8.38,24.31,16.77,36.45,25.17,10.89,7.51,21.77,15.04,32.66,22.56.5.35.99.7,1.48,1.07.5.35.99.72,1.48,1.1,2.94,2.25,5.87,4.75,9.27,7.41-1.79,2.25-3.26,4.11-5.15,6.48Zm8.6-45.02h0c.01.16.01.32,0,.48,0,.14-.01.28-.01.42-.04.42-.13.86-.27,1.3-.13.44-.3.91-.53,1.39-.23.49-.5,1.01-.83,1.54-.4.65-.79,1.3-1.19,1.96-2.57,4.23-5.12,8.61-8.04,13.53l-.67,1.15h-.01s0,0,0,0c-.67-.44-1.32-.88-1.97-1.31h-.01c-.65-.44-1.31-.88-1.96-1.31-9.15-6.08-17.79-11.78-26.35-17.59-20.79-14.11-41.57-28.27-62.34-42.4-6.92-4.72-13.84-9.43-20.76-14.14-.17-.12-.34-.23-.5-.36-.07-.05-.15-.11-.21-.15-.42-.32-.84-.64-1.26-.95-7.42-5.57-7.34-5.53-2.91-13.74,2.59-4.81,4.84-9.81,7.63-15.53.01,0,0-.01,0-.01,2.57,1.68,5.1,3.28,7.6,4.88,1.24.79,2.47,1.58,3.69,2.39s2.43,1.61,3.64,2.43c21.75,14.91,43.44,29.91,65.2,44.82,3.12,2.14,6.24,4.28,9.36,6.42,1.56,1.07,3.12,2.14,4.68,3.21,1.42.96,2.84,1.93,4.26,2.9.14.09.28.19.42.28h0c.78.54,1.55,1.07,2.34,1.59.59.4,1.19.8,1.78,1.2,1.76,1.18,3.52,2.36,5.28,3.54,3.15,2.1,6.32,4.17,9.49,6.21.16.11.33.21.48.32.16.11.3.22.45.32.4.29.76.57,1.07.85.11.09.21.19.32.29.19.19.38.38.55.57.09.11.18.2.25.3.23.29.44.59.61.89.06.1.11.2.17.3.05.1.1.2.13.31.05.1.09.2.12.31.17.45.27.93.29,1.41Z"/>
  <path class="cls-1" d="m907.77,349.12c-12.29-50.84-36.94-95.02-70.02-134.94-1.34-1.6-5.06-3.63-5.49-3.2-2.11,2.03-3.63,4.76-5.05,7.42-.51.97.03,2.44-.17,3.63-.89,5.23-5.93,9.87-10.26,8.2-5.26-2.02-9.18-1.28-13.64,3.79-1.68-5.05-5.16-10.06-3.87-12.7,3.5-7.01,10.51-5.76,17.53-3.35-1.62-4.71-3.7-8.5-5.7-12.33-1.49-2.84-3.21-3.15-5.87-1.22-3.19,2.34-6.7,4.23-8.9,5.59-4.67-3.78-8.11-6.56-12.76-10.34-.8,6.21-1.36,10.52-2.04,15.74-30.28,9.36-59.21,4.73-83.84-16.08-29.79-25.18-40.33-57.97-28.34-95.55,7.4-23.19,22.49-41.53,43.12-52.98,5.05,3.63,8.67,6.25,13.49,9.72.72-6.27,1.26-10.82,1.86-15.96,3.05-.42,6.47-.69,9.81-1.42,1.34-.29,3.51-1.57,3.52-2.41.02-5.08-.45-10.15-.74-14.79-4.65,3.22-8.14,6.31-12.18,8.31-8.94,4.39-18.65,7.36-27.14,12.45-31.61,18.92-45.2,48.24-46.32,84.07-.26,7.97.67,15.96,1.05,24.03-10.34-3.14-20.69-6.22-30.99-9.46-1.21-.38-2.76-1.45-3.07-2.53-1.39-4.58-2.37-9.28-3.49-13.91,4.72-1.55,7.77-.46,7.8,4.17.08,7.75,4.58,10.14,11.29,10.59,2.24.14,4.59.22,6.65.98,5.27,1.92,5.63-.31,5.6-4.92-.05-10.8-.01-21.68,1.35-32.36.6-4.64-.33-6.61-4.17-7.59-7.92-2.01-15.9-3.74-23.87-5.55-38.79-8.86-77.89-8.04-117.05-3.38-6.45.78-12.69,3.19-20.95,5.35,24.99,18.43,38.96,41.3,42.37,70.24,6.61.45,12.06.5,15.58-6.62,1.25-2.57,6.43-4.53,9.71-4.36,2.5.13,5.75,3.64,6.98,6.4,2.36,5.21-.31,11.85-4.54,13.91-5.14,2.5-9.57.85-14.19-3.75-1.91-1.91-5.47-2.74-8.34-2.87-1.65-.09-4.54,1.99-4.9,3.52-1.32,6.07-1.88,12.32-2.79,19.08,8.17-.22,15.39-.41,23.29-.61-4.51,20.29-2.74,38.78,12.63,55.19-3.42.05-5.36.03-7.31.13-7.53.38-15.1.65-22.63,1.33-1.76.15-4.42,1.36-4.93,2.73-2.11,5.74-4.62,4.95-7.96,1.22-2.22-2.47-11.5-1.5-13.07,1.29-3.38,5.93-7.45,6.7-12.84,2.94-2.62-1.82-5.82-2.78-8.73-4.21-1.35-.65-2.62-1.5-3.91-2.26.78-1.25,1.37-2.69,2.39-3.69,2.46-2.44,5.27-4.27,3.14-8.72-3.79-7.86-3.81-8.09-12.07-4.47-4.34-2.25-2.38-12.68-12.75-7.85-10.04,4.68-1.06,9.84-2.38,14.75-2.33,1.08-4.84,2.27-7.29,3.4q4.14,12.22,13.95,10.99c.37,1.78,1.69,4.21.98,5.4-4.33,7.23-4.14,17.73-14.8,20.54-2.81.74-5.21,2.89-7.97,3.92-3.42,1.28-7.57,1.26-10.43,3.23-5.38,3.67-9.9,8.51-15.04,12.56-3.97,3.12-6.06,6.06-.9,9.82-2.07,2.82-3.85,5.22-6.06,8.21-1.96-1.62-3.71-3.07-5.39-4.46-.55-.46-1.1-.91-1.64-1.36-.37-.3-.74-.62-1.11-.92-2.57,2.63-7.72,6.46-7.17,7.62,2.85,6.06-2.1,8.59-4.37,12.04-7.07,10.74-6.75,12.41,4.81,18.06.33.16.8.02,1.44.01.53-.69,1.22-1.43,1.73-2.28,17.65-29.43,42.79-50.58,72.98-66.24,1.35-.7,1.78-3.29,2.57-5.04,1.26-2.77,1.85-7.22,3.84-7.93,2.45-.91,6.01,1.33,9.12,2.11,2.25.55,4.54,1.29,6.81,1.28,1.73,0,3.46-1.09,5.21-1.62,25.55-7.73,51.54-8.17,77.77-4.62,1.5.21,4.26.08,4.48-.56,1.38-3.99,2.62-8.12,2.95-12.28.11-1.27-2.56-3.14-4.28-4.16-24.39-14.42-30.39-46.04-11.8-65.52,4.62-4.86,7.16-9.83,7.08-16.05-.08-5.7,2.32-6.95,7.44-6.36,24.46,2.81,48.58,6.95,71.32,16.85,4.97,2.16,10.74,3.86,14.33,7.54,8.9,9.17,16.74,19.34,25.67,29.88-2.78,4.4-6.22,9.83-8.96,14.15-16.63-6.84-32.34-13.15-47.84-19.87-2.09-.9-4.02-3.69-4.7-5.98-4.02-13.64-15.34-23.18-29.12-23-13.96.15-25.41,7.61-29.5,21.38-3.45,11.55,2.49,27.96,13.22,34.39,3.4,2.05,3.24,4.24,2.63,7.09-2.75,13.2-5.51,26.41-8.52,39.56-.01.06-.03.14-.08.2-.01.06-.06.1-.11.16-.06.08-.15.15-.24.23-.13.1-.28.19-.46.29-.02.01-.04.03-.06.03-.83.44-2.01.8-2.84,1.24l-.05.02s.08,0,.11,0c-1.63.45-3.28.9-5.92,1.64,3.89,5.68,7.16,10.46,10.83,15.82,5.4-4.35,10.16-8.16,15.38-12.36-2.49-1.45-4.17-2.42-6.1-3.53,2.84-13.37,5.67-26.54,8.45-39.72.72-3.47,2.18-5.39,6.27-5.96,8.44-1.19,15.84-4.91,21.76-11.43,1.02-1.12,4.06-1.51,5.63-.88,7.94,3.23,15.76,6.77,23.51,10.44,3.52,1.66,6.77,4.42,9.75-.71.22-.37,1.72.02,2.74.06-1.55,5.09-3.81,7.92-7.52,8.94-.53.15-1.11.27-1.71.34-.2.02-.41.04-.61.06-.26,0-.54.03-.81.05-.54,0-1.11,0-1.7-.04-.3-.02-.62-.05-.91-.07-.32-.03-.64-.07-.95-.11-.32-.05-.66-.09-.99-.14-.34-.06-.68-.11-1.02-.18h-.02c-.35-.06-.7-.13-1.07-.21.92-1.57,1.83-3.11,3.59-6.11-5.48-1.45-9.6-2.54-14.46-3.82-.4-2.27-5.31-5.87-8.12-3.92-5.74,3.99-11.11,8.52-16.97,13.09.93.62,1.66,1.28,2.54,1.61,9.54,3.6,19.1,7.17,28.67,10.7,1.12.42,2.55,1.22,3.44.88,8.54-3.42,19.6-1.42,25.08-11.48.29-.34.57-.67.85-1.01.43-2.33.86-4.65,1.42-7.6,4.69,2.6,7.23,4.37,10.04,5.43,2.04.76,5.18,1.52,6.53.53,2.42-1.82,3.9-4.77.36-7.7-.75-.62-.86-3.13-.24-4.17,2.69-4.51,5.76-8.8,8.43-12.8,9.57,3.14,18.49,7.04,27.82,8.87,11.08,2.18,18.62,8.67,25.52,16.66.94,1.08,1.91,2.13,2.93,3.15,15.01,15.39,29.9,30.89,39.41,50.55,2.16,4.45,5.21,2.4,7.58.81,4.73-3.18,7.27-1.66,9.3,3.07,3.3,7.7,6.85,15.29,10.32,22.93,1.25,2.79,1.31,5.44-2.08,6.45-7.42,2.17-7.17,6.5-3.87,12.02.73,1.21,1.28,2.58,1.6,3.96,1.3,5.42,3.99,7.8,9.59,4.97,4.26-2.14,7.1-.74,8.1,3.89,2.51,11.53,4.94,23.06,7.42,34.64-1.74.7-2.45,1.11-3.21,1.27-8.72,1.9-8.64,1.89-7.59,10.34,2.99,24.16,5.63,48.11,1.86,72.68-3.89,25.24-18.8,39.59-41.08,47.96-7.89,2.96-16.47,4.09-25.83,6.33,17.95,12.05,35.2,23.62,53.08,35.6,7.84-18.36,14.94-35.05,17.38-53.33.3-2.22,1.82-5.13,3.66-6.16,7.34-4.12,10.89-10,10.65-18.38-.08-2.45.34-4.91.64-7.34,1.15-9.37,1.18-9.47-6.96-12.79h0c-2.85,1.59-3.67.45-3.38-2.44.43-4.28,1.34-8.6.98-12.81-.41-4.97,1.17-6.36,5.82-5.29,5.38,1.24,7.65-1.05,7.02-6.52-2.18-19.07-4.09-38.18-6.57-57.22-.63-4.89.08-7.48,5.29-7.71,6.06-.26,3.99-4.38,3.51-7.59-.49-3.37-1.19-6.96-6.03-5.02-4.76,1.91-6.22-.26-7.62-4.56-3.79-11.66-7.73-23.31-12.41-34.63-3.82-9.21-4.34-8.99,4.28-13.63.31-.17.44-.66,1.02-1.56-1.07-2.03-1.92-4.67-3.66-6.48-1.2-1.21-4.42-2.29-5.37-1.59-5.66,4.19-7.45.33-10.14-3.71-9.02-13.59-18.09-27.17-27.74-40.31-6.74-9.16-14.45-17.59-22.1-26.79,3.11-.86,6.13-1.43,8.9-2.56,4.45-1.82,6.69-.59,7.99,4.07,1.61,5.71,3.92,11.2,5.8,16.82,1.45,4.3,3.27,5.93,7.3,2.2,2.47-2.29,5.57-3.92,8.28-5.76,36.66,36.06,79.83,160.27,68.23,195.92-1.33-.51-2.65-1.02-3.99-1.52-1.53-.56-3.08-1.6-4.6-1.55-2.64.09-6.89.06-7.57,1.47-2.29,4.78.05,8.68,4.35,10.48,2.79,1.18,7.25,3.23,7.36,5.08.37,7.16-.7,14.39-1.27,22.18-1.92-.86-2.84-1.27-3.74-1.7-9.16-4.4-10.2-3.67-10.67,6.23-.15,3.32.81,4.86,3.87,5.78,2.11.65,4.15,1.74,6.03,2.97,21.67,14.15,33,33.96,32.81,60.07,0,1.81.32,3.63.5,5.44.55.07,1.11.14,1.66.2,1.17-2.95,2.37-5.88,3.49-8.86,8.3-22.27,11.54-45.53,13.33-69.04,3.32-43.5-2.7-85.99-12.89-128.23Zm-311.51-217.98c.2,3.13.4,6.05.61,9.47-7.06-.6-13.68-1.42-20.34-1.69-8.14-.33-16.31-.46-24.45-.19-3.57.12-5.62-.66-7.13-4.07-1.58-3.58-3.11-7.64-8.76-6.51-1.14.23-3.24-1.99-4.18-3.51-3.02-5.04-5.72-10.27-8.91-16.08,3-.69,5.67-1.32,8.78-2.03l-2.71-6.75c1.8-.5,3.42-1.34,5.03-1.32,14.88.22,29.76.59,44.64.91.21.01.42.03.61.1,6.87,2.41,10.34,9.21,16.72,12.86,4.18,2.39,4.53,11.53,6.78,18.19-2.72.26-4.44.41-6.68.62Zm18.12-24.2c2.09,1.77,4.14,3.54,6.22,5.32-.69.88-1.4,1.77-2.1,2.66-2.25-1.63-4.48-3.25-6.72-4.87.87-1.04,1.73-2.07,2.6-3.11Zm-5.7,117.19c-8.19,3.12-18.2-.93-21.09-8.51-3.12-8.2,1.55-18.04,10.15-21.38,7.97-3.09,17.87,1.11,20.86,8.84,2.99,7.71-1.83,17.98-9.92,21.05Zm275.29,110.39c.2.02.4.06.6.09.17.03.34.07.51.11.32.07.63.16.95.26.26.08.52.15.78.24.25.08.5.16.75.25s.48.16.7.22c.4.12.76.23,1.1.3h0s.01,0,.01,0c.06.15.1.32.15.48.05.16.09.32.15.47.19.62.34,1.21.45,1.76.21,1.01.29,1.94.28,2.76,0,.1,0,.19-.01.27-.04.74-.18,1.39-.43,1.99-.07.18-.15.36-.24.54-.04.08-.09.17-.15.25-.11.17-.22.34-.35.5-.08.11-.17.22-.27.32-.17.19-.35.37-.55.53-.18.16-.38.31-.58.46-.1.07-.2.13-.31.2-.11.07-.22.14-.34.2-.18.11-.37.21-.57.3-.2.11-.42.2-.63.29-.52.22-1.03.4-1.51.51-.52.13-1.01.22-1.49.24-.46.01-.88-.02-1.29-.11-.11-.03-.23-.06-.33-.09-.11-.03-.22-.07-.32-.11-.24-.09-.46-.21-.67-.35-.07-.04-.15-.1-.22-.16-.09-.06-.16-.13-.24-.19-.09-.07-.18-.16-.25-.24-.19-.19-.37-.4-.53-.64-.37-.52-.68-1.15-.93-1.91-.06-.2-.13-.39-.18-.59-.09-.33-.18-.67-.25-1-.06-.26-.11-.53-.15-.79-.03-.22-.06-.44-.08-.66-.02-.21-.03-.43-.03-.65,0-.22,0-.44,0-.65,0-.3.04-.59.09-.9.03-.18.07-.36.11-.54h0c.06-.22.12-.42.2-.62.06-.16.14-.33.22-.48.07-.16.16-.31.26-.46.07-.12.16-.24.25-.35.22-.28.47-.55.77-.79.15-.12.29-.23.46-.34.34-.21.71-.41,1.12-.57.21-.07.42-.15.65-.22.39-.11.78-.16,1.18-.18.16,0,.32,0,.48,0,.22.01.45.03.68.06Zm-37.74-86.18c.02.15.03.29.03.44.01,0,.01.02,0,.04.02.13.02.25.01.37,0,.23,0,.44-.03.65,0,.21-.04.4-.07.6s-.07.39-.13.58c-.03.14-.08.27-.13.41-.04.1-.08.2-.12.29-.08.23-.2.44-.34.66-.11.19-.24.37-.37.55-.22.27-.46.53-.72.76h0c-.16.16-.34.29-.51.43-.37.27-.78.52-1.21.75-.21.12-.43.23-.67.33-.84.39-1.62.58-2.31.6-.05,0-.11,0-.16,0-.15.01-.29,0-.44,0-.17-.02-.33-.04-.5-.08h-.01c-.13-.02-.27-.07-.4-.11-.34-.11-.66-.27-.96-.45-.28-.18-.54-.39-.78-.62-.16-.16-.31-.32-.46-.51-.12-.13-.23-.28-.34-.43-.11-.16-.22-.31-.32-.47-.13-.19-.26-.4-.36-.61-.12-.21-.23-.42-.34-.65-.03-.05-.05-.09-.07-.14-.13-.3-.26-.59-.39-.89-.07-.17-.13-.35-.2-.52-.12-.34-.21-.69-.29-1.02-.06-.32-.12-.62-.14-.94-.01-.07-.02-.14-.02-.2-.01-.07-.01-.14,0-.21-.01-.14,0-.27,0-.4,0-.32.03-.61.08-.9,0-.04,0-.09.02-.13.05-.36.16-.7.28-1.02.13-.32.27-.63.46-.92.11-.17.22-.33.35-.48.21-.25.44-.48.7-.69.13-.12.27-.22.43-.32.09-.06.18-.11.27-.15.09-.06.18-.1.27-.15.13-.07.27-.14.42-.19.05-.02.09-.04.14-.05.19-.08.39-.15.6-.2.17-.06.33-.09.51-.13.69-.14,1.4-.08,2.13.09.33.07.66.17.99.29.32.1.64.23.96.37,1.26.53,2.39,1.16,3.14,1.42.12.32.24.64.33.94.21.6.36,1.18.48,1.71.1.47.17.92.2,1.34Zm15.28,33.53c-.23.3-.47.56-.72.81-.36.36-.75.67-1.17.92-.18.1-.35.19-.53.28-.1.05-.2.1-.31.13-.16.08-.34.14-.51.19-.11.04-.24.07-.36.1-.16.05-.32.07-.48.09-.15.02-.29.03-.43.04-.15.01-.29.01-.45,0-.14,0-.3,0-.44-.03-.43-.06-.86-.19-1.25-.35-.29-.12-.57-.27-.84-.47-.13-.1-.27-.21-.41-.32-.13-.11-.25-.23-.38-.37-.25-.26-.49-.55-.7-.87-.16-.24-.31-.49-.45-.76-.14-.27-.26-.56-.38-.87-.41-1.08-.61-2.14-.59-3.12,0-.1,0-.19.01-.28,0-.1,0-.2.02-.29h0c.01-.21.04-.4.08-.58.04-.18.08-.36.12-.54.04-.15.1-.3.15-.44.07-.2.16-.38.25-.57.08-.17.18-.32.28-.47.03-.05.04-.07.07-.1.03-.07.08-.13.13-.19.03-.04.04-.07.07-.09.05-.06.09-.12.14-.17.05-.07.11-.14.17-.19.05-.07.12-.14.19-.19.1-.09.2-.18.31-.28.29-.24.6-.45.94-.63.11-.06.22-.11.35-.16.11-.06.23-.11.36-.15.02-.01.04-.02.06-.03.11-.05.23-.08.34-.12.2-.06.41-.13.62-.17.31-.07.62-.09.95-.07.08,0,.15,0,.24.02.99.1,2.11.54,3.42,1.14.28.12.55.25.84.38.49.24,1.01.48,1.56.73.49.22,1,.45,1.54.68h.01c.53.22,1.1.45,1.69.67h0c-2.01,2.78-3.23,5.09-4.51,6.7Zm4.62,25.06s-.02-.03,0-.04c-.02-.25-.02-.49,0-.73,0-.07.01-.14.01-.22,0-.07.01-.14.02-.21,0-.1.02-.2.04-.3.02-.17.05-.32.09-.48.03-.15.07-.28.12-.42.03-.15.09-.3.15-.44.01-.05.03-.08.06-.13.05-.13.11-.27.19-.39.06-.13.13-.25.22-.37,0-.02.02-.04.05-.06,0-.01,0-.02.02-.02.07-.11.14-.22.22-.32.11-.14.22-.26.34-.39.1-.11.22-.22.34-.31.14-.13.3-.25.46-.35.11-.08.23-.15.36-.23.14-.09.29-.16.44-.23.1-.06.22-.11.34-.15.06-.03.12-.05.19-.07.17-.07.35-.13.54-.18.16-.05.33-.08.48-.11s.33-.04.49-.04c.19,0,.38,0,.58.01.15,0,.3.02.44.04.18.02.34.05.51.09.2.05.42.09.62.15.91.23,1.8.59,2.62.91.45.17.88.35,1.27.48.14.06.28.1.4.13.13.04.24.07.35.1h0c1.8,6.17,1,10.22-3.43,11.25-.22.06-.47.08-.73.08-.17,0-.35,0-.54-.02-.14-.01-.3-.03-.45-.05-.5-.09-1.02-.23-1.55-.41-.37-.13-.73-.28-1.08-.45-.66-.31-1.29-.7-1.82-1.11-.1-.08-.2-.17-.3-.25-.1-.08-.2-.18-.29-.27h-.01c-.09-.09-.17-.17-.25-.27-.12-.11-.21-.24-.29-.36-.03-.03-.04-.07-.07-.1-.07-.09-.12-.18-.17-.27-.11-.2-.22-.41-.3-.64,0-.01,0-.01,0-.02-.2-.45-.36-.91-.46-1.39-.12-.48-.19-.96-.21-1.45Zm33.21,69.96c-2.9,4-1.68,7.53-1.34,11.52,1.84,22.13,3.46,44.29,5.24,66.41.21,2.59.48,5.32,1.44,7.7,4.31,10.83,3.64,12.48-8.05,16.88-1.94-3.2-4.32-6.33-5.75-9.83-.57-1.4.32-4.33,1.55-5.38,3.86-3.33,6.14-7.25,5.75-12.26-1.63-21.14-3.26-42.26-5.39-63.34-.35-3.51-2.69-7.11-4.94-10.03-2.9-3.76-3.35-7.46.05-10.26,2.04-1.67,6.2-2.72,8.43-1.76,4.3,1.83,5.65,6.71,3.02,10.36Zm-497.61-66.21s.06.07.1.09.06.06.1.08c.02-.02.04-.05.06-.06-.1-.04-.19-.08-.26-.11Z"/>
  <path class="cls-1" d="m583.38,755.16c-1.79.23-3.61.3-5.41.43.36.49.73.98,1.09,1.47-2.12,1.93-4.02,4.87-6.43,5.41-1.65.35-4.04-2.68-6.09-4.19.3-.49.58-.97.88-1.45-11.61-1.79-12.83-1.22-15.6,7.56-2.83-.3-5.75-.61-8.64-.91-.23-2.67-.4-4.64-.58-6.52-11.6-2.52-12.73-2.1-16,6.52-2.57-1.1-7.41-2.46-7.33-3.24.82-7.14-3.8-6.18-8.09-6.34-3.47-.12-6.94-.54-10.37-1.11-5.66-.99-12.37-1.01-10.51-10.08.24-1.22-1.2-2.71-1.15-4.07.05-2.14.23-4.49,1.18-6.34,1.8-3.51,4.17-6.74,6.56-10.49.61.02,1.82,0,3.03.12,17.26,1.66,34.48,3.88,51.79,4.78,9.51.51,19.17-.96,28.69-2.1,3.07-.37,7.25-1.1,6.27-6.36-1.25-6.79-2.29-13.62-3.56-21.27-8.4,4.04-10.27-2.81-13.23-7.97-1.22-2.13-1.92-4.75-3.6-6.38-2.11-2.03-4.93-4.41-7.52-4.51-2.33-.08-5.51,2.21-7,4.37-2.27,3.31-3.07,7.59-5.13,11.08-1.35,2.31-3.52,5.09-5.82,5.66-4.08,1.03-7.38-1.11-8.94-5.48-1.33-3.65-2.98-7.18-4.55-10.73-3.68-8.41-11.13-9.54-17.05-2.43-2.74,3.3-4.98,7.01-7.67,10.34-2.87,3.55-13.65,2.36-14.67-1.76-1.43-5.77-2.05-11.74-3.02-17.61,2.64,1.38,4.22,3.18,5.41,5.2,2.61,4.38,5.79,2.4,9.03,1.12,3.33-1.3,6.67-2.36,6.01-7.12-.71-5.04-1.12-10.13-1.73-15.2-.66-5.52,1.51-7.8,6.9-6.66,4.78.98,9.53,2.19,14.15,3.76,3.23,1.11,4.87-.07,6.56-2.56,5.34-7.86,5.06-10.44-2.34-16.22-2.08-1.63-4.26-3.19-6.48-4.67-5.89-3.94-5.93-9.16-.11-13.47,3.62-2.67,7.54-5.09,10.64-8.27,1.61-1.65,2.83-4.95,2.38-7.12-1.41-6.94-4.14-8.95-11.15-7.94-4,.57-8.1,2.35-11.47,4.62-5.42,3.63-10.45,7.89-15.19,12.38-1.72,1.61-2.25,4.6-3.07,7.04-1.67,5.08-1.74,11.59-5.05,14.99-4.89,4.99-3.66,9.09-1.73,14,.96,2.48,1.98,4.98,3.41,7.2,1.51,2.34,3.54,4.37,5.24,6.4-6.51,2.49,4.42,8.53-.86,12.6-2.71-3.59-5.38-7.11-7.85-10.38-.14-2.09.1-4.49-.55-6.62-.98-3.31-2.82-6.38-3.84-9.68-1.28-4.1-3.22-6.13-8.01-6.66-9.7-1.07-17.34-10.32-16.7-18.88.66-8.83,8.99-18.13,17.78-17.05,9.35,1.15,14.28-3.58,19.77-9.22,5.54-5.71,11.25-10.55,10.75-20.11-.3-5.93-2.91-7.89-7.16-9.73-4.56-1.96-8.17-1.38-10.82,3.42-1.86,3.39-4.41,6.39-6.62,9.57-2.71,3.87-6.24,4.18-9.4.43-3.02-3.59-5.87-7.37-8.51-11.25-3.21-4.7-6.93-2.97-10.81-1.36-3.7,1.53-6.55,3.4-5.32,8.2,1,3.95,1.7,7.98,2.55,11.98,1.4,6.69-2.52,10.38-9.24,8.68-3.96-1.01-7.9-2.21-11.92-2.92-3.41-.6-7.36-2.24-9.18,2.96-1.71,4.94-3.98,9.7,1.92,13.58,3.92,2.58,7.77,5.34,11.38,8.34,3.61,3.01,3.46,6.18-.45,9.06-3.47,2.54-6.64,5.54-10.29,7.75-5.12,3.1-4.38,6.94-2.57,11.48,1.87,4.7,5.3,4.1,9.14,3.53,3.02-.45,6.13-.31,9.18-.44,7.58-.3,11.8,4.22,10.72,11.59-.5,3.43-1.06,6.89-1.87,10.25-1.13,4.63.78,7.26,4.85,9.27,4.08,2,6.86,1.03,9.42-2.49,2.04-2.79,4.55-5.23,6.74-7.94,6.56-8.12,9.46-7.8,15.54,2.79-9.07-5.46-13.83.46-18.98,5.41-1.77,1.71-3.53,3.48-5.58,4.78-1.16.74-3.02,1.19-4.31.85-10.48-2.76-11.83-4.69-11.26-15.42.11-2.04.14-4.09.44-6.12.57-3.72-.84-6.06-4.12-8-3.36-1.99-6.04-1.48-9.05.46-3.42,2.21-7.06,4.07-10.56,6.15-3.25,1.92-6.56,1.76-8.85-1.05-1.59-1.93-2.64-4.75-2.79-7.24-.18-2.97.86-6.03,1.38-9.05,1.96-11.06-4.71-16.75-15.28-13-2.7.95-5.37,1.96-8.04,3.06-3.37,1.39-6.52,3.47-9.99-.23-3.2-3.41-6.08-6.39-3.3-11.61,1.83-3.39,3.15-7.16,3.98-10.93.47-2.16.07-4.91-.89-6.95-2.73-5.77-7.49-6.01-12.79-3.78-2.84,1.18-5.62,2.52-8.54,3.42-1.36.41-3.89.49-4.39-.26-4.25-6.33-7.7-2.61-11.44.47-3,2.48-6.03,4.97-9.33,7-3.69,2.29-3.92,4.5-1.39,7.93,11.11,15,23.03,29.23,37.72,40.93,6.84,5.45,13.53,11.08,20.42,16.73-1.31,2.05-2.66,3.65-3.47,5.48-1.95,4.44-8.63,12.8-11.76,15.7-2.61,2.43-4.58,1.98-6.85.03-5.3-4.5-10.47-9.15-15.93-13.44-1.51-1.2-5.08-2.45-5.54-1.89-5.58,6.72-7.52.88-10.46-2.36,1.44-2.32,2.69-4.31,4.17-6.69-4.72-3.03-6.91-10.11-14.53-5.22-2.38,1.54-6.34-4.48-4.23-7.08,3.62-4.46-.6-6.08-2.39-8.61-1.8-2.58-3.77-4.02-7.18-1.94-1.1.67-3.89-.12-4.96-1.18-.75-.76-.55-3.84.33-4.62,4.31-3.82.57-6.15-1.29-8.74-2.49-3.47-5.08-1.41-7.38.28-7.74,5.67-15.09,11.98-23.22,17.03-4.82,2.97-5.26,5.22-3.12,10.16,4.98,11.46,5.35,21.05-5.21,30.58-.92.84-1.38,3.7-.71,4.5,9.73,11.53,18.56,24.19,29.87,33.96,16.64,14.37,34.97,26.85,52.84,39.78,17.12,12.39,35.44,22.84,55.4,29.97,13.24,4.73,26.7,9.04,40.35,12.38,18.45,4.51,37.02,9.31,55.81,11.45,22.47,2.55,45.23,2.53,67.88,3.31,1.59.05,4.6-2.33,4.65-3.7.67-14.2,8.4-22.57,21.34-26.77,3.39-1.1,4.37-2.84,3.83-6.34-1.37-9.09-2.58-18.23-3.44-27.37-.52-5.6-3.28-7.53-8.52-6.85Zm-142.19-153.66c-.88,1.91-1.57,3.41-2.51,5.42-.56-.54-1.11-1.04-1.64-1.55-.27-.25-.53-.5-.8-.76-.41-.38-.81-.77-1.24-1.17-.57-.54-1.17-1.11-1.83-1.74-.33-.31-.67-.64-1.04-.98,0-.01-.01,0-.01,0-.18-.17-.37-.35-.56-.52h.01c4.11-.04,6.75-.06,10.28-.09h.01c-.23.5-.45.96-.66,1.4Zm-74.17,116.36c0,.1-.02.19-.02.28,0,.01,0,.03,0,.04,0,.04,0,.1-.02.14-.55,2.03-.99,4.07-1.34,6.09-.06.32-.11.64-.15.96-.05.32-.09.63-.13.94-.17,1.27-.29,2.54-.37,3.8-.03.31-.05.63-.05.94-.04.82-.06,1.64-.06,2.47-.01.5,0,1.01.01,1.52.01.51.02,1.02.06,1.53.4,8,2.44,16.11,6.02,24.72-2.66-1.63-4.86-2.81-6.75-3.97-.26-.16-.53-.32-.79-.49-.31-.2-.63-.41-.93-.61-.17-.12-.34-.24-.51-.36-.35-.24-.67-.49-.99-.74-5.5-4.38-10.99-8.79-16.45-13.24-2.73-2.23-5.45-4.46-8.15-6.71s-5.4-4.5-8.09-6.79c-.08-.06-.15-.14-.22-.23-.08-.11-.16-.23-.25-.36-.06-.09-.11-.19-.17-.3-.04-.08-.08-.15-.1-.24-.04-.08-.08-.16-.1-.25-.05-.11-.09-.24-.12-.36-.06-.2-.11-.4-.17-.6s-.08-.4-.11-.6c-.02-.15-.04-.29-.06-.44v-.03s-.03-.39-.03-.39v-.03c0-.13-.01-.26,0-.38,0-.13.01-.26.03-.4-.01,0,0-.02,0-.02.02-.11.03-.23.05-.33.01-.06.03-.11.04-.17.01-.06.03-.11.04-.16t0-.01c.07-.21.15-.38.25-.52,1.27-1.73,2.56-3.44,3.88-5.13.53-.69,1.06-1.38,1.6-2.06,3.45-4.41,7.03-8.8,10.71-13.36.81-1,1.62-2.02,2.44-3.05h0c1.72,1.39,3.42,2.75,5.09,4.08,1.67,1.34,3.32,2.65,4.93,3.95,3.25,2.6,6.4,5.17,9.53,7.77.31.26.61.65.85,1.09.09.15.17.3.23.47.23.51.38,1.05.38,1.51Zm14.69,34.21c-11.06-22.96,2.99-53.4,23.86-61.27,26.7-10.08,51.85-3.78,63.77,24.12,12.69,27.11-2.35,53.86-24.08,63.23-25.57,11.02-50.77.41-63.55-26.08Zm121.95,27.59c-.19,1.85-.38,3.67-.56,5.5-.19,1.84-.38,3.65-.56,5.47-.3,2.92-.59,5.84-.9,8.78-.15,1.47-.29,2.94-.45,4.43h-.01c-1.24-.06-2.48-.14-3.71-.24-1.1-.08-2.21-.19-3.3-.3-.74-.08-1.47-.16-2.19-.25-1.21-.14-2.42-.31-3.62-.48-1.2-.18-2.4-.37-3.59-.58-.89-.15-1.78-.31-2.66-.48-.88-.16-1.77-.33-2.65-.51-1.18-.23-2.35-.48-3.51-.74-1.31-.28-2.6-.58-3.9-.9-1.3-.3-2.59-.62-3.87-.95-1.38-.35-2.75-.7-4.12-1.07-1.18-.31-2.35-.62-3.52-.95-1.26-.34-2.52-.68-3.77-1.04-1.88-.52-3.74-1.05-5.59-1.57-1.85-.52-3.7-1.04-5.53-1.55.52-.38,1.05-.77,1.58-1.14.4-.29.81-.57,1.22-.86.66-.45,1.33-.91,2.01-1.36,1.09-.73,2.19-1.45,3.28-2.18,1.7-1.12,3.41-2.24,5.07-3.4.46-.31.92-.63,1.37-.95.99-.71,1.96-1.43,2.91-2.18.53-.41,1.04-.82,1.54-1.25.16-.14.34-.28.5-.42.7-.58,1.37-1.19,2.01-1.83.28-.26.54-.52.81-.79.01,0,.01,0,.02-.01.04-.03.08-.07.11-.12.4-.4.79-.82,1.16-1.24.33-.38.67-.75.99-1.15.34-.41.67-.81,1.02-1.2,1.01-1.18,2-2.22,3-3.16.53-.49,1.06-.96,1.6-1.38.71-.56,1.42-1.06,2.14-1.49.21-.13.41-.25.61-.35.16-.09.32-.18.47-.26.15-.08.3-.15.47-.22.4-.19.78-.36,1.19-.5.09-.04.2-.07.29-.1.17-.07.36-.13.53-.18.29-.09.57-.16.87-.23.09-.03.17-.04.24-.05.25-.06.5-.11.75-.15.28-.04.57-.08.85-.1.35-.03.71-.05,1.07-.06.24,0,.47,0,.71.01.16,0,.33.02.5.03.2.01.4.03.6.05.13.01.28.03.42.06.3.03.6.08.91.14.21.03.41.08.63.13.17.04.34.08.51.12,1.13.29,2.3.67,3.52,1.2.26.1.51.23.78.35.26.12.53.25.8.38.18.08.35.16.54.23.21.08.42.17.62.23.21.08.42.14.63.2.22.07.44.12.66.17.23.05.45.11.68.15,1.66.35,3.48.51,5.4.79.21.02.42.06.64.1.04,0,.1,0,.16.02.26.04.53.09.79.14-.39,3.8-.77,7.53-1.15,11.21Z"/>
  <path class="cls-1" d="m442.57,573.03c-.43-.98-1.36-1.92-2.3-2.44-2.81-1.54-5.75-2.87-10.11-5.01,5.62-3.98,9.33-6.61,13.21-9.36-1.32-1.92-2.26-3.47-3.37-4.91-5.6-7.25-6.77-7.57-14.24-2.27-5.27,3.75-10.15,8.02-15.41,12.22-.82-.84-1.75-1.63-2.52-2.54-19.91-23.25-31.71-50.45-38.1-80.06-5.18-24.07-6.04-48.24,1.79-72.03,4.66-14.13,9.87-28.08,14.63-42.19.5-1.51-.36-3.5-.59-5.28-1.58.33-3.21.52-4.74,1-1.23.39-2.74,1.9-3.43,1.54-4.63-2.32-6.15,1.05-7.14,4.08-4.36,13.18-8.54,26.43-12.5,39.73-1.6,5.4-2.45,11.02-3.7,16.76-10.6-.6-20.71-1.17-30.87-1.74-.25-4.7,1.14-6.62,5.72-5.69,4.2.84,8.52,1.1,12.79,1.51,3.22.32,5.12-.75,6.16-4.34,4.69-16.25,9.61-32.43,14.74-48.54,1.03-3.22,1.09-5.08-2.03-7.13-9.72-6.42-19.22-13.2-28.84-19.79-9.2-6.3-18.43-12.53-28.47-19.37-2.71,5.34-5.29,9.73-7.11,14.42-.85,2.2-.24,4.97-.27,7.47,2.39-.72,5.18-.91,7.12-2.29,3.06-2.16,5.24-2.8,7.5,1.35-2.51,2.45-4.87,4.99-7.47,7.22-4.48,3.87-4.54,3.79-1.38,7.22,2.34-.37,5.48-1.75,6.35-.87,5.48,5.52,8.45,1.06,11.3-2.6,2.01-2.59,3.67-2.84,6.04-.85,1.69,1.41,3.45,2.73,5.12,4.05-.3,1.02-.35,1.66-.65,2.15-.68,1.02-1.42,2-2.24,2.92-11.96,13.16-26.95,20.36-44.52,22.14-18.97,1.91-34.15-6.42-47.71-18.5-12.48-11.14-21.25-24.56-21.82-41.76-.27-7.66.86-15.49,2.53-23,.51-2.31,4.86-3.76,7.46-5.62,1.08,1.73,2.58,3.38,3.56,5.12.16.26.3.55.43.83.23.54.42,1.09.52,1.64.59,3.29-.57,6.85-.86,10.3-.94,10.53-.3,20.76,5.21,30.25,11.24,19.38,28.21,28.77,50.33,27.49,7.73-.43,15.33-3.87,22.85-6.34,1.22-.4,1.74-2.97,2.58-4.55-1.53-.03-3.09.08-4.6-.15-1.56-.23-3.98-.34-4.46-1.31-2.14-4.27-4.81-3.58-8.62-2.4-14.23,4.37-27.71,2.17-37.82-8.91-11.14-12.2-14.96-26.99-9.63-43.3.84-2.58,2.09-4.57-1.15-6.78-6.59-4.49-12.78-9.52-19.15-14.33-7.92-6-9.13-5.61-13.94,3.13-11.91,21.7-10.07,60.99,10.91,83.88,23.54,25.67,62.71,34.77,93.43,18.51,10.8-5.72,20.15-14.16,30.16-21.37-.25-.55-.48-1.1-.73-1.65,1.48.95,2.97,1.9,4.07,2.62-4.62,13.88-9.1,27.33-13.64,40.92-2.95-.5-5.97-1.04-8.98-1.5-14.62-2.21-14.75-2.22-17.32,12.11-.59,3.33-1.75,4.57-5.12,4.27-9.78-.83-19.6-1.29-29.34-2.38-1.51-.16-3.92-2.95-3.85-4.42.29-6.22,1.36-12.39,2.17-18.66-5.58-.89-11.49-1.86-18.01-2.93-1.38,6.7-2.58,13.28-4.18,19.75-.4,1.62-2.12,4.22-3.13,4.18-8.1-.38-16.89,1.9-23.48-5.58-1.06-1.18-4.28-1.84-5.65-1.12-5.4,2.85-10.62,6.12-15.55,9.71-1.17.88-2.02,4.38-1.28,5.32,5.03,6.55,10.55,12.75,16.06,19.25,2.39-1.91,4.21-2.96,5.5-4.49,3.97-4.62,8.88-5.71,14.78-5.25,10.59.82,21.24,1.03,31.85,1.63,12.4.69,24.79,1.52,37.09,2.27.83,9.32.35,9.93-7.95,9.95-4.09.01-8.23-.56-12.24-.05-1.74.22-4.3,2.3-4.61,3.89-.93,4.78-1.27,9.73-1.18,14.61.09,4.22-.95,6.08-5.58,6.57-18.71,1.96-37.4,4.13-56.02,6.78-6.81.98-12.99,2.57-18.6-3.39-2.69-2.86-6.08-3.09-9.05,1.18-3.13,4.49-7.25,8.3-11.04,12.31-2,2.11-2.79,3.94.07,6.04,6.2,4.58,12.33,9.27,19.07,14.35,5.22-9.94,13.84-12.9,23.96-13.51,6.11-.37,12.15-1.68,18.21-2.52,13.3-1.83,26.59-3.65,40.36-5.52,1.34,6.37,2.56,12.13,3.75,17.91,1.13,5.4,3.72,7.43,9.52,5.5,6.58-2.19,13.43-3.6,20.26-4.99,7.25-1.46,7.62-.96,7.67,7.36-17.7,6-35.44,12.14-53.27,18.05-20.55,6.8-41.25,13.22-61.74,20.2-6.72,2.29-12.95,4.85-19.76.51-1.76-1.14-4.27-1.14-6.07-1.56-4.35,6.65-8.36,13.04-12.64,19.26-2.51,3.67-1.6,5.82,2.17,7.71,7.3,3.65,14.49,7.53,21.9,11.42,1.99-4.15,3.26-5.86,3.65-7.75,1.4-6.92,6.06-9.98,12.38-11.92,8.6-2.66,16.98-5.98,25.51-8.87,13.63-4.62,27.31-9.11,40.96-13.67-.65,1.12-1.51,1.71-2.46,2.03-5.68,1.94-7.17,5.35-4.34,10.84,2.41,4.72,4.41,9.66,6.61,14.5,5.98,13.08,5.93,12.99,18.3,6.39,3.67-1.94,4.52-3.83,2.53-7.71-3.56-6.91-6.42-14.17-9.85-21.13-1.27-2.58-3.37-4.77-5.13-7.17,15.08-5.04,30.83-10.32,47.49-15.89.49,3.46,1.65,6.05.96,7.96-1.22,3.28-13.87,7.94-17.56,7.14-5.98-1.31-13.45,2.72-15.47,8.36-1.76,4.85.76,11.24,5.39,13.74,5.48,2.95,13.75,1.76,16.21-4.07,3.78-8.97,12.14-8.42,18.47-11.92,4.73,6.11,4.59,6.63-1.84,10.28-24.7,14.06-49.35,28.21-74.1,42.15-16.93,9.54-34.12,18.59-50.97,28.26-5.74,3.3-11.01,5.78-17.81,3.42-1.58-.54-5.13,1.13-6.02,2.74-2.42,4.42-4.02,9.32-5.73,14.1-1.1,3.08-1.83,6.32-2.82,9.77,10.38,1.7,19.59,3.22,29.39,4.84.46-10.76,7.37-15.74,15.64-20.3,13.97-7.67,27.44-16.26,41.21-24.29,9.49-5.52,19.14-10.78,29.12-16.37,18.25,28.96,40.19,53.59,66,76.94-.15-8.58,4.76-10.95,11.71-12.94-22.62-23.19-47.61-43.23-60.76-73.8,13.08-8.03,26.02-15.97,39.3-24.11,2.08,3.1,3.82,5.58,5.45,8.14,2.3,3.62,5.3,4.74,8.63,1.72,5.25-4.74,8.65-3.14,12.56,2.07,5.7,7.62,12.24,14.62,18.33,21.77-2.6,4.23-5.34,6.87-11.1,2.59-1.58,7.3-2.98,13.6-4.64,21.23,8-1.92,14.67-3.52,22-5.28-1.71-2.39-2.72-3.8-3.84-5.35,3.96-4.05,7.65-7.85,11.37-11.63,2.94-2.96,3.02-5.44,0-8.85-10.48-11.88-20.59-24.08-30.94-36.29-2.13,1.17-4.92,2.89-7.86,4.23-.77.35-2.55-.15-3.01-.84-.46-.69-.3-2.7.29-3.1,5.47-3.77,11.08-7.33,16.21-10.68,10.74,13.07,20.84,25.37,31.3,38.11,3.96-5.6,6.85-9.66,10.69-15.08,2.72,4.36,4.69,7.49,7.16,11.47,3.33,1.01,7.98,2.5,12.71,3.76,1.23.34,3.16.39,3.84-.32.68-.69.56-2.65.15-3.83-1.3-3.66-2.82-7.25-4.42-10.78Zm-220-149.44c0,.11-.01.2-.03.29,0,.04-.02.09-.02.12,0,.04-.02.09-.03.14-.02.08-.04.16-.07.23,0,.01,0,.02-.02.04-.03.08-.06.16-.1.24-.13.24-.28.46-.45.67-.05.07-.11.14-.18.2-.06.08-.13.15-.21.22-.23.23-.48.44-.75.65-.13.12-.27.23-.41.31-.86.63-1.84,1.26-2.74,1.98-.67-.75-1.34-1.5-2.04-2.28-1.18-1.3-2.43-2.71-3.95-4.4.46-.22.9-.47,1.3-.74.28-.18.55-.37.81-.56.26-.19.52-.38.76-.56.38-.28.73-.55,1.09-.79.24-.17.48-.31.71-.44.23-.13.46-.24.69-.32.24-.09.47-.16.7-.19.13-.02.25-.03.37-.02.07,0,.12,0,.19,0,.02,0,.04,0,.07,0,.07,0,.14.01.21.02.07.01.14.02.21.04.07.02.14.03.21.07.06.01.13.04.18.07.05.01.09.04.14.07.4.18.81.48,1.25.91.1.09.19.2.3.31.14.15.29.32.44.5.08.1.15.2.22.28.08.1.15.2.21.28.13.19.24.37.34.54.14.23.25.45.34.66.17.43.27.83.29,1.2,0,.09,0,.18,0,.27Zm-23.58,65.9c0,.05-.02.1-.03.16-.01.07-.03.15-.06.23-.03.1-.08.21-.13.32-.05.11-.1.22-.16.33-.12.22-.26.44-.42.66-.31.45-.68.88-1.09,1.24-.1.1-.2.18-.31.26-.18.16-.38.31-.58.41-.05.04-.1.07-.16.09-.13.08-.26.14-.39.18-.02,0-.04,0-.07.02-.14.04-.27.07-.41.12t-.02,0c-.47.12-.98.16-1.49.16-.37,0-.75-.02-1.13-.05-1.35-.11-2.74-.39-4.08-.47.28-1.31.57-2.61.85-3.92,1.4-1.67,2.8-3.33,4.73-5.63.13-.15.26-.31.39-.46h0c.97,1.16,2.01,2.13,2.86,3.05.85.93,1.49,1.81,1.7,2.78.03.15.03.31-.01.5Zm-8.03,77.02c-.4,1.16-.79,2.33-1.23,3.59-.16.49-.34,1-.52,1.54-.09.27-.19.56-.29.86-.04.1-.08.2-.11.3-1.29-.6-2.43-1.12-3.51-1.62-.42-.2-.84-.39-1.26-.58-.21-.09-.42-.19-.62-.29-1-.46-1.97-.91-3.01-1.39h-.01c.2-.3.4-.6.6-.9,1.36-2.08,2.56-3.88,4.02-6.12,2,.8,4,1.59,6.61,2.63h.01c-.23.68-.45,1.32-.68,1.97Zm8.12,81.09c.01.66-.16,1.39-.39,2.15-.06.18-.12.37-.17.55-.18.56-.36,1.13-.5,1.71-.14.58-.24,1.15-.23,1.72-3.22-.6-5.87-1.1-9.18-1.72.05-.09.1-.19.14-.29.09-.19.18-.39.26-.58.04-.1.08-.21.12-.3.08-.21.14-.41.21-.62.32-.92.56-1.86.84-2.71.07-.18.13-.37.21-.54.06-.14.11-.27.18-.41.06-.12.12-.25.18-.35,0-.01,0-.01.02-.02.07-.13.14-.25.22-.36.08-.12.16-.23.25-.34.08-.11.19-.21.29-.32.09-.08.17-.15.27-.22.11-.08.22-.15.34-.21.06-.04.12-.07.18-.09.08-.04.16-.08.26-.1.08-.03.18-.06.27-.08.12-.03.23-.06.36-.08.66-.1,1.47-.05,2.48.2.22.05.41.11.6.17.14.03.26.08.39.13.3.11.56.22.79.34.19.1.36.2.5.3.1.07.19.15.27.22.09.07.16.15.23.24.08.08.14.16.19.24.06.08.1.16.15.25.06.11.11.21.15.33.04.14.07.27.09.41.02.13.03.27.03.41Zm96.21-181.19c-.03-.64-.07-1.25-.1-1.86-.04-.7-.08-1.39-.13-2.11-.02-.35-.04-.7-.06-1.07,0-.19-.01-.38-.03-.57-.01-.38-.04-.77-.06-1.18,0-.21-.02-.41-.03-.63,6.78-.23,13.21-.46,19.66-.68,3-.1,4.97-.17,6.26-.58.15-.04.28-.1.4-.15.18-.08.35-.17.51-.27.12-.08.23-.16.33-.26.11-.1.23-.22.32-.35.11-.15.21-.32.3-.5.05-.09.09-.19.12-.29.04-.09.08-.2.11-.31.04-.1.07-.22.09-.34.04-.13.06-.25.08-.38.05-.26.08-.54.11-.83.02-.17.03-.35.05-.54.02-.17.02-.34.03-.52.01-.22.03-.46.03-.71,0-.24.01-.5.01-.76.02-.32.02-.67.02-1.03,0-.21,0-.4,0-.61.01-.21.01-.43.01-.64,0-.82.03-1.63.04-2.45.04-1.63.08-3.26.14-4.89.02-.82.04-1.64.07-2.45,0-.12.09-.24.41-.73.05-.08.12-.18.19-.3.11-.17.24-.37.39-.61h.01c8.87.65,17.96,1.32,27.75,2.05,0,.31,0,.61,0,.9,0,.29,0,.59,0,.87,0,.3-.01.58-.01.86,0,.28,0,.57-.01.85-.02,1.48-.04,2.89-.02,4.29.01.36,0,.71.02,1.05.24,12.36.28,12.51-12.41,14.08-1.82.22-3.65.44-5.46.67-2.56.3-5.11.6-7.68.89-2.57.29-5.15.58-7.73.87-2.22.25-4.43.5-6.66.74-3.73.41-7.48.82-11.27,1.24-1.91.21-3.81.43-5.73.64-.03-.49-.06-.95-.08-1.4Zm41.21,33.23c-.03-.2-.07-.4-.11-.6-.08-.4-.18-.8-.28-1.19-.1-.4-.21-.8-.31-1.18-.1-.4-.21-.8-.29-1.19l-.12-.6c-.09-.42-.18-.81-.29-1.18-.11-.35-.23-.68-.38-.98-.14-.28-.3-.55-.49-.78-.18-.23-.37-.42-.59-.6-.44-.34-.94-.54-1.55-.65-.29-.05-.61-.07-.96-.07-.34,0-.69.04-1.06.1s-.78.14-1.21.25c-2.07.52-4.14,1.03-6.23,1.52-6.23,1.48-12.5,2.86-18.7,4.26-1.19.26-2.37.52-3.55.79-.15-.14-.29-.27-.41-.37-.12-.1-.22-.18-.3-.26-.1-.1-.19-.17-.25-.22-.06-.06-.1-.1-.12-.15-.02-.02-.04-.04-.04-.06-.07-.21-.14-.4-.2-.6-.33-.98-.65-1.88-.91-2.69-.22-.64-.41-1.23-.55-1.78-.32-1.09-.52-2-.57-2.76-.02-.18-.02-.36-.01-.52,0-.34.04-.63.11-.9.03-.09.06-.18.1-.28.04-.09.09-.19.14-.28.05-.09.11-.18.18-.27.05-.06.09-.12.15-.19.09-.1.2-.2.32-.29.02-.01.04-.03.05-.04.1-.08.22-.15.34-.23.09-.06.19-.11.29-.15.16-.09.34-.17.54-.25.05-.02.1-.04.15-.06.14-.05.29-.1.43-.15.28-.09.59-.18.93-.25.12-.03.22-.06.35-.09,1.36-.31,3.11-.58,5.29-.91s4.42-.66,6.63-.97c2.2-.32,4.42-.64,6.64-.94,1.85-.26,3.71-.52,5.57-.77,3.59-.49,7.21-.98,10.86-1.46,3.02-.4,6.05-.81,9.12-1.22.29-.04.58-.08.86-.12,1.31-.18,2.62-.35,3.95-.53,1.48-.19,2.98-.4,4.47-.6.83,3.27,1.69,6.45,2.49,9.61.1.4.2.8.3,1.18s.2.79.29,1.18c.15.59.29,1.18.43,1.76.04.19.09.39.13.59.06.25.12.5.18.76.03.15.07.29.1.44.06.23.1.47.15.71.06.27.13.55.18.82.04.22.1.44.14.66.09.43.18.87.26,1.31l.02.12s0,.04,0,.08c0,.04,0,.09-.02.14-.01.05-.03.1-.04.16-.03.11-.08.23-.15.36-.03.06-.07.12-.1.18-.07.13-.17.26-.27.39-.08.11-.17.22-.27.32-.08.1-.17.19-.25.28-.09.1-.19.19-.28.28-.1.1-.22.21-.34.3-.47.4-.98.73-1.42.9-.87.34-1.76.65-2.66.94-.3.1-.61.2-.91.3-1.21.38-2.43.73-3.63,1.09-.8.24-1.61.48-2.42.73-1.07.33-2.14.67-3.19,1.05-4.23,1.52-6.09-.15-6.72-4.18Zm37.06,34.96c0,.09-.02.17-.03.25-.04.23-.1.45-.17.67-.02.08-.05.16-.08.23-.21.52-.54,1.01-1,1.46-.23.25-.5.48-.81.69-.16.11-.31.22-.48.32-.17.11-.35.21-.54.31-.56.3-1.2.58-1.92.85-2.84,1.02-5.33,3-7.96,4.56-6.01,3.58-6.94,3.34-9.89-3.19-1.19-2.63-2.43-5.26-3.51-7.94-.14-.32-.26-.65-.39-.96-.39-.96-.74-1.93-1.06-2.91-.2-.58-.38-1.15-.55-1.74-.02-.04-.02-.08-.03-.13-.06-.22-.06-.48-.04-.76.02-.23.05-.48.11-.72.06-.26.13-.51.22-.77.08-.25.19-.5.31-.74.06-.13.12-.26.18-.38.45-.84,1.03-1.56,1.62-1.87.46-.24.95-.47,1.43-.69.25-.1.49-.21.75-.32.49-.21.99-.39,1.49-.57.75-.28,1.52-.54,2.29-.78.95-.32,1.92-.63,2.87-.96.57-.2,1.15-.4,1.71-.61.51-.19,1-.39,1.49-.6.05-.03.09-.05.14-.07.04-.02.09-.04.13-.05.16-.08.33-.14.48-.19.15-.07.3-.11.44-.15.04-.02.09-.04.14-.04.12-.04.25-.08.38-.11,0-.01.02-.01.03-.02.15-.04.29-.09.44-.11.6-.15,1.16-.22,1.69-.2.15,0,.3,0,.45.02.01,0,.02,0,.03,0,.12.01.23.03.35.06.03,0,.07.01.1.02.11.03.22.05.32.09.33.09.64.23.94.42.12.08.24.16.37.27.12.09.24.2.34.32.08.08.14.14.2.23.08.09.15.17.21.26.37.48.67,1.07.93,1.77.09.22.17.44.23.68.08.24.15.49.21.75.08.29.16.58.26.87.28.87.67,1.71,1.04,2.55.17.38.32.76.48,1.14h.01s.06-.03.09-.04l.06-.02c.64,1.27,1.2,2.59,1.94,3.82.1.17.2.34.3.51.09.15.17.31.24.46.06.11.12.23.17.34.11.22.21.45.3.66.05.11.09.23.13.33.06.19.12.37.18.56h0c.17.62.26,1.19.25,1.73,0,.14-.01.27-.03.41Z"/>
  <path class="cls-1" d="m514.9,134.08c-18.89-40.25-66.7-59.61-111.73-41.51-39.33,15.8-66.39,64.45-46.86,113.08,12.92,32.19,57.85,60.67,94.65,50.05-2.29-10.79-3.15-11.41-13.39-12.38-1.53-.14-4.05-2.12-4.13-3.39-.36-5.24.02-10.51.14-16.35,12.69.35,23.39-3.73,33.06-10.74q10.83-7.84,21.2,1.06c.14.14.29.28.47.4,2.99,1.84,2.79,3.88.84,6.56-6.29,8.61-6.22,8.86-.21,18.11,28.12-19.21,47.16-59.71,25.96-104.88Zm-12.52,20.27c-5.96,1.49-11.86,3.29-17.89,4.26-5.85.93-7.42,4.22-6.9,9.46.97,9.73-1.76,18.36-6.71,26.82-7.95,13.59-28.17,21.28-43.95,16.83-9.4-2.66-17.22-7.5-23.01-15.36-2.35-3.17-4.36-3.44-7.53-.99-5.97,4.62-12.27,8.83-19.12,13.69-1.59-2.46-2.94-4.52-3.91-6,4.9-3.03,9.35-5.78,13.78-8.54-.39-.83-.78-1.66-1.16-2.48-4.78,1.21-9.56,2.41-15.08,3.79-4.58-5.01-6.73-20.17-3.84-30.02,5.13-.16,9.89-.3,14.67-.44.08-.96.17-1.92.25-2.87-4.4-1.39-8.77-2.76-14.27-4.5,3-7.18,6.45-15.44,9.67-23.16,5.2,2.47,9.2,4.35,13.19,6.24.58-.68,1.16-1.36,1.74-2.03-2.92-3.33-5.85-6.67-9.85-11.22,7.34-5.52,15.28-11.5,22.18-16.7,4.14,5.38,7.34,9.56,10.58,13.75.78-.39,1.56-.79,2.34-1.18-1.35-4.79-2.71-9.58-4.42-15.64,8.8-3.59,18.98-5.46,28.5-5.05.6,6.55,1.13,12.36,1.65,18.18.64.11,1.26.22,1.89.34,2.02-5.38,4.04-10.77,6.58-17.55,7.89,3.07,16.46,6.41,24.6,9.59-3.26,5.84-5.98,10.71-8.7,15.57.58.54,1.17,1.09,1.75,1.64,4.47-3.28,8.93-6.55,14.46-10.6,5.17,6.68,10.95,14.16,16.27,21.01-4.94,3.58-8.92,6.46-12.89,9.34.34.69.69,1.4,1.04,2.1,4.51-1.23,9-2.43,13.9-3.77l1.73,4.31c-.61.48-1.03,1.04-1.54,1.16Z"/>
  <path class="cls-1" d="m799.09,390.51c-6.06-26.93-15.53-52.49-30.45-75.86-1.92-3.03-2.09-5.49-.57-8.97,6.19-14.18,2.53-28.08-8.99-38.06-9.69-8.41-20.4-8.13-31.19-4.48-6.27-5.53-12.17-10.89-18.24-16.04-7.72-6.55-7.78-6.47-14.71,1.1-.23.27-.73.28-1.53.55-2.92-1.68-6.18-3.38-9.26-5.34-3.28-2.1-5.7-1.91-7.18,2.03-.28.34-.56.67-.85,1.01-.7,3.05-2.99,7.57-1.8,8.86,4.2,4.48,4.88-2.58,9.41-3.81,8.6,7.5,18.01,15.57,27.14,23.91,1.09,1,1.43,3.75.95,5.33-2.36,7.91-2.17,15.64.31,23.5.5,1.61-.13,4.56-1.35,5.57-9.41,7.86-18.98,15.55-28.78,22.9-1.76,1.32-4.9.71-7.35,1.28-1.62.39-4.23.97-4.5,1.98-1.36,4.96-2.07,10.09-3.04,15.38,6.64-.4,12.5-.84,18.39-1.04,1.81-.07,3.63.48,5.45.76-.14.87-.27,1.74-.4,2.6-8.92.27-17.84.52-27.34.8,2.27-9.99,4.22-18.59,6.33-27.85,2.25,2.02,3.54,3.83,5.31,4.59,1.46.63,4.07.7,5.01-.19.94-.86.97-3.52.38-4.97-.64-1.57-2.37-2.77-3.79-3.93-15.24-12.5-31.42-23.53-49.86-30.82-2.04-.8-5.37-1.17-6.86-.06-9.44,7.03-18.69,14.36-27.54,22.1-1.45,1.23-1.63,5.44-.71,7.56,2.56,5.97,5.81,11.65,9.19,17.2,1.35,2.23,3.42,4.51,5.72,5.59,11.25,5.25,21.47,11.93,29.46,21.49,2.78,3.32,5.26,3.81,9.4,3.41,20.47-2.03,41-3.51,61.51-5.21,1.29-.11,2.57-.41,5.88-.97-7.05-7.91-13.1-14.69-19.19-21.52-2.96,2.18-5.01,3.69-7.08,5.22-.41-.58-.84-1.14-1.25-1.69,10.49-8.32,21.2-16.4,31.41-25.08,3.81-3.25,6.73-3.42,10.64-.84,6.33,4.17,13.3,4.57,20.64,3.51,1.62-.23,4.47,1.11,5.17,2.5,7.43,15.2,14.57,30.56,21.65,45.92.46,1.01.29,3.19-.4,3.72-8.56,6.32-6.55,14.68-4.52,22.92,1.61,6.54,3.08,12.76-4.66,16.65-1.19.6-1.96,2.05-2.86,3.16-5.47,6.7-4.95,8.29,4.02,11.27,7.59-13.37,19.04-20.62,35.05-19.27.05-2.46.33-4.11.09-5.69-.63-4.25-1.32-8.49-2.26-12.68Zm-51.19-83.96c-9.45,3.79-18.86.11-22.39-8.77-3.45-8.75.15-16.55,9.31-20.1,9.61-3.72,18.37-.78,21.83,7.37,3.99,9.35.57,17.75-8.74,21.5Zm41.34,86.17c.06.58.06,1.14.03,1.68-.01.27-.04.53-.08.78-.05.27-.09.53-.15.76-.12.49-.28.95-.49,1.38-.09.2-.19.4-.3.58-.02.02-.03.05-.04.07-.09.15-.18.3-.29.44-.09.13-.19.26-.29.37-.17.23-.37.44-.57.62-.12.12-.25.23-.38.34-.27.24-.55.44-.86.62-.15.1-.31.19-.48.28-.15.09-.31.18-.48.25-.51.24-1.04.44-1.64.62-.02-.3-.05-.6-.09-.89v-.04c-.11-.92-.27-1.81-.45-2.71-.18-.89-.39-1.77-.58-2.65-.09-.48-.2-.95-.28-1.42-.04-.21-.08-.41-.11-.61-.07-.4-.14-.81-.18-1.2-.01-.1-.03-.19-.03-.29-.04-.27-.07-.54-.08-.82-.02-.18-.02-.37-.03-.55,0-.18-.01-.37,0-.55-.01-.23,0-.46.02-.68,0-.23.03-.45.06-.68.04-.45.12-.9.24-1.34.12-.44.26-.88.45-1.32.07-.16.15-.33.23-.49.06-.13.12-.24.19-.35h0s0-.03.03-.05c.05-.12.12-.22.2-.35.04-.08.09-.17.15-.24.09-.17.21-.33.33-.5.32-.43.67-.86,1.08-1.3.21-.22.42-.43.65-.64,2.57,4.1,4,7.8,4.26,10.87Z"/>
  <path class="cls-1" d="m601.37,349.92c4.11,16.15,4.94,32.6.55,48.49-6.77,24.5-23.1,41.71-46.32,51.48-9.59,4.02-20.22,2.87-30.75-1.64,8.36-2.03,16-3.31,23.23-5.76,12.96-4.38,21.55-14.21,29.53-24.84,19.34-25.75,11.33-62.77-4.95-80.09-13.3-14.14-29.91-19.25-48.55-15.77-13.44,2.51-26.66,6.58-36.67,17.15-1.11,1.16-4.13,1.29-5.99.81-4.68-1.18-9.22-2.98-15.04-4.96,1.19,7.02,1.81,13.05,3.32,18.85,1.23,4.68-.42,5.4-4.47,4.97-7.05-.76-14.13-1.27-22.29-1.98,2.03,7.71,4.06,14.11,5.3,20.65.64,3.37.95,7.51-.43,10.44-18.67,39.83-13.03,78.35,5.6,116.31,1.13,2.3,1.94,4.77,2.58,6.35l-35.95,14.43c-12.19-18.97-20.16-39.44-21.53-62.22-.09-1.45,1.46-4.31,2.09-4.27,2.64.17,5.76.52,7.7,2.07,6.77,5.39,9.33,5.99,15.07,2.07,5.16-3.53,6.8-9.28,5.01-16.4-1.51-6-5.2-9.48-11.3-9.09-2.94.19-5.75,2.37-8.67,3.52-2.46.96-5.07,2.42-7.5,2.23-1-.08-2.42-3.91-2.42-6.04-.03-19.38,6.18-37.4,12.83-55.25.6-1.6,3.76-3.12,5.76-3.17,7.91-.17,15.84.28,24.59.51-3.11-10.15-6.09-19.96-9.43-30.86,8.36.32,15.25.5,22.12.9,4.77.28,7.42-.33,5.76-6.39-1.52-5.56-1.66-11.49-2.59-18.72,10.14,3.08,18.6,5.64,27.26,8.27,2.89-8.76,5.12-17.06,8.48-24.89,1.41-3.29,4.92-7.43,8.01-7.95,24.13-4.06,47.69-2.31,69.69,9.66,16.48,8.98,25.81,23.22,30.36,41.09Z"/>
  <path class="cls-1" d="m834.56,94.38c-1.64-3.69-4.34-6.9-6.56-10.34-19.66-30.31-54.29-44.82-88.59-37.4-5.78,1.26-10.08,2.54-10.26,9.46-.05,2.12-1.27,4.21-2.24,7.22-2.74-1.42-5.02-2.1-6.61-3.54-5.11-4.63-10.34-3.99-14.79.18-7.44,6.94-15.4,13.71-21.21,21.92-15.9,22.43-20.39,47.35-12.48,73.98,6.18,20.83,18.26,37.01,37.45,48.07,17.44,10.04,35.32,14.9,55.64,11.85,10.27-1.54,16.15-5.23,16.72-15.85.04-.69.62-1.35,1.2-2.5,1.99,1.32,3.76,2.27,5.3,3.54,5.16,4.3,10.36,4.48,15.46.07,6.77-5.88,13.64-11.69,20-18,2.35-2.35,3.4-6.04,5.8-10.55-6.26,2.19-10.62,5.03-14.94,4.98-8.95-.12-16.19,2.65-22.74,8.46-3.81,3.37-6.35,1.75-8.17-2.69-3.57-8.7-7.59-17.21-11.23-25.9-3.45-8.23-6.67-16.55-10-24.82,8.29-3.55,7.85-10.63,10.9-18.08l-15.97,6.41c-7.06-17.58-13.98-34.59-20.52-51.75-.36-.91,2.16-4.05,3.76-4.44,23.5-5.72,43.71,1.28,60.63,17.58,7.56,7.28,13.74,15.62,24.86,18.17,3.71.87,6.81,4.48,10.19,6.81.57-.32,1.13-.64,1.71-.96-1.06-3.99-1.65-8.17-3.31-11.89Zm-111.65-22.67l21.93,54.66-54.91,22.03c-11.75-30.99,8.67-64.58,32.98-76.69Zm29.87,71.31c5.88,14.18,11.61,28.42,17.39,42.65l3.15,7.86c-15.15,5.7-29.21,3.46-43.1-.54-15.34-4.41-26.3-14.41-34.13-28.1-1.51-2.64-1.3-4.49,1.78-5.8,16.21-6.85,32.36-13.8,48.55-20.64,4.45-1.88,5.28,1.91,6.37,4.58Z"/>
  <path class="cls-1" d="m189.37,23.48c1.93,1.74,2.7,2.75,3.72,3.29,4.89,2.65,4.47,5.4,1.34,9.62-11.79,15.94-23.29,32.1-34.65,48.34-2.41,3.45-4.48,3.82-8.04,2.03-25.56-12.78-60.06-3.48-76.64,18.58-18.65,24.81-19.06,55.47-.03,80,1.2,1.54,3.6,3.38,5.16,3.17,4.31-.61,8.23-11.11,6.01-14.95-1.65-2.82-3.67-5.5-4.88-8.48-11.77-28.62,2.48-62.44,38.44-66.81,8.84-1.07,17.52-1.47,26.24,4.24-1.43,2.22-2.55,4.13-3.84,5.93-13.81,19.29-27.59,38.58-41.48,57.8-19.11,26.46-38.23,52.92-57.65,79.15-2.2,2.99-6.03,5.34-9.59,6.61-4.89,1.74-7.2,3.36-6.31,9.42,2.48,16.83,2.09,16.78,18.61,13.26,3.45-.74,4.82-2.05,4.57-5.69-.35-5.25.06-10.07,3.6-14.9,33.21-45.37,66.11-90.99,99.15-136.48,1.73-2.39,3.95-4.41,6.17-6.85,1.65,1.72,2.89,2.78,3.87,4.04,12.88,16.53,12.52,34.7,4.93,52.79-6.54,15.57-20.69,22.57-36.36,24.86-6.98,1.03-10.47,4.25-13.8,9.16-3.99,5.93-3.34,7.49,3.92,8.51,25.37,3.59,49.87-10.94,61.35-35.62,12.36-26.56,9.22-51.77-10.92-73.9-2.89-3.19-3.02-5.3-.41-8.8,10.88-14.59,21.43-29.42,32.1-44.17q5.36-7.43,13.15-2.38c.45.29,1.13.22,3.48.6,1.14-12.72,2.26-25.21,3.52-39.19-12.22,5.93-23.12,11.22-34.72,16.84ZM40.34,267.31c-.16.14-.32.3-.49.44h0c-1.3-1.17-2.59-2.33-3.88-3.49-.19-.17-.38-.33-.57-.51,1.17-1.29,2.33-2.56,3.5-3.83,1.19,1.83,2.39,3.64,3.58,5.47-.72.64-1.44,1.29-2.15,1.93Z"/>
  <path class="cls-1" d="m251.17,179.71v.02c-.07-.02-.11-.02-.17-.04v-.03s.1-.15.1-.15c.02.07.04.14.07.21Z"/>
  <path class="cls-1" d="m413.06,309.87c-1.24,3.3-3.24,4.69-6.86,2.69-1.32-.73-2.8-1.21-4.2-1.77-.04,0-.09,0-.14-.02,0,0,0,.02-.01,0-1.56-.17-3.56-.92-4.53-.23-2.09,1.48-3.6,3.76-5.66,6.07-11.61-8.31-22.81-16.49-34.17-24.42-13.57-9.48-27.22-18.87-40.98-28.1-12.54-8.39-21.59-19.12-25.19-34.14-.57-2.42-2.93-4.76-5.02-6.42-17.04-13.41-33.41-8.63-43.82,10.18-8.09,14.63.82,31.47,14.59,39.98,1.05.65,2.8.69,4.09.4,13.47-3.09,24.49,2.65,34.93,9.86,31.29,21.59,62.46,43.34,93.58,65.2,1.71,1.19,3.71,4.24,3.28,5.79-1.1,4-3.9,2.66-6.71,1.04-1.14-.66-3.94-.42-4.62.46-2.33,3.05-4.08,2.07-6.64.31-29.81-20.56-59.58-41.19-89.64-61.38-9.79-6.58-20.61-8.68-31.98-3.03-1.71.85-4.76,1.13-6.17.17-16.71-11.43-33.22-23.14-49.76-34.8-.44-.31-.6-1-1.43-2.48,11.77.41,23.87,1.09,27.18-13.29,2.09-9.07-2.89-16.04-9.17-22.58-3.19,4.3-9.4,6.47-6.24,13.44.3.66-1.82,3.05-3.24,3.64-1.03.43-3.24-.38-4.07-1.36-2.08-2.49-3.94-5.26-5.35-8.18-.53-1.09.03-3.12.78-4.28,1.07-1.69,2.78-2.97,4.21-4.43,5.49-5.62,5.37-6.38-1.59-10.56-6.59,5.28-7.16,5.04-8.67-3.47-.44-2.41-.81-4.85-1.45-7.21-2.21-8.22-2.26-8.27,6.67-8.48,4.57-.1,9.13.07,14.53.11-1.14,3.05-1.83,4.88-2.64,7.02,1.98,1.51,3.9,2.98,6.77,5.17,3.9-7.73,7.41-17.12,18.46-10.1,1.49.95,2.11,3.27,3.84,6.15-3.89.28-6.22.44-8.53.61-4.77,8.07-4.39,9.07,4.42,11.81,13.88,4.32,23.95-3.59,22.53-18.04-.39-3.9-2.12-7.66-3.28-11.47.17.04.34.06.53.09,1.66.25,3.49.25,4.73,1.11,15,10.29,29.92,20.72,44.74,31.27,1.63,1.15,3.48,3.27,3.6,5.05.79,13.18,7.55,22.37,18.08,29.66,30.07,20.8,59.96,41.83,90.21,62.96Z"/>
  <path class="cls-1" d="m719.21,487.52c-12.38,46.29-39.26,81.5-81.31,104.9-3.93,2.19-7.64,4.75-11.59,6.86-2.56,1.36-5.39,2.21-8.73,3.55-1.5-7.27-2.92-13.19-3.81-19.19-.17-1.14,1.49-3.05,2.78-3.83,6.28-3.77,12.65-7.39,19.12-10.83,3.04-1.62,3.46-3.52,2.02-6.45-3.51-7.14-6.64-14.48-10.38-21.47-2.4-4.49-2.26-7.66,1.93-11.03,11.04-8.85,19.08-20.08,24.71-33.02,3.51-8.04,7.4-15.98,10-24.33,2.51-8.09,3.58-16.63,5.55-26.25,5.17,2.76,10.3,4.88,14.75,7.98,11.04,7.69,21.96,15.6,32.43,24.02,2.04,1.63,3.25,6.37,2.53,9.07Z"/>
  <path class="cls-1" d="m755.12,661.82c-1.91,2.14-3.54,4.63-5.79,6.32-11.4,8.61-22.85,17.18-34.52,25.41-3.96,2.79-7.51,5.2-7.72,10.72-.06,1.73-1.85,4.01-3.46,4.96-36.44,21.39-75.43,35.94-117.59,39.59-22.27,1.92-44.86.24-67.3.12-1.34,0-2.69-.5-5.64-1.07,7.06-4.98,4.59-10.14,2.3-16.34,6.15.46,11.49,1.29,16.8,1.17,18.55-.4,37.1-1.12,55.65-1.76,4.84-.17,6.62-2.18,5.66-7.42-1.6-8.85-1.02-8.64,7.59-10.78,5.69-1.4,10.28-.78,15.67,1.73,16.62,7.74,34.77,1.06,43.05-15.44,2.29-4.57,5.52-6.78,10.16-8.73,19.14-8.05,36.54-19.11,52.62-32.24,4.43-3.6,8.71-7.4,12.99-11.18,2.52-2.23,4.66-2.54,7.43-.06,3.48,3.13,7.31,5.92,11.23,8.52,3.04,2.01,3.06,3.99.87,6.47Z"/>
  <path class="cls-1" d="m552.38,566.11c-3.61,3.26-4.87.19-6.71-1.85-.26-.28-.7-.38-1.38-.76-2.14,1.73-4.3,3.46-6.39,5.15-8.32-3.21-4.82-7.98-1.13-12.78-.51-.21-1.02-.43-1.54-.63-3.2,2.83-6.55,5.55-9.59,8.56-2.86,2.86-5.29,2.82-8.48.33-12.55-9.72-26.7-15.23-42.72-13.8-6.59.59-13.16,2.66-19.47,4.86-3.54,1.24-5.65,1.29-7.63-2.09-1.22-2.09-2.95-3.9-4.58-5.73q-8.82-9.96-20.12-2.41c-3.87,2.6-7.54,5.48-11.98,8.71-14.97-18.79-25.49-39-31.06-61.47-3.23-13.03-4.79-26.48-6.9-39.78-.68-4.23.81-6.02,5.86-5.69,8.52.55,17.14.03,25.71-.36,1.75-.08,3.59-1.39,5.13-2.49,4.4-3.14,10.89-2.98,13.97.97,2.82,3.61,3.96,7.83.63,11.79-3.49,4.14-9.95,4.52-14.44,1.22-2.46-1.82-19.15-3.13-21.17-1.37-.85.75-1.29,2.52-1.17,3.75,2.7,25.57,10.26,49.52,24.21,71.28,1.72,2.67,3.22,2.96,5.87.9,16.09-12.57,34.74-17.7,54.86-18.11,2.58-.06,6.49-.22,7.58,1.27,6.82,9.34,18.16,8.32,27.17,12.42,14.19,6.47,28.45,12.55,39.51,24.04,1.98,2.05,3.72,4.32,5.69,6.39,2.4,2.52,3.54,4.72.27,7.67Z"/>
  <path class="cls-1" d="m842.44,120.74c8.7,21.25-1.68,43.42-23.45,51.96-17.73,7.1-39.79-2.61-46.46-19.29-8.3-20.79-1.44-42.93,21.24-52.6,20.79-8.87,41.9,3.38,48.68,19.94Z"/>
  <path class="cls-1" d="m510.7,272.3c-1.75,6.85-1.25,12.1-7.4,15.31-6.48,3.38-10.9,9.05-12.78,16.42-2.01,7.86-4.16,15.7-6.43,24.19-9.78-2.83-19.08-5.53-29.55-8.55.87,7.14,1.12,13.48,2.52,19.53,1.17,5.1-.16,6.8-5.17,6.61-7.27-.27-14.55-.29-22.55-.43,2.93,10.44,5.61,19.96,8.43,29.97-12.62-.44-24.5-.85-38.11-1.33,3.41-8.3,6.09-16.98,10.35-24.8,15.57-28.56,37.78-51.06,64.9-68.8,4.29-2.82,8.51-4.22,14.3-2.52,4.13,1.22,9.39-1.14,14.08-2.21,2.01-.46,3.84-1.71,7.4-3.39Z"/>
  <path class="cls-1" d="m759.18,366.37c.15.54.3,1.07.45,1.61,1.43-.03,2.89-.27,4.29-.07,1.62.25,4.09.45,4.55,1.44.75,1.62,1,4.87.04,5.66-7.6,6.16-3.11,13.57-2.49,20.52.17,2,.91,3.98,1.53,5.91,1.47,4.61-.27,7.5-3.63,11.04-3.89,4.1-6.63,9.66-8.6,15.06-1.28,3.48-2.51,5.3-6.12,5.22-.21,0-.42.02-.62.04-11.49.81-11.53.82-13.6-10.53-4.46-24.53-12.41-47.85-24.23-69.79-2.2-4.09-4.98-7.98-8.07-11.46-2.82-3.16-2.93-5.62.15-8.31,1.52-1.35,3.13-2.62,4.73-3.87,2.98-2.33,5.17-1.86,7.74,1.17,10.3,12.2,17.49,26.13,23.11,40.91,3.98,10.45,7.43,21.11,11.24,32.07,4.37-1.81,5.32-4.81,4.15-9.34-5.47-21.15-13.2-41.22-26.59-58.78-1.57-2.06-2.39-4.69-3.57-7.08,8.59.07,16.07-.31,23.42.45,2.3.24,4.27,3.53,5.82,4.89-2.23,3.32-3.81,5.66-5.39,7.99,2.36,0,4.71,0,7.9,0,4.82,4.49,4.81,6.05-.44,10.46-.8.67-1.4,2.6-1,3.39.41.8,2.29,1.44,3.33,1.22,6.91-1.46,7.91-.79,8.79,6.54-2.29,1.21-4.6,2.42-6.91,3.63Z"/>
  <path class="cls-1" d="m874.48,757.53c-7.77,8.85-15.39,18.02-24.25,25.71-17.6,15.23-39.39,21.22-61.79,24.94-30.52,5.06-59.35-.46-86.44-15.23-21.17-11.55-36.8-28.87-50.02-48.64-1.43-2.14-2.38-4.59-3.52-6.83,9.44-6.36,10.68-5.77,15.82,2.88,9.93,16.7,24.11,29.16,40.85,38.82,18.12,10.44,37.14,18.89,58.45,17.7,14.34-.79,28.94-2.72,42.69-6.73,23.46-6.82,43.18-20.08,57.33-40.63,1.9-2.76,4.1-4.04,7.08-1.48,2.95,2.51,8.03,4.67,3.8,9.49Z"/>
  <path class="cls-1" d="m967.55,690.97c-12.88,22.95-28.23,43.97-46.48,62.92-5.68,5.89-5.52,5.74-11.51.8-6.11-5.04-12.55-9.7-19.77-15.23,4.52-5.65,8.94-11.67,13.96-17.12,1.25-1.35,4.56-1.31,6.84-1.08,20.62,2.2,34.01-15.86,30.78-34.56-.11-.6-.15-1.22-.31-1.81-1.52-5.64-1.84-13.66-.7-18.29.79-.74,1.58-1.48,2.38-2.22,1.33-1.99,2.68-3.99,4.59-6.86,5.48,3.53,10.98,6.58,15.94,10.36,12.42,9.48,11.97,9.41,4.29,23.1Z"/>
  <path class="cls-1" d="m270.65,591.16c-20.42,11.58-41.29,22.46-61.2,34.86-8.51,5.29-15.9,4.5-24.16,1.78-1.56-.53-2.93-1.68-5.39-3.14,9.85-5.63,18.59-10.65,27.35-15.63,14.38-8.18,28.77-16.32,43.12-24.52,1.41-.8,3.07-1.64,3.87-2.93.98-1.56,2.03-3.97,1.48-5.36-.57-1.4-3.18-2.91-4.75-2.77-4.03.36-8.15,1.13-11.92,2.56-12.02,4.56-23.9,9.52-35.84,14.29-2.2.87-4.49,1.51-6.75,2.26-.4-.5-.79-.99-1.21-1.49,3.04-7.84,4.45-16.35,14.73-19.59,16.17-5.1,32.07-11.06,48.03-16.81,3.45-1.24,5.08-.6,6.48,2.93,2.92,7.38,6.18,14.65,9.66,21.79,3.58,7.34,3.74,7.67-3.51,11.77Z"/>
  <path class="cls-1" d="m945.14,655.41c-.87,3.26-1.65,6.12-2.41,8.96-.8.74-1.59,1.48-2.38,2.22-1.6,2.12-3.02,4.38-4.81,6.32-2.62,2.85-2.58,5.4-.61,8.74,5.38,9.11,4.66,19.24-1.44,26.92-6.53,8.21-16.89,11.52-26.88,8.59-.56-.17-1.17-.18-1.81-.26-4.11,5.12-8.06,10.3-12.31,15.23-6.18,7.15-6.67,7.06-13.17-.79,3.44-4.62,6.92-9.32,10.4-14l-.1.22c4.53-3.76,6.5-6.96,2.07-13.1-5.07-7.02-3-15.25,1.2-22.61,5.17-9.06,13.75-12.72,23.3-11.48,6.45.84,8.72-1.96,11.25-6.31,2.67-4.59,5.49-9.09,8.64-14.28,3.12,1.94,6.12,3.79,9.06,5.63Z"/>
  <path class="cls-1" d="m151.91,247.83c.17,3.11,1.58,6.35,3.16,9.12,2.52,4.4,1.14,6.89-3.36,7.19-11.96.8-23.96,1.41-35.96,1.56-10.14.14-19.52-3.26-29.35-7.37,2.96-3.91,5.71-7.12,7.99-10.63,8.1-12.49,7.77-25.28,1.44-38.46-1.08-2.25-1.09-6.17.19-8.18,4.39-6.87,9.71-13.14,14.4-19.82,2.43-3.48,4.18-3.04,6.51-.03,4.61,5.94,4.79,10.28-.27,15.85-3.73,4.09-5.39,7.8-2.81,13.54,4.95,10.97,4.14,22.3-.73,33.38.29.68.57,1.35.84,2.03,10.09-1.06,20.22-1.8,30.24-3.29,4.71-.7,7.39-.68,7.72,5.11Z"/>
  <path class="cls-1" d="m577.22,283.47s0-.02.01-.03h.01s.04,0,.06.01c.03,0,.05,0,.08,0-.03.01-.09,0-.13.01-.01,0-.03,0-.04,0Z"/>
  <path class="cls-1" d="m625.4,282.98c-11.17,8.08-21.12,15.09-30.83,22.39-3.53,2.66-6.25,7.98-9.82,8.44-3.13.41-6.78-4.49-10.43-6.67-22.9-13.59-47.63-15.7-75.43-11.24,1.47-1.61,2.11-2.75,3.09-3.29,5.33-2.89,8.34-7.48,10.51-12.97.55-1.4,2.54-2.81,4.1-3.15,18.06-3.91,36.29-6.22,54.76-3.73,2.57.34,4.41.68,5.65,1.19.28.11.52.23.74.36.32.2.58.42.78.68,1.11,1.41.42,3.82-1.27,8.45-.02,0-.03-.01-.04,0-3.09-.44-6.19-.89-10.81-1.54,5.03,7.98,9.15,14.68,13.5,21.21.53.78,2.89,1.4,3.52.92,6.71-5.12,13.24-10.46,20.7-16.46-3.24-1.18-5.27-1.58-6.9-2.61-1.1-.7-2.46-2.44-2.26-3.42.3-1.47,2.06-3.93,2.86-3.79,9.07,1.47,18.06,3.35,27.59,5.23Z"/>
  <path class="cls-1" d="m697.29,316.92c-.36.19-.7.43-1.03.68-10.6,7.88-8.55,6.03-15.78-1.52-14.96-15.64-32.27-28.31-52.17-36.98-8.9-3.87-18.47-6.15-27.63-9.47-1.31-.48-2.96-2.89-2.76-4.13.7-4.35,2.14-8.58,3.44-13.32,18.52,4.47,35.59,10.19,51.35,19.7,16.91,10.2,32.43,21.93,45.38,36.97,2.98,3.48,3.46,5.77-.81,8.07Z"/>
  <path class="cls-1" d="m249.38,500.44c.73,8.48,2.43,16.93,4.42,25.24,1.01,4.19.02,5.99-3.85,7.25-16.71,5.43-33.37,11.06-50.07,16.53-6.84,2.25-16.51-1.5-21.41-8.75,6.71-2.19,13.16-4.34,19.65-6.4,10.12-3.23,20.27-6.33,30.35-9.64,1.89-.63,4.08-1.53,5.18-3.02,1.3-1.77,2.45-4.51,1.99-6.41-.36-1.51-3.28-3.41-5.02-3.38-5.47.09-10.95.87-16.4,1.66-5.36.76-10.67,1.85-16,2.78-.27-.68-.56-1.35-.83-2.04,4.47-7.01,8.21-14.3,18.64-15,8.71-.57,17.32-2.78,25.95-4.4,4.68-.88,6.9.01,7.39,5.59Z"/>
  <path class="cls-1" d="m510.34,348.6c-7.45,3.41-8.03,5.17-3.51,12.21-24.48,1.83-38.09,16.5-45.31,40.26l-16.87-42.03c10.69,1.18,19.59,2.15,29.35,3.21-1.52-8.21-2.84-15.35-4.46-24.08,4.66,1.78,8.54,3.08,12.26,4.76,2.9,1.3,4.76,1.32,7.43-1.24,3.93-3.76,8.69-6.78,13.43-9.51,5.13-2.95,10.41-1,12.9,4.05,2.52,5.12.57,9.73-5.23,12.37Z"/>
  <path class="cls-1" d="m400.78,279.53c1.11,4.82,1.92,9.7,2.87,14.56-.66.27-1.32.54-1.97.8-15.42-10.62-30.85-21.26-46.26-31.87-8.08-5.56-16.05-11.3-24.3-16.59-4.5-2.88-6.25-5.45-2.01-9.99,6.81-7.31,13.34-14.88,20.04-22.3,3.55-3.94,6.36-3.49,8.79,1.38,2.06,4.12,6.82,8.25,6.38,11.9-.44,3.63-5.87,6.64-9.08,9.96-1.25,1.28-2.39,2.65-3.98,4.42,4.74,2.6,7.33,5.49,7.24,11.11-.06,3.75,4.02,5.6,8.38,5.11,8.63-.95,10.94.81,12.44,8.86.92,4.97,6.57,8.38,11.63,7.02,4.98-1.34,8.7.67,9.86,5.63Z"/>
  <path class="cls-1" d="m288.6,237.28c5.32,14.68-3.24,25.38-15.3,30.14-9.1,3.58-23.34-4.96-27.12-15.79-3.55-10.17,2.83-23.6,12.93-27.22,12.81-4.59,25.16.93,29.49,12.86Z"/>
  <path class="cls-1" d="m838.99,367.12c-2.86-11.24-3.01-11.19-13.92-8.94-.33.06-.75-.25-.85-.28-2.71-5.93-5.27-11.67-7.98-17.34-2.14-4.51-5.33-2.16-8.3-1.08-3.41,1.26-3.45,3.4-2.05,6.31,1.37,2.83,2.4,5.85,3.62,8.88l-13.15,5.27c2.38,10.77,4.43,20.94,7,30.98.41,1.61,3.27,3.97,4.71,3.77,9.92-1.31,19.73-3.23,29.62-4.87,3.84-.65,5.09-2.71,4.31-6.47-1.1-5.4-1.67-10.92-3.02-16.23Zm-12.75,9.51c.03.34.04.68.03,1.01,0,.15-.02.32-.04.47,0,.15-.03.3-.06.46-.02.14-.05.29-.1.44-.03.15-.08.29-.12.43-.02.12-.07.23-.12.35-.04.1-.08.2-.13.29-.1.23-.22.46-.38.68-.18.29-.42.56-.68.81-.13.13-.28.25-.44.36-.14.11-.3.21-.46.3-.16.1-.33.19-.52.26-.37.16-.77.29-1.21.39-.24.06-.49.08-.74.09-.03,0-.07.01-.12,0-.12,0-.24,0-.36-.01-.16,0-.33-.03-.5-.05-.17-.02-.34-.06-.52-.1-.18-.04-.36-.09-.54-.15-.21-.07-.41-.13-.63-.21-.17-.05-.35-.12-.53-.19-.75-.28-1.55-.62-2.43-.99-.29-.13-.59-.25-.9-.38-.98-.41-2.03-.82-3.19-1.21,1.15-2.22,1.9-4.29,2.63-5.96.74-1.67,1.47-2.93,2.56-3.57,3.52-2.03,7.39-.39,8.87,3.77.32.9.53,1.83.6,2.72Z"/>
  <path class="cls-1" d="m250.99,179.69s.03-.09.05-.14h.01s.03-.03.05-.05l-.08.15v.03s-.03,0-.03,0Z"/>
  <path class="cls-1" d="m254.73,167.46c-.42,2.61-1.27,5.14-2.16,7.67-.52,1.47-1.06,2.94-1.52,4.42-10.8,9.06-18.84,9.82-29.3,2.78-8.07-5.43-11.6-18.06-7.49-26.78,4.36-9.26,15.92-14.19,25.97-11.07,9.2,2.85,16.06,13.33,14.5,22.97Z"/>
  <path class="cls-1" d="m196.44,236.58c4.34,11.28-1.05,22.92-12.63,27.25-11.02,4.12-22.05-2.08-26.84-14.59-4.82-12.64,3.92-21.64,12.4-24.88,12.41-4.74,22.32-.09,27.06,12.22Z"/>
  <path class="cls-1" d="m822.06,325.1c-2.92-6.94-6.48-13.61-9.88-20.33-1.44-2.83-3.57-3.62-6.54-2-8.25,4.48-16.53,8.89-24.84,13.23-3.5,1.84-3.84,4.17-2.07,7.53,3.44,6.48,6.64,13.1,9.92,19.67-.07.02-.12.06-.19.08,1.3,3.23,2.8,6.39,3.83,9.7,1.24,3.93,3.33,4.09,6.96,2.96,5.29-1.64,7.28-4.35,4.4-9.3-3.11-5.32-1.24-7.97,4.05-9.94,4.17-1.54,8.26-3.54,11.95-6,1.47-.98,2.98-4.25,2.4-5.61Zm-18.78,2.81c-.4.25-.82.44-1.24.59-.64.23-1.31.36-1.96.38-.12,0-.23.01-.35,0-.19,0-.36-.01-.54-.04-.16-.02-.31-.04-.46-.07-.15-.03-.28-.07-.43-.11-.32-.09-.64-.22-.94-.38-.15-.07-.3-.16-.44-.26-.28-.18-.55-.4-.79-.64-.13-.11-.24-.24-.34-.36-.08-.1-.17-.19-.24-.3-.08-.1-.15-.21-.22-.33-.07-.08-.11-.16-.17-.25-.09-.15-.18-.3-.26-.46-.09-.17-.17-.35-.26-.54-.09-.23-.18-.45-.26-.68-.15-.43-.28-.87-.38-1.31-.06-.25-.11-.51-.15-.76-.03-.19-.05-.38-.07-.58-.02-.19-.03-.39-.02-.58,0-.17,0-.34.01-.5,0-.04,0-.08.01-.12.01-.13.03-.25.05-.39,0-.04,0-.09.02-.14,0-.04.02-.1.03-.16.01-.12.05-.24.08-.35.05-.18.11-.35.18-.53.03-.09.07-.18.11-.28.03-.07.07-.15.12-.22.09-.17.19-.32.3-.48.03-.05.06-.1.11-.15.03-.06.08-.11.12-.15.27-.37.61-.69,1-.99.15-.11.29-.22.46-.31.16-.11.33-.2.51-.3.18-.1.37-.2.57-.28.35-.15.7-.28,1.03-.37.73-.22,1.43-.33,2.11-.3.05,0,.1,0,.15,0,.13,0,.26.01.4.04.08,0,.14.01.21.02.11.02.23.04.35.08.09.02.18.04.27.07.01,0,.02,0,.03,0,.09.02.18.05.26.08.01,0,.02,0,.04.02.05.01.08.03.13.05.11.04.23.08.35.14.08.03.16.07.25.12.15.07.32.16.47.25.17.11.34.22.51.36.17.12.34.26.52.41.17.15.34.31.51.48.14.13.28.27.41.43.07.08.14.16.21.24.13.14.26.3.39.46.17.2.33.41.49.63.01,0,.01.02.03.03.15.23.32.46.48.71.12.18.24.36.34.55.11.17.22.35.32.53.11.18.22.36.32.55-1.22,1.74-2.41,5.07-4.76,6.45Z"/>
  <path class="cls-1" d="m243.28,439.86c.64,9.15,1.06,18.32,1.11,27.48,0,1.46-2.09,4-3.48,4.2-10.51,1.45-21.08,2.49-31.63,3.57-4.54.46-14.53-7.18-16.45-12.7,8.35-.66,16.62-1.27,24.87-2.01,2.63-.25,5.44-.38,7.77-1.46,1.94-.91,4.38-3.04,4.51-4.79.12-1.42-2.54-3.06-4.1-4.61-.06-.04-.1-.09-.15-.14-.01,0-.02,0-.03,0-2.97-.74-5.96-1.49-9.09-2.26,5.84-10.41,13.66-14.26,23.62-11.56,1.35.36,2.92,2.73,3.04,4.27Z"/>
  <path class="cls-1" d="m294.72,321.21c-4.44,9.09-7.43,18.86-11.4,29.26-1.17-.02-3,.02-4.79-.1-14.49-.99-16.19-2.98-11.04-15.94,4.19-10.56,9.65-20.61,14.48-30.92,1.62-3.47,3.79-3.92,6.74-1.68.65.51,1.35.93,2.01,1.41,9.92,7.19,9.39,6.94,4.01,17.98Z"/>
  <path class="cls-1" d="m560.84,331.61c-1.69,1.16-3.02,2.59-4.63,3.08-14.65,4.45-26,13.12-34.45,25.88-1.23,1.83-4.88,4.33-5.54,3.87-3.31-2.31-6.31-5.3-8.62-8.61-.41-.6,2.53-4.44,4.59-5.72,9.24-5.7,10.2-11.73,2.45-20.54,11.24-7.41,34.67-7.04,46.2,2.04Z"/>
  <path class="cls-1" d="m702.88,284.34c-2.26,5.79-.8,13.03-1.02,20.34-9.03-7.85-18.12-15.77-27.22-23.69.18-.56.37-1.13.55-1.69,5.28,1.38,10.54,2.75,16.37,4.27.51-7.11-5.72-8.67-9.91-12.45-3.58,5.22-6.91,3.43-10.6.46-4.98-4.03-10.26-7.68-16.8-12.52,7.31-.74,12.74-5.95,18.79,0,2.05,2,4.15,2.12,6.06-.69,1.99-2.93,4.42-3.03,7.17-.56,3.17,2.86,6.64,5.4,9.93,8.11,5.82,4.8,10.22,9.33,6.68,18.42Z"/>
  <path class="cls-1" d="m238.69,104.38c2.62,9.62,5.61,19.16,7.67,28.9,1.36,6.5-.68,7.54-7.22,6.32-4.47-.84-9.16-.46-14.37-.65-.01-.06-.19-.44-.2-.82-.53-17.74-1.4-18.76-18.6-22.1-1.26-.24-2.45-.87-5.16-1.86,2.74-1.48,4.15-2.46,5.7-3.05,8.59-3.25,17.27-6.25,25.78-9.67,3.55-1.42,5.45-.57,6.39,2.93Z"/>
  <path class="cls-1" d="m268.48,494.47c2.24,8.71,4.36,17.46,6.01,26.29.31,1.7-1.17,4.86-2.66,5.54-4.02,1.82-8.48,2.68-14.15,4.33-2.44-11.78-4.86-22.91-6.89-34.1-.22-1.21,1.65-3.77,2.96-4.11,3.72-.95,7.65-1.38,11.5-1.36,1.13.01,2.88,2.03,3.24,3.41Z"/>
  <path class="cls-1" d="m264.34,438.73c.39,9.62.94,18.37.9,27.12-.02,1.5-2.29,3.9-3.93,4.35-13.22,3.57-14.55,2.53-14.92-11.22-.16-6.51-.21-13.05.21-19.53.09-1.43,2.31-3.68,3.73-3.84,3.39-.37,6.93.04,10.32.64,1.46.26,2.7,1.79,3.7,2.49Z"/>
  <path class="cls-1" d="m70.75,201.92c-9.28,12.9-18.07,25.1-26.88,37.33-6.84-5.29-7.66-13.75-2.76-23.95,5.36-11.14,16.52-16.61,29.63-13.37Z"/>
  <path class="cls-1" d="m87.34,241.25c-4.94,8.38-12.71,13.04-22.97,12.25-4.07-.3-6.08-2.41-3.39-5.95,8.57-11.29,17.48-22.32,26.95-34.33,4.76,10.05,4.47,19.44-.59,28.02Z"/>
  <path class="cls-1" d="m849.52,467.2c.08.02.15.03.22.05,0,.01,0,.03,0,.04h-.01s-.21-.08-.21-.08Z"/>
  <path class="cls-1" d="m871.89,459.86c-.04,13.2-.12,13.13-12.33,9.45-3.19-.97-6.53-1.4-9.83-2.06.14-5.03-.1-10.14.64-15.08.22-1.46,3.45-3.8,4.91-3.52,4.94.9,9.93,2.34,14.43,4.55,1.49.72,2.19,4.36,2.17,6.67Z"/>
  <path class="cls-1" d="m886.69,750.04c-8.83,4.63-13.44-2.56-18.32-6.52-1.98-1.61-.87-7.41-.52-11.25.09-.87,3.54-2.53,4.27-2.06,6.63,4.32,13.94,8.17,19.15,13.89,4.08,4.46-3.25,4.03-4.59,5.95Z"/>
  <path class="cls-1" d="m952.33,639.99c1.47,5.27,2.47,10.67,3.65,16.02-.53.6-1.05,1.2-1.59,1.82-8.06-5.28-16.12-10.54-25.73-16.82,7.94-1.85,14.09-3.47,20.35-4.55.92-.16,2.93,2.09,3.33,3.54Z"/>
  <path class="cls-1" d="m511.35,734.65c1.87,4.44-.46,9.54-5.29,11.55-4.13,1.72-9.08-1.07-11.05-6.18-1.47-3.86.99-8.74,5.26-10.45,4.17-1.66,9.2.65,11.08,5.08Z"/>
  <path class="cls-1" d="m378.33,677.33c1.54,3.74-.94,8.86-5.07,10.48-4.16,1.63-9.29-.71-11.08-5.07-1.57-3.82.42-8.49,4.34-10.19,4.39-1.89,9.99.36,11.81,4.78Z"/>
  <path class="cls-1" d="m641.67,713.54c-2.95,1.03-4.76.63-6.48-2.32-3.09-5.35-4.47-10.42,1-17.44,3.42,3.62,6.84,6.39,9.14,9.89,3.51,5.29,2.24,7.8-3.66,9.87Z"/>
  <path class="cls-1" d="m557.41,163.06c1.66,4.17.48,7.99-3.66,9.74-4.13,1.74-7.47-.17-9.1-3.26-2-5.66-.31-9.05,4.09-10.84,4.3-1.76,7.15.54,8.67,4.36Z"/>
  <path class="cls-1" d="m393.85,264.96c.39,1.99-1.33,5.55-3.14,6.58-3.48,1.99-7.35.38-8.36-3.44-.62-2.36,1.24-5.38,1.67-6.98,6.4-2.2,9.12.3,9.83,3.84Z"/>
  <path class="cls-1" d="m371.32,248.41c.7,1.55-2.1,6.68-3.46,6.74-2.64.09-6.42-1.62-7.74-3.79-.96-1.6,1.24-5.12,2.63-9.75,3.97,2.95,7.47,4.33,8.58,6.8Z"/>
  <path class="cls-1" d="m227.85,295.98c-.13.21-.24.42-.36.61-1.75,3.06-2.54,5.65-3.86,5.96-1.78.41-4.06-1.3-6.12-2.1.91-2.18,1.32-4.94,2.92-6.31.81-.69,3.35.63,6.63,1.61.26.08.52.15.79.22Z"/>
  <path class="cls-1" d="m234.41,515.36c-1.74,2.56-2.4,4.63-3.62,5.03-1.26.43-3.42-.41-4.46-1.44-.49-.5.37-3.63,1.18-3.92,1.6-.54,3.59.08,6.9.33Z"/>
  <path class="cls-1" d="m221.22,454.94c1.53-1.77,3.06-3.55,4.58-5.31,1.09,2.58,3.15,5.42-.88,7.24-.78.35-2.44-1.23-3.7-1.93Z"/>
  <path class="cls-1" d="m225.88,449.54s-.05.06-.08.1l-.11-.29.27.1s-.04.06-.07.08Z"/>
  <path class="cls-1" d="m253.25,577.37c.09,1.37-1.23,3.3-2.5,4.07-.72.42-3.51-.8-3.67-1.64-.28-1.4.77-3.06,1.56-5.55,2.17,1.38,4.57,2.18,4.61,3.11Z"/>
  <path class="cls-2" d="m751.07,631.19c-7.17-4.99-14.39-9.93-21.54-14.95-.76-.53-1.49-1.07-2.23-1.61.74.54,1.47,1.08,2.22,1.6,7.15,5.02,14.37,9.97,21.54,14.97Z"/>
  <path class="cls-2" d="m854.2,604.9c6.24,4.28,12.48,8.54,18.78,12.73-6.3-4.18-12.54-8.45-18.78-12.73Z"/>
  <path class="cls-2" d="m871.41,648.85c1.31.87,2.62,1.74,3.95,2.62h0c-1.32-.88-2.64-1.74-3.95-2.62Z"/>
  <path class="cls-2" d="m882.47,623.84c.34.22.65.43.94.65-.29-.22-.61-.43-.94-.64-3.17-2.04-6.34-4.11-9.49-6.21,3.15,2.09,6.3,4.16,9.49,6.2Z"/>
  <path class="cls-2" d="m885.59,626.5c.24.29.45.59.61.89-.18-.3-.38-.59-.61-.89Z"/>
  <path class="cls-2" d="m709.2,575.71c.28-.08.57-.14.85-.21-.27.07-.56.14-.84.21h-.01Z"/>
  <path class="cls-2" d="m733.09,576.31c.8.51,1.58,1.03,2.36,1.57-.78-.52-1.56-1.05-2.36-1.56-1.51-.97-4.45-1.1-6.04-.29-.45.23-.91.45-1.37.65.46-.21.91-.43,1.38-.67,1.59-.81,4.52-.68,6.03.29Z"/>
  <path class="cls-2" d="m732.22,553.11c-.03,1.62-.08,3.21-.18,4.78.1-1.56.14-3.17.18-4.78Z"/>
  <path class="cls-2" d="m732.53,544.91h.01c-.04.49-.07.98-.11,1.46.02-.48.06-.98.09-1.46Z"/>
  <path class="cls-2" d="m737.29,550.67c.56,1.44.8,2.97.83,4.52-.04-1.55-.28-3.07-.83-4.52Z"/>
  <path class="cls-2" d="m751.62,589.34c2.78,1.9,5.57,3.79,8.36,5.7-2.78-1.9-5.57-3.79-8.35-5.69-.78-.54-1.56-1.07-2.33-1.62.77.54,1.55,1.07,2.32,1.61Z"/>
  <path class="cls-2" d="m711.19,550.11h.01c-.05.18-.1.36-.16.54.05-.18.1-.36.15-.54Z"/>
  <path class="cls-2" d="m773.98,499.43c.21-.42.37-.85.49-1.28-.12.43-.28.87-.49,1.28Z"/>
  <path class="cls-2" d="m577.1,132.47c.09-.31.16-.6.18-.89-.03.29-.1.58-.18.89Zm-4.99-16.83h0c.19-.07.38-.14.57-.21-.19.07-.37.13-.57.21Z"/>
  <path class="cls-2" d="m903.99,471.62c.19-.3.35-.62.45-.97-.11.34-.27.67-.45.97Zm-9.89-1.95h.01c.12-.18.24-.38.35-.57-.12.19-.24.38-.36.57Z"/>
  <path class="cls-2" d="m881.67,347.97c.41.09.84.12,1.29.11-.45.03-.88,0-1.29-.11Z"/>
  <path class="cls-2" d="m884.45,347.84c-.52.14-1.02.22-1.49.24.48-.02.96-.1,1.49-.24Z"/>
  <path class="cls-2" d="m882.81,334.46c-.4.02-.8.07-1.18.18.38-.11.78-.17,1.18-.18Z"/>
  <path class="cls-2" d="m834.12,250.83c.12.3.25.59.39.89-.14-.29-.27-.59-.4-.9-.07-.17-.14-.34-.19-.52.07.17.13.35.2.52Z"/>
  <path class="cls-2" d="m834.3,244.55c-.36.58-.62,1.24-.74,1.94.12-.7.37-1.36.74-1.94Z"/>
  <path class="cls-2" d="m851.72,280.38c.12.31.24.59.38.87-.15-.27-.28-.56-.39-.87-.58-1.52-.71-2.98-.47-4.27-.24,1.29-.09,2.75.49,4.27Z"/>
  <path class="cls-2" d="m852.56,282.01c.21.33.45.62.7.87-.26-.26-.5-.55-.7-.87Z"/>
  <path class="cls-2" d="m854.89,284.04c.4.17.82.29,1.25.35-.43-.05-.85-.18-1.25-.35Z"/>
  <path class="cls-2" d="m611.78,110.05c.87-1.04,1.73-2.07,2.6-3.12h0c-.87,1.05-1.73,2.08-2.6,3.12Z"/>
  <path class="cls-2" d="m620.6,112.26c-.69.89-1.4,1.78-2.09,2.67h-.01c.7-.9,1.41-1.79,2.1-2.67Z"/>
  <path class="cls-2" d="m494.7,766.41c.18.08.35.16.54.24-.18-.07-.36-.15-.54-.23-.54-.27-1.07-.5-1.58-.73.51.22,1.04.46,1.58.72Z"/>
  <path class="cls-2" d="m327.34,722.6h.01c-.49.66-.49,2.14-.19,3.48-.31-1.34-.31-2.82.18-3.48Z"/>
  <path class="cls-2" d="m441.84,600.11c-1.22,2.64-2.01,4.35-3.16,6.83-2.28-2.15-4.06-3.84-7.13-6.74,4.12-.04,6.75-.06,10.28-.09Z"/>
  <path class="cls-2" d="m299.43,496.69c.06.06.15.12.25.22-.11-.1-.19-.17-.25-.22Z"/>
  <path class="cls-2" d="m300.39,497.55c1.18-.27,2.36-.53,3.55-.79-1.19.27-2.37.53-3.55.8h0Z"/>
  <path class="cls-2" d="m333.65,491.36c.22.17.41.36.59.6-.18-.23-.38-.42-.59-.6Z"/>
  <path class="cls-2" d="m334.24,491.95c.19.22.35.49.49.78-.15-.28-.31-.55-.49-.78Z"/>
  <path class="cls-2" d="m359.18,496.41c0-.07,0-.13-.02-.19-.62-3.15-1.36-6.26-2.17-9.41.81,3.15,1.55,6.26,2.18,9.41,0,.06.02.12,0,.19Z"/>
  <path class="cls-2" d="m294.87,458.99h.01c.01.21.02.42.03.63-.02-.2-.03-.41-.04-.63Z"/>
  <path class="cls-2" d="m352.29,447.63c-.02-1.4,0-2.81.02-4.29-.01,1.48-.03,2.89-.02,4.29Z"/>
  <path class="cls-2" d="m352.36,439.85c0,.31,0,.61-.01.91,0-.29,0-.6,0-.9h.01Z"/>
  <path class="cls-2" d="m359.57,517.31c.09-.04.18-.08.28-.11-.09.04-.19.07-.28.12-.49.21-.98.41-1.49.6.5-.2,1-.39,1.49-.61Z"/>
  <path class="cls-2" d="m369.44,524.7c.17.38.33.76.49,1.13h-.01c-.16-.38-.31-.76-.48-1.13Z"/>
  <path class="cls-2" d="m370.02,525.8s.04-.03.06-.03h0s-.06.03-.06.03Z"/>
  <path class="cls-2" d="m373.15,531.91c-.22-.58-.49-1.18-.84-1.8.36.63.63,1.23.84,1.8Z"/>
  <path class="cls-2" d="m373.59,534.2c0-.53-.08-1.11-.25-1.71.18.6.26,1.18.25,1.71Z"/>
  <path class="cls-2" d="m197.79,653.73c-.01-.58.09-1.15.23-1.72-.13.58-.23,1.15-.22,1.72h-.01Z"/>
  <path class="cls-2" d="m215.51,426.4c.71.79,1.38,1.53,2.04,2.28-.68-.75-1.35-1.49-2.04-2.28Z"/>
  <path class="cls-2" d="m222.57,423.32c-.02-.37-.12-.77-.29-1.2.19.44.28.83.29,1.2Z"/>
  <path class="cls-2" d="m180.4,568.92c1.04.48,2.01.94,3.01,1.39-.99-.45-1.98-.91-3.02-1.38h0s.01-.01.01-.01Z"/>
  <path class="cls-2" d="m188.81,572.81c.03-.1.07-.2.11-.3-.03.1-.06.19-.1.3h-.01Z"/>
  <path class="cls-2" d="m195.6,493.4s.05-.02.07-.02c-.02.01-.05.03-.07.03-.14.04-.27.08-.41.11.14-.04.27-.07.41-.12Z"/>
  <path class="cls-2" d="m194.46,483.16c.97,1.16,2,2.14,2.85,3.05-.85-.92-1.89-1.89-2.86-3.04h0s.01-.01.01-.01Z"/>
  <path class="cls-2" d="m738.54,282.99c.45-.1.91-.17,1.37-.21-.46.03-.92.1-1.37.21Z"/>
  <path class="cls-2" d="m783.19,401.53c-.02-.3-.05-.6-.08-.89.04.29.07.59.09.89h-.01Z"/>
  <path class="cls-2" d="m784.32,382.5c-.4.43-.76.87-1.08,1.3.32-.43.66-.86,1.08-1.3Z"/>
  <path class="cls-2" d="m35.39,263.75h.01c.19.18.38.34.57.51-.2-.17-.39-.34-.58-.51Z"/>
  <path class="cls-2" d="m38.9,259.91c-1.17,1.27-2.34,2.54-3.5,3.83,1.18-1.29,2.33-2.56,3.5-3.84h0Z"/>
  <path class="cls-2" d="m811.56,379.68c1.14-2.22,1.9-4.29,2.64-5.97-.74,1.67-1.48,3.74-2.63,5.96h-.01Z"/>
  <path class="cls-2" d="m822.02,382.88c.44-.1.85-.23,1.21-.39-.37.16-.77.3-1.21.4-.7.15-1.43.1-2.23-.09.8.18,1.54.23,2.23.07Z"/>
  <path class="cls-2" d="m824.64,381.57c.26-.25.49-.52.68-.81-.18.29-.42.56-.68.81Z"/>
  <path class="cls-2" d="m793.8,320.61c.02-.35.09-.7.18-1.04-.09.33-.15.69-.18,1.04Z"/>
  <path class="cls-1" d="m805.87,440.58c.02.29.04.57.04.85,0,.07,0,.14,0,.21,0,.26,0,.52-.01.79,0,.07,0,.13-.02.19-.02.25-.03.51-.07.76-.03.24-.07.49-.12.74,0,.01,0,.03,0,.04-.03.11-.04.22-.07.33-.11.52-.24,1.02-.42,1.49-.39,1.09-.93,2.1-1.62,2.96-.14.2-.29.37-.45.53-.06.08-.12.14-.19.19-.03.04-.06.06-.08.09-.12.13-.26.26-.4.37-.18.17-.38.32-.57.46-.22.15-.43.29-.66.43-.08.06-.17.1-.26.14-.18.1-.37.2-.57.28-.25.1-.49.21-.74.29-.43.16-.87.3-1.3.38-.09.03-.19.05-.28.06-.06.02-.12.03-.17.04-.47.09-.92.15-1.38.19,0-.01-.01,0-.02,0-.59.04-1.17.03-1.76-.04-.29-.03-.58-.06-.87-.12-.28-.06-.56-.12-.85-.2-.56-.15-1.1-.37-1.63-.61-.27-.12-.53-.26-.78-.4-.19-.11-.39-.23-.58-.37-.06-.03-.12-.07-.17-.12-.28-.19-.54-.39-.79-.6-.21-.17-.41-.35-.61-.55-.22-.21-.42-.41-.62-.65-.02-.02-.04-.04-.05-.06-.2-.22-.39-.46-.58-.71-.19-.25-.38-.52-.56-.8-.18-.28-.35-.56-.51-.86-.17-.3-.32-.6-.47-.92-.08-.17-.16-.36-.23-.54h0c-.13-.37-.24-.75-.33-1.13-.04-.2-.08-.4-.11-.59s-.05-.38-.07-.58c-.02-.2-.03-.41-.03-.61,0-.19,0-.39,0-.58.01-.22.03-.43.05-.65.02-.18.05-.34.07-.52.06-.43.16-.87.29-1.3.06-.2.12-.4.19-.6.1-.28.21-.55.33-.82.08-.19.18-.39.28-.58.05-.11.11-.21.17-.32.16-.3.34-.58.53-.88.08-.12.17-.24.26-.37.09-.13.18-.26.28-.37.22-.27.45-.54.7-.79.2-.21.4-.42.62-.62.18-.17.37-.33.57-.49.06-.05.13-.1.19-.14.2-.16.42-.31.64-.46.25-.17.5-.31.76-.46.28-.15.58-.29.87-.43.15-.07.3-.13.45-.19.83-.32,1.71-.51,2.6-.58.24-.01.47-.03.71-.03.23,0,.46,0,.68.02.24,0,.48.02.73.06.04,0,.08,0,.11.02.24.03.49.07.73.12.19.04.39.08.6.13.23.06.45.13.68.2.42.13.84.29,1.24.48.13.06.27.12.4.19.11.05.2.1.31.16.12.06.23.13.35.2.14.09.29.17.42.26.04.02.06.05.09.06.24.17.47.33.69.52.16.13.31.26.45.4.15.13.28.26.4.41.1.09.19.19.27.3.09.11.17.21.24.32.07.09.14.18.19.26.1.13.18.25.24.38.06.08.1.15.13.23.03.03.04.06.05.09.1.16.18.33.25.5.64,1.48,1,3.02,1.13,4.51Z"/>
  <path class="cls-1" d="m577.24,130.59c.04.2.06.4.06.61,0,.12,0,.25-.02.38-.02.29-.09.58-.18.89h0c-.05.19-.11.36-.18.55-.06.18-.13.36-.21.54-.24.62-.54,1.25-.8,1.87-.08.19-.15.37-.22.56-.07.18-.13.36-.19.54-.47-.16-.99-.3-1.53-.42-.26-.07-.53-.13-.81-.18-.27-.06-.55-.12-.83-.18-.45-.09-.89-.19-1.33-.29-1.36-.3-2.62-.66-3.45-1.23-.1-.07-.2-.14-.28-.22-.01,0-.03-.03-.04-.04-.1-.08-.19-.18-.27-.27,0-.01-.01,0-.01-.02-.08-.11-.15-.22-.21-.34-4.44-9.07-7.91-18.62-11.42-28.12-.02-.04-.04-.09-.03-.15-.04-.12-.06-.26-.06-.4-.01-.09-.02-.17,0-.27,0-.07,0-.14.01-.22.02-.19.04-.38.08-.57.03-.19.07-.39.12-.58.03-.09.06-.19.09-.29.13-.49.3-.95.48-1.33.03-.08.07-.15.11-.21.07-.14.13-.26.21-.36.03-.06.08-.12.12-.16.04-.05.08-.08.11-.1.05-.03.09-.05.12-.05.48-.02.97-.06,1.46-.11.35-.03.7-.06,1.04-.09.34-.04.7-.07,1.04-.09.2-.02.4-.03.61-.03.25-.02.49-.02.73-.02.04,0,.09,0,.13,0,.01,0,.02,0,.03,0,0-.01.01,0,.02,0,.11,0,.22.01.33.02.15,0,.32.02.47.04.31.03.62.08.93.15.14.03.27.07.41.11.08.02.16.04.24.07.18.07.37.14.54.23.05.01.08.03.12.06.13.07.27.14.41.23.13.09.27.19.39.29.2.16.39.32.57.52.45.48.86,1.09,1.21,1.86.28.61.55,1.22.8,1.84.16.37.32.72.46,1.1.21.49.41.98.61,1.48.21.5.4,1.01.6,1.5.39.99.78,1.98,1.16,2.97.39,1,.77,2,1.17,2.98.2-.07.38-.13.57-.21,1.58,5.03,3.45,10.01,4.56,15.15Z"/>
  <path class="cls-1" d="m560.96,135.43c-.06.1-.12.15-.16.14-.36-.03-.76-.06-1.17-.08-.2-.01-.41-.03-.63-.04-.42-.02-.85-.06-1.29-.09-.43-.03-.86-.07-1.28-.11-.72-.08-1.41-.19-2.02-.34-.13-.04-.24-.06-.35-.1-.23-.07-.44-.15-.63-.23-.13-.06-.25-.13-.37-.19-.29-.18-.51-.4-.63-.67-.45-.94-.89-1.89-1.3-2.84-.47-1.01-.92-2.03-1.37-3.05-.49-1.12-.97-2.25-1.45-3.38-.29-.72-.59-1.43-.88-2.14-.27-.64-.53-1.29-.79-1.94-1.32-3.23-2.6-6.5-3.89-9.8-1.03-2.64-2.09-5.3-3.16-7.98.94-.41,1.8-.75,2.6-1.03.39-.13.78-.24,1.15-.34.38-.09.73-.16,1.07-.22.23-.04.46-.06.69-.07,0-.01.02,0,.04,0,.1,0,.19,0,.29-.01.02,0,.04,0,.07,0,.08,0,.16,0,.24,0,.03,0,.07-.01.12,0,.15,0,.3.02.44.04t.02,0c.24.03.49.08.73.16t.02,0c.17.05.34.11.52.18.08.03.16.06.23.11.2.09.4.2.58.34.1.06.19.13.28.2.29.22.56.46.83.76.29.31.57.64.84,1.04.28.39.55.82.83,1.3.28.47.54,1,.83,1.56,3.81,7.83,6.95,16.01,10.04,24.17.44,1.15-.61,3.96-1.08,4.63Z"/>
  <path class="cls-1" d="m590.37,131.95c.05.21.08.43.08.68,0,.09,0,.16,0,.25,0,.27-.03.55-.07.84-.03.19-.06.39-.1.58-.03.17-.07.34-.11.51-.04.17-.08.34-.13.5-.11.41-.25.78-.4,1.11-.04.08-.07.16-.12.24-.09.19-.19.35-.29.47-.05.06-.09.12-.14.16-.03.04-.06.05-.08.07-.02.01-.04.03-.06.04-.04.03-.08.04-.12.05-3.03.44-6.64.9-7.89-3.55-1.87-6.67-3.87-13.3-6.03-19.88-1.18-3.62-2.8-7.1-4.29-10.8,1.43-.65,2.74-1.08,3.93-1.26.23-.04.47-.06.7-.07,0-.01.03,0,.04,0,.13,0,.26-.02.39-.02.14,0,.28,0,.42.01.21,0,.39.02.6.05.12.01.24.03.37.06.25.04.5.11.73.21.18.06.36.13.52.21.09.04.18.08.26.13.12.07.24.14.36.22.15.1.28.2.41.31.12.09.24.19.34.31.08.08.15.15.23.24.1.11.21.23.3.35.11.14.22.27.31.41.12.18.24.36.36.56.22.38.44.8.63,1.27.1.22.19.47.28.72.37,1.03.74,2.07,1.11,3.1.74,2.07,1.47,4.12,2.21,6.19.73,2.07,1.46,4.13,2.15,6.22.71,2.07,1.39,4.14,2.06,6.23.33,1.05.65,2.09.98,3.14.02.05.04.11.04.18Z"/>
  <path class="cls-1" d="m904.69,468.2c.01.15.02.3.03.45,0,.15,0,.29,0,.44,0,.28-.02.56-.08.82-.02.13-.05.26-.08.38-.01.07-.02.12-.05.18-.01.06-.04.13-.06.18-.1.35-.26.67-.45.97-.04.08-.09.17-.16.24-.05.08-.12.16-.17.22s-.11.13-.16.18c-.03.04-.06.06-.08.09-.1.1-.21.2-.32.29-.09.07-.18.14-.26.2-.17.12-.36.23-.55.32-.11.06-.23.11-.36.16-.1.04-.21.07-.32.11-.14.04-.26.08-.4.11-.14.03-.27.06-.41.08-.99.16-2.11-.47-3.26-1.33-.28-.22-.57-.44-.84-.67-.87-.69-1.74-1.42-2.59-1.97h-.01c.12-.18.24-.37.36-.56.28-.46.55-.91.83-1.38.19-.33.38-.66.57-.98.12-.2.24-.42.38-.61.13-.21.25-.41.4-.6.12-.19.25-.38.38-.55.14-.2.3-.39.46-.57.08-.11.17-.21.28-.31.09-.1.19-.2.28-.29.2-.19.41-.38.63-.54.1-.08.23-.11.41-.09.03,0,.07,0,.1,0,.25.03.55.12.89.28.08.03.17.07.26.11.43.2.91.45,1.4.74.19.1.38.2.56.32.38.2.75.42,1.1.61.24.13.46.23.67.33.02.03.02.07.04.1.34.92.53,1.76.6,2.53Z"/>
  <path class="cls-1" d="m612.97,208.35c.02.27.02.53.01.79,0,.26-.03.53-.06.78-.11,1.04-.41,2.05-.85,2.99-.23.47-.49.91-.8,1.34-.13.19-.28.38-.43.55-.18.23-.38.45-.59.66-.04.04-.07.09-.12.12-.15.15-.29.28-.46.42-.15.13-.32.27-.49.39h-.01c-.1.07-.18.14-.28.2-.14.11-.29.2-.43.27-.09.06-.18.11-.28.16-.42.25-.87.46-1.33.63-.31.11-.62.21-.94.28-.16.05-.31.08-.47.12-.17.04-.33.06-.5.09-.22.03-.46.06-.69.07-.03.02-.06,0-.11,0-.06,0-.13,0-.19,0,0,0,0,.01-.02,0,0,.01-.03.02-.04,0-.23.01-.46.01-.67,0-.04,0-.09,0-.13,0-.26-.01-.52-.03-.77-.07-.27-.03-.52-.07-.78-.12-.3-.06-.6-.14-.9-.23-.05-.01-.09-.03-.14-.04-.25-.07-.5-.15-.75-.26-.55-.22-1.07-.48-1.58-.79h-.01c-.25-.16-.5-.33-.74-.5-.97-.7-1.83-1.57-2.53-2.6-.18-.23-.34-.49-.48-.75-.11-.19-.21-.38-.31-.58-.09-.16-.17-.33-.24-.5-.1-.22-.19-.45-.28-.68-1.85-5.1.33-9.24,5.99-11.38,1-.38,1.99-.6,2.97-.67.06,0,.12,0,.18-.02.17-.02.35-.02.52-.01.13,0,.26,0,.39,0,.24,0,.47.03.7.05.27.04.53.07.79.13.25.04.48.1.71.16.55.16,1.08.36,1.59.62.21.1.43.22.63.34.26.16.52.32.76.5.44.34.86.7,1.25,1.11.38.41.74.86,1.08,1.35.16.24.31.5.46.76.15.26.29.53.42.81.13.29.25.57.36.87.11.3.2.6.29.9,0,0,0,.01,0,.01.15.57.24,1.14.27,1.71Z"/>
  <path class="cls-1" d="m459.56,722.3c-8.07-19.96-22.55-27.52-44.11-23.13-13.91,2.83-22.31,11.69-25.64,24.97-3.75,15.03.62,27.82,12.83,37.74,3.39,2.74,5.26,1.77,6.84-2,1.88-4.53,3.98-9.02,6.48-13.21.94-1.56,3.3-2.27,5.02-3.36.23,1.94,1.13,4.07.59,5.76-1.55,4.87-3.6,9.57-5.56,14.29-1.61,3.89-.26,5.98,3.75,6.29,10.4.77,20.16.07,28.67-7.55,11.99-10.77,16.69-26.06,11.13-39.79Zm-51.28,5.55c-.31-.14-.65-.25-1-.36-.23-.07-.47-.15-.71-.22-.54-.17-1.08-.33-1.55-.53-.16-.06-.31-.13-.46-.2-.19-.09-.37-.19-.51-.32-.08-.05-.15-.1-.2-.17-.01,0-.03-.03-.04-.04-.05-.06-.1-.11-.14-.18-.05-.06-.1-.14-.13-.21-.01-.02-.02-.05-.02-.07-.04-.09-.07-.2-.1-.3-.07-.23-.1-.47-.1-.74,0-.14,0-.29,0-.45,0-.21.03-.43.06-.66.03-.11.04-.22.07-.35,0-.11.03-.24.06-.37.1-.5.21-1.04.34-1.63.05-.29.12-.58.18-.9.05-.24.09-.47.13-.73.05-.25.09-.49.12-.76,1.64.89,3.22,1.5,4.33,2.05.24.12.46.23.65.36.1.06.19.12.27.18.09.06.16.12.22.18.06.06.11.1.14.16.02,0,.02.02.04.04.04.06.08.11.1.17.03.06.05.13.06.2.24,1.84-1.14,3.88-1.85,5.82Zm24.87-8.85c-1.51-.66-4.14-1.19-4.26-2.03-.24-1.85.81-3.87,1.68-7.13.28.22.56.42.84.6s.55.36.81.54c.13.09.27.18.4.26.25.16.49.32.72.47.01,0,.01,0,.02.02.16.11.31.2.46.3.64.44,1.11.81,1.29,1.17.02.03.03.05.03.07.03.08.05.16.05.23,0,1.84-1.29,3.67-2.05,5.5Zm15.22,21.66c-.3.65-.6,1.22-.91,1.75-.08.13-.16.25-.25.39-.08.12-.16.24-.25.35-.25.36-.52.67-.82.95-.11.09-.33.1-.64.04-.19-.02-.4-.08-.64-.15-.51-.16-1.11-.42-1.67-.72-.21-.11-.42-.23-.61-.35-.09-.05-.17-.11-.25-.17-.08-.05-.17-.12-.24-.17-.12-.09-.23-.17-.32-.27-.06-.06-.11-.1-.17-.16-.14-.14-.25-.28-.31-.41-.03-.07-.06-.13-.07-.2-.43-1.85.56-4.7,1.98-6.05.82-.78,3.66.59,7.03,1.28-.76,1.45-1.32,2.75-1.85,3.87Z"/>
  <path class="cls-1" d="m459.55,203.96c-4.04,2.53-8.82,4.25-13.5,5.38-7.03,1.68-7.99.63-9.29-7.48,1.5-.69,3.07-1.42,6.36-2.95-4.33-6.08-7.91-12.06-12.45-17.19-3.6-4.08-5.85-10.43-3.54-14.5,2.2-3.88,10.57-6.78,14.68-5.07,5.33,2.2,6.71,7.16,7.07,12.84.41,6.53,3.21,12.91,5.19,20.17,2.82-1.87,4.27-2.84,5.7-3.8,6.33,5.48,6.52,8.37-.23,12.62Z"/>
  <path class="cls-1" d="m491.43,133.18c-2.99,5.88-5.59,11.04-8.21,16.2-10.53-1.08-15.6,7.66-22.75,12.57-.62.42-.71,2.26-.43,3.27,1.45,5.44-.64,7.75-3.73,7.59-5.54-5.56-9.89-9.7-13.92-14.16-.85-.92-1.08-3.25-.5-4.34.57-1.06,3.04-2.32,3.82-1.9,6.44,3.48,10.81-.1,15.17-3.97,3.87-3.45,10.68-4.25,10.31-11.64-.04-.8,1.86-2.36,2.97-2.47,5.39-.56,10.82-.75,17.28-1.14Z"/>
  <path class="cls-1" d="m743.92,301.85c-4.77,2.06-9.33-.15-11.61-5.62-.24-.56-.43-1.11-.59-1.65-.15-.53-.27-1.05-.35-1.56s-.12-1.02-.12-1.5c0-.17,0-.35,0-.51,0-.16.02-.33.04-.48,0-.03,0-.07,0-.09.01-.13.03-.27.05-.39,0-.03,0-.08.03-.11.03-.21.08-.41.13-.62.06-.29.15-.57.25-.83.09-.22.18-.42.27-.62.2-.4.42-.77.69-1.13.03-.06.07-.11.11-.16.26-.36.56-.68.88-.98.19-.18.38-.35.59-.51.1-.08.18-.15.28-.22.13-.1.25-.19.38-.28.08-.06.17-.11.25-.16.39-.25.8-.48,1.24-.68.07-.04.15-.08.23-.11.22-.11.46-.21.71-.3.14-.05.3-.11.44-.15.23-.07.46-.13.7-.19.45-.11.91-.18,1.37-.21.07-.01.15-.01.23-.01.19-.02.38-.01.57-.02.12,0,.25,0,.38.02.37,0,.74.05,1.09.11.16.02.3.05.46.08.35.07.68.15,1.01.26.15.04.29.09.42.13.23.08.46.17.69.26.24.09.47.2.69.32.2.09.39.2.58.31.23.13.44.27.65.42.1.06.19.13.29.22.16.11.29.22.43.34.14.11.26.23.39.35.24.21.47.45.67.7.14.16.28.35.42.52.07.09.12.18.18.27.08.1.14.21.2.31.07.1.13.2.18.31.1.18.2.36.28.56,2.27,5.09-.37,11.25-5.83,13.6Z"/>
</svg>