<?xml version="1.0" encoding="UTF-8"?>
<svg id="Layer_1" data-name="Layer 1" xmlns="http://www.w3.org/2000/svg" viewBox="0 0 981.82 813.18">
  <defs>
    <style>
      .cls-1, .cls-2 {
        stroke-width: 0px;
      }

      .cls-2 {
        fill: #fff;
      }
    </style>
  </defs>
  <path class="cls-1" d="m170.81,608.72h0s0,.01,0,.01c.14.03.26.06.41.11-.14-.05-.28-.09-.42-.12Zm2.26,5.16c-.19-.44-.36-.89-.55-1.32.24.58.47,1.17.71,1.75-.05-.14-.11-.29-.16-.42Zm.84,2c-.08-.17-.15-.33-.23-.5.09.24.2.47.3.71-.02-.08-.05-.15-.08-.22Zm7.52,5.96c.65,1,1.29,1.99,1.93,2.99h.02c-.65-1-1.29-1.99-1.95-2.99Zm2.16,2.99l-.03.02-.07.06.06-.08c-.06,0-.12,0-.17-.01.03.03.05.08.08.12h0s0,.01,0,.01c.09.13.2.25.27.37,0,.03.04.04.07.09-.07-.19-.14-.4-.21-.58Zm282.16,34.04s0,.01,0,.01h0s0-.01,0-.01Zm4.49,6.68c.43.47.88.89,1.34,1.3-.45-.41-.9-.84-1.34-1.3Zm13.61,4.59c.32-.04.65-.1.98-.16h0c-.33.05-.66.11-.98.16Z"/>
  <path class="cls-1" d="m175.73,619.55c-.09-.16-.19-.32-.27-.47.13.24.26.47.4.7-.04-.08-.09-.15-.13-.23Z"/>
  <path class="cls-2" d="m183.79,625.42s-.06-.05-.07-.09c-.08-.12-.19-.24-.27-.37h0s.03-.04.03-.04l.07-.06.03-.02c.07.18.14.39.21.58Z"/>
  <path class="cls-1" d="m860.82,786.07c-3.8,4.59-8.65,8.47-11.12,13.97-2.23,4.99,2.52,8.87,5.78,7.49,4.78-1.99,9.51-5.84,12.94-10.4,2.66-3.55-1.34-9.17-7.6-11.06Z"/>
  <path class="cls-1" d="m486.18,110.45c-3.82-11.65-19.9-24.11-27.69-21.47,2.13,7.64,22.17,23.15,27.69,21.47Z"/>
  <path class="cls-1" d="m942.69,437.67c-1.89-1.63-4.86-5.11-5.5-4.56-2.71,2.34-5,5.67-6.77,9.15-.37.71,2.2,3.66,4.69,7.57,3.19-5.15,5.38-8.67,7.57-12.17Z"/>
  <path class="cls-1" d="m56.88,98.42c-1.34-1.14-3.38-3.64-3.93-3.21-3.31,2.53-6.27,5.74-9.35,8.72.97,1.25,1.95,2.5,3.9,5.01,3.52-3.95,6.46-7.23,9.38-10.52Z"/>
  <path class="cls-1" d="m47.62,331.87c-3.91-4.09-6.63-7.17-9.64-9.74-.34-.29-2.35,2.34-3.59,3.6,2.7,3.24,5.3,6.6,8.2,9.53.37.38,2.25-1.47,5.03-3.4Z"/>
  <path class="cls-1" d="m466.55,483.41c-3.22-9.24-11.15-4.9-16.45-8.13-.31.87-.61,1.73-.92,2.6,5.44,2.86,10.87,5.72,16.31,8.58.35-1.02.71-2.05,1.06-3.05Z"/>
  <path class="cls-1" d="m559.84,154.78c3.93,3.99,7.86,7.97,12.39,12.58.52-9.79-3.63-14.3-12.39-12.58Z"/>
  <path class="cls-1" d="m9.46,273.95c-2.83-2.82-4.89-4.9-6.95-6.97-.89,1.68-2.83,3.95-2.46,4.94,1.23,3.33,3.28,6.19,5,9.22,1.23-1.99,2.44-3.99,4.41-7.19Z"/>
  <path class="cls-1" d="m60.37,351.42c-4.07-4.21-7.05-7.28-11.43-11.8.61,11.68,2.84,13.95,11.43,11.8Z"/>
  <path class="cls-1" d="m493.27,768.92c1.36,5.74,2.54,10.68,4.01,16.88,5.54-7.38,3.97-13.5-4.01-16.88Z"/>
  <path class="cls-1" d="m651.27,114.82c2.5,4.49,5.02,8.99,7.52,13.48.71-.5,1.41-1.02,2.12-1.54.49-7.04-2.13-11.49-9.64-11.94Z"/>
  <path class="cls-1" d="m932.2,595.83c-.1-2.5-.14-5.18-.93-7.43-.62-1.82-2.26-3.12-3.45-4.64-.52.42-1.03.83-1.55,1.23.3,1.91.4,3.9.95,5.68.69,2.22,1.71,4.28,2.77,6.27.1.17,2.23-.76,2.22-1.11Z"/>
  <path class="cls-1" d="m891.17,758.19c-2.98-2.2-4.89-4.49-5.67-4-2.06,1.27-3.63,3.73-5.4,5.72,1.12,1.06,2.46,3.24,3.32,2.98,2.18-.64,4.13-2.39,7.74-4.7Z"/>
  <path class="cls-2" d="m465.75,658.88h0s0,0,0,0h0Z"/>
  <path class="cls-2" d="m471.58,666.86c-.46-.41-.91-.83-1.34-1.3.44.46.89.89,1.34,1.3Z"/>
  <path class="cls-2" d="m484.83,669.97h0c-.33.08-.66.13-.98.17.32-.05.65-.11.98-.17Z"/>
  <path class="cls-2" d="m171.23,608.84c-.15-.04-.27-.08-.41-.11h0c.14.02.28.05.42.11Z"/>
  <path class="cls-2" d="m172.1,611.56c-.13-.32-.27-.65-.41-.97.09.22.19.42.28.64.05.11.09.22.13.33Z"/>
  <path class="cls-2" d="m173.22,614.3c-.24-.57-.47-1.16-.71-1.75.19.43.36.88.55,1.32.05.13.11.28.16.42Z"/>
  <path class="cls-2" d="m173.98,616.1c-.11-.24-.22-.47-.3-.71.08.16.15.32.23.5.03.06.06.14.08.22Z"/>
  <path class="cls-2" d="m175.86,619.77c-.14-.23-.27-.46-.4-.7.09.15.19.31.27.47.04.08.09.15.13.23Z"/>
  <path class="cls-2" d="m183.38,624.84h-.02c-.64-1-1.28-1.99-1.93-2.99.66,1,1.3,1.99,1.95,2.99Z"/>
  <path class="cls-2" d="m183.55,624.85l-.06.08-.03.03s-.05-.09-.08-.12c.05.01.11.01.17.01Z"/>
  <path class="cls-1" d="m712.06,62.4c-2.88-4.16-5.39-8.68-8.08-13.03,1.95-.43,2.78.13,3.4.9,8.91,11.07,17.85,22.12,26.63,33.34,4.33,5.55,9.27,10.86,12.34,17.39,5.15,10.99,24.7,27.5,34.54,24.63,9.01-2.63,11.72,3.55,14.23,10.52,8.85,24.46,17.27,49.17,25.71,73.82,1.25,3.63,1.79,7.62,2.68,11.44-.92.34-1.82.69-2.75,1.04-4.88-16.04-9.87-32.05-14.64-48.13-3.5-11.84-6.16-24.22-14.24-32.94-9.59,6.02-18.03,1.59-24.75-5.26-8.97-9.11-16.87-19.91-24.71-30.55-10.39-14.09-20.32-28.69-30.35-43.18Z"/>
  <path class="cls-1" d="m978.93,231.8c-15.27-27.42-21.36-57.46-17.48-90.47,2.66-22.62-3.85-41.02-16.73-57.21-7.66-9.62-13.49-21.4-20.91-31.35-4.3-5.78-9.61-11.27-15.38-14.41-15.56-8.53-27.37-22-37.41-38.36h-135.68c9.31,16.56,18.74,32.97,27.89,49.67,5.4,9.86,11.87,18.22,20.9,22.54,13.19,6.3,22.8,17.31,31.57,30.67,9.5,14.46,21.74,25.49,35.01,34.45.49-.64.98-1.28,1.48-1.92-4.36-5.13-8.74-10.26-12.76-14.97,4.6-3.32,8.41-6.08,13.63-9.84,6.51,14.86,13.05,29.72,19.59,44.6-.56.46-1.14.94-1.7,1.38-1.88-1.35-3.77-2.7-6.75-4.8,3.68,6.93,7.94,12.09,9.41,18.26,3.53,14.88,5.87,30.17,8.43,45.37,2.29,13.52,3.22,27.5,6.51,40.62,6.15,24.51,1.07,47.37-4.65,70.38-2.89,11.72-12.73,14.65-19.03,22.05-1.36,1.58-2.89,2.94-4.35,4.42-10.44,10.57-22.8,15.11-37.06,18.36,5.85-5.74,10.99-9.84,15.15-15.08,5.7-7.2,5.25-9.33-1.18-15.25.76-3.57,1.54-7.17,2.29-10.82,1.41-6.71,3.15-13.35,4.11-20.13,1.29-9.14-2.9-19.94-8.45-23.03-7.05-3.95-11.23,1.49-15.97,6.72-3.38,3.73-7.81,6.17-12,8.54-1.13.65-3.93-.48-4.61-1.82-3.93-7.8-8.69-15.63-5.18-25.62,2.58-7.36.83-13.99-2.68-19.51-9.21-14.4-18.93-28.32-29.41-43.88,1.97,5.16,3.23,9.02,4.86,12.64,7.66,16.82,15.47,33.55,23.06,50.42.83,1.84,1.4,5.05.65,6.53-4.06,7.97-.2,15.07,1.19,22.4,1.53,8.01,6.22,11.35,12.5,11.29,7.89-.09,13.82-4.1,17.77-13.03,1.36-3.05,5.01-6.55,7.51-6.44,4.96.19,6.32,5.82,5.38,11-2.16,12-4.86,23.84-7.39,35.73-.51,2.4-1.13,4.77-1.8,7.12-.7,2.32-1.01,5.5-2.4,6.69-3.26,2.75-6.88,5.16-10.65,6.6-24.38,9.35-49.21,11.42-74.78,6.24,5.92-1.97,11.71-3.15,16.99-5.87,9.12-4.72,10.81-13.97,5.72-24.27-1.81-3.67-3.86-9.25-2.85-12.64,3.9-13.1,7.94-26.48,13.95-38.18,5.66-11,8.61-21.49,3.87-33.18-4.66-11.57-10.4-22.5-15.94-33.51-3.07-6.1-7.47-11.35-9.92-17.77-4.98-13.11-12.47-22.95-22.56-30.03-22.89-16.04-38.93-40.49-54.09-66.18,9.37,4.68,18.58,9.73,28.05,13.92,9.35,4.16,16.17,15.23,27.55,14.55-4.68-7.27-10.13-13.27-15.39-19.51-6-7.11-13.43-13.31-17.39-21.89-8.45-18.26-20.2-31.49-34.53-42.18-4.96-3.71-9.79-8.06-13.9-13.09-10.29-12.59-20.13-25.76-30.17-38.69h-19.78c5.35,5.61,11.25,10.62,15.95,16.97,19.06,25.65,39.48,49.13,63.46,67.93,5.95,4.64,10.14,12.66,15.15,19.12-3.45.99-5.67.19-7.93-.34-15.56-3.66-27.27-16-39.88-26.41-2.85-2.35-7.18-2.74-9.23-5.69-16.5-23.63-32.61-47.66-48.84-71.57h-24.03c9.5,8.45,19.56,16.08,28.35,25.5,12.58,13.39,24.23,28.07,36.29,42.2-.51.68-1.02,1.37-1.53,2.05-.58-.24-1.23-.34-1.75-.71-15.96-11.62-31.79-23.48-50.52-27.58-3.1-.67-5.94-3.25-8.86-5.08-10.64-6.71-21.13-13.73-31.9-20.13-9.68-5.77-19.61-10.85-29.44-16.23h-22.62c16.42,9.21,32.85,18.4,49.27,27.64,4.91,2.78,9.94,5.32,14.62,8.6,12.48,8.74,25.66,14.72,39.29,20.53,32.5,13.85,61.81,34.86,84.78,67.74,10.67,15.26,22.91,28.98,34.97,42.68,28.2,32.07,41.91,71.04,38.69,118.39-1.3,18.99-13.35,33.79-24.36,34.45-11.84.71-21.8-6.1-31.45-13.45-1.14-.85-1.6-3.4-1.98-5.29-2.83-13.86-9.18-24.98-17.21-35.12-17.56-22.21-39.92-34.31-62.66-45.64-12.34-6.14-23.6-13.66-32.97-25.83-14.21-18.41-33.04-28.19-51.48-38.6-16.65-9.37-33.25-18.88-47.16-34.2-15.25-16.79-34.64-23.8-53.21-33.01-52.98-26.23-108.62-37.46-164.94-44.16-13.54-1.59-27.61,1.9-41.3,4.26-8.05,1.38-12.04,8.54-12.41,20.32-.19,6.26-2.35,9.42-6.85,9.87-15.12,1.48-30.3,2.53-46.68,3.85,11.33-10.65,21.93-19.58,35.71-20.67,1.27-.11,3.12-1.84,3.46-3.25.35-1.53-.43-4.77-1.34-5.17-5.1-2.23-10.33-5.01-15.61-5.4-7.87-.56-15.86,1.43-23.76,1.08-21.7-.98-42.08,5.22-61.46,16.46-3.76,2.18-6.36,7.39-9.44,11.29-5.33,6.71-10.97,13.11-15.81,20.34-8.5,12.74-19.69,19.51-32.01,25.15-9.11,4.18-13.5,14.03-13.47,26.16.02,5.77.64,11.52.87,17.28.15,3.45.84,7.25-.05,10.29-3.64,12.38-6.41,25.64-12.13,36.49-6.57,12.47-3.37,23.25,1.69,35.41,1.69,4.04,3.9,7.87,4.98,12.11,4.07,16.08,13.65,24.56,27.11,24.42,3.17-.03,6.93,1.91,9.43,4.43,14.76,14.68,29.25,29.82,43.8,44.82,12.97,13.38,28.4,18.23,44.75,17.27,12.95-.74,23.83,4.07,34.6,12.07,14.06,10.44,28.55,20.05,43.02,29.7,2.81,1.89,6.2,2.64,9.41,3.44,11.5,2.89,22.99,5.84,34.57,8.24,8.56,1.81,17.19,3.69,25.84,4.01,15.57.54,30.02,4.44,44,13.45,9.91,6.38,21.08,9.78,31.65,14.62,7.89,3.63,15.66,7.77,23.67,11.03,6.45,2.61,12.89,6.82,19.76-.56,1.92-2.07,6.9-.73,10.26.24,16.25,4.7,32.35,10.15,48.65,14.6,7.73,2.12,15.8,2.46,23.68,3.9,7.39,1.36,14.76,3.02,22.09,4.75,2.29.54,4.41,2.14,6.7,2.68,13.7,3.16,25.71,9.34,36.88,20.63,6.17,6.24,16.62,6.17,25.18,8.86,4.6,1.45,9.42,2.11,13.83,4.19,23.43,11.04,42.63,30.31,62.24,48.78,10.67,10.06,18.56,22.79,24.03,37.83.28.81.97,1.63.89,2.33-1.33,11.39-1.42,23.33-4.49,34-3.98,13.78-15.28,15.39-25.44,15.75-7.89.28-15.98-1.23-23.72-3.38-18.8-5.22-36.44-14.69-51.68-28.98-21.42-20.1-45.41-31.79-71.75-35.72-26.29-3.91-49.28-16.64-70.44-35.26-9.12-8.01-19.03-13.11-29.77-17.21-17.68-6.74-34.87-15.46-52.25-23.44-21.07-9.65-42.06-19.63-63.23-29-4.56-2.04-9.72-2.93-14.58-2.89-22.23.16-43.95-4.34-65.77-8.93-6.68-1.41-14.33,1.14-20.99,3.9-3.72,1.56-6.97,6.72-9.21,11.19-4.18,8.35-7.81,17.15-10.96,26.16-4.55,13.05-1.63,25.66,8.1,33.36,11.31,8.95,22.07,18.23,30.75,31.3,3.37,5.08,9.74,8.13,15.21,9.98,15.44,5.13,29.92,12.68,42.54,24.53,14.19,13.33,30.28,21.11,47.14,26.65,16.66,5.46,30.43,17.05,40.32,33.09,10.75,17.43,18.74,37.52,27.18,56.96,3.84,8.83-.57,16-8.95,14.4-12.18-2.31-24.69-2.97-35.68-11.98-22.39-18.31-46.85-31.86-71.58-44.64-3.89-1.99-7.23-5.64-11.78-9.34v10.78c-16.24-3.16-30.09-10.36-40.38-26.52-3.71-5.84-8.21-10.91-12.09-16.61-6.14-9.02-12.03-18.27-18.07-27.38-2.32-3.47-4.36-7.54-7.3-9.93-1.55-1.27-5.56-.52-6.93,1.2-1.27,1.56-1.34,6.05-.44,8.46,1.31,3.51,3.83,6.46,6.06,9.42,12.12,16.01,24.1,32.24,36.59,47.84,6.98,8.73,14.88,16.33,22.36,24.44-13.5-18.56-27.05-37.08-40.44-55.75-.95-1.32-1.52-3.04-2.08-4.79-.27-.87-.56-1.77-.87-2.6-.08-.12-.19-.24-.27-.37h0c-.03-.05-.05-.1-.08-.13h-.02s0,.01,0,.01c-.19-.01-.39-.03-.57-.08.18.02.37.05.56.06-.64-1-1.28-1.99-1.93-2.99.66,1,1.3,1.99,1.95,2.99.05.01.11.01.17.01l-.06.08.07-.06.03-.02c.07.18.14.39.21.58,7.91,10.71,15.76,21.52,23.75,32.12,5.39,7.14,10.34,15.24,16.71,20.77,10.88,9.43,23.28,14.42,37.01,13.01,9.1-.92,17.75,4.75,19.09,11.77,2.36,12.56,3.66,13.71,14.4,16.18,4.32.98,8.42,3.3,12.64,5.01l-.29,3.33c-3.81.73-8.2,3.33-11.28,1.83-12.41-6.02-24.44-13.23-36.54-20.19-9.36-5.34-18.59-10.99-27.88-16.49,15.79,11.22,31.34,23.03,47.48,33.49,9.73,6.33,20.6,10.01,30.45,16.05,4.71,2.9,8.28,8.57,12.4,12.94,1.88,1.99,3.67,5.08,5.82,5.59,11.38,2.61,21.49,8.25,31.77,14.87,13.24,8.53,27.77,14.04,41.75,20.9,1.96.95,4.25,1.62,5.7,3.3,11.02,12.69,24.49,14.14,38.52,12.94,6.34-.56,12.74-.94,18.94-2.47,12.83-3.15,19.56-16.26,14.84-31.1-3.42-10.79-7.86-22.23-14.45-30.07-8.17-9.68-12.21-21.22-16.66-33.11-3.07-8.2-6.35-14.78-14.35-19.33-9.9-5.61-17.64-16.87-26.4-25.56-2.6-2.59-4.27-9.84-9.29-3.27-.37.51-2.89-1.15-4.27-2.12-8.76-6.23-17.77-12-26.11-19.01-6.52-5.48-12.44-12.18-18.11-18.98-9.57-11.45-19.13-22.98-27.94-35.29-9.11-12.73-16.36-27.57-28.91-36.2-.9-.64-1.15-2.73-.76-6.08,3.98,1.9,8.19,3.26,11.88,5.83,4.9,3.38,9.08,8.51,14.13,11.39,4.91,2.79,10.55,5.1,15.89,5.12,12.12.06,23.61,2.53,33.54,11.03,6.75,5.8,12.59,13.15,17.1,17.98,4.44-1.85,7.06-3.99,9.57-3.81,14.1.93,28.22,1.96,42.25,3.93,7.38,1.04,14.56,4.02,21.81,6.33,2.27.72,4.32,2.57,6.59,3.06,23.6,5.03,42.09,22.34,61.11,38.26,6.59,5.54,12.59,12.08,14.76,22.23-14.34,8.79-39.03,3.75-50.65-9.17-3.14-3.49-8.11-4.56-12.27-6.67-12.05-6.12-24.57-11.19-36.02-18.7-6.37-4.19-11.87-7.89-19.48-7.73-4.51.11-9.05-4.55-13.63-6.86-3.8-1.9-7.68-3.52-11.52-5.25,2.12,4.35,3.53,9.74,6.53,12.81,3.86,3.92,8.76,7.4,13.6,8.54,10.95,2.6,18.02,12.01,26.16,19.67.71.68,1.46,1.71,1.64,2.74,2.72,15.3,12.84,19.29,23.01,19.55,19.52.5,35.57,11.33,52.19,21.63,10.62,6.56,22.05,11.19,33.1,16.66,2.73,1.36,5.5,2.64,9.59,4.58-4.04-6.01-7.15-10.62-11.45-17.01,3.65,0,5.65-.32,7.55.04,12.77,2.51,25.51,5.53,38.33,7.69,11.5,1.96,14.92,13.77,19.73,23.65.58,1.17-3.07,5.45-5.23,9.06.47.51,1.4,2.37,2.67,2.81,11.73,4,23.39,8.71,35.33,11.32,11.29,2.43,22.93,3.68,34.38,3.52,24.58-.32,47.15,10.13,70.26,17.82,16.24,5.4,32.81,9.9,49.45,4.57,10.33-3.3,20.11-9.31,29.99-14.52,5.16-2.7,10.09-6.13,14.93-9.6,2.38-1.71,4.74-3.91,6.42-6.54,4.76-7.37,9.17-15.08,14.05-23.23,1.48,1.43,2.39,2.17,3.15,3.08,4.29,5.12,9.03,7.65,14.56,3.22,5.47-4.34,7.6-10.71,6.45-18.68-.88-6.26-3.95-14.11-1.97-18.45,3.42-7.53,8.47,1.96,13.36,1.92,12.38-.05,23.28-9.18,26.73-25.64,5.37-25.67-.02-48.78-13.17-69.04-4.76-7.3-6.91-14.68-6.64-23.72.13-4.59-.5-9.22-.77-13.81-.82-12.99-5.84-21.77-16.61-24.56-7.75-1.99-13.01-7.16-15.86-16.46-1.91-6.19-4.71-11.97-7.2-17.86-8.08-19.2-19.4-34.66-34.86-45.36-6.35-4.41-12.85-8.56-18.88-13.54-5.56-4.59-10.55-10.14-15.81-15.25.23-.93.43-1.89.65-2.81,6.63-1.08,13.3-1.96,19.9-3.26,7.36-1.45,14.85-2.53,21.97-5.12,12.51-4.56,24.13-5.76,36.77,1.53,8.82,5.07,19.36,6.67,29.27,7.62,8.45.79,15.06-5.16,19.25-14.8,1.3-2.99,3.72-5.62,6.12-7.5,8.7-6.85,17.97-12.69,26.33-20.08,8.31-7.34,8.59-12.73,3.61-23.35-4.91-10.44-2.86-20.54,1.25-30.52,2.55-6.16,5.99-12.11,7.18-18.67,1.28-7.02,1.88-15.26.14-21.92-4.33-16.44-2.13-31.29,4.67-45.49,3.76-7.81,4.41-15.11.22-22.64ZM170.89,608.88c-.03-.05-.05-.11-.08-.15h0c.14.02.28.05.42.11-.15-.04-.27-.08-.41-.11.02.04.04.1.07.15Zm1.63,3.67c.19.43.36.88.55,1.32.05.13.11.28.16.42-.24-.57-.47-1.16-.71-1.75Zm1.17,2.83c.08.16.15.32.23.5.03.06.06.14.08.22-.11-.24-.22-.47-.3-.71Zm1.81-2.64c-.38-.55-.75-1.11-1.16-1.63.42.51.79,1.06,1.17,1.62.49.74.97,1.49,1.46,2.24l-1.47-2.23Zm290.26,46.14s0-.01,0-.01h0c.46.2.92.4,1.37.59-.45-.19-.91-.39-1.37-.58Zm4.48,6.67c.44.46.89.89,1.34,1.3-.46-.41-.91-.83-1.34-1.3Zm14.6,4.42h0c-.33.08-.66.13-.98.17.32-.05.65-.11.98-.17.03-.1.06-.19.1-.29-.03.1-.06.19-.09.29Zm9.19-494.36c-2.5-3.9-4.75-7.37-6.97-10.83,8.44-.51,10.43,3.2,6.97,10.83Zm-99.62-89.97c23.29,10.74,46.17,19.83,66.53,35.9-.2.74-.39,1.51-.59,2.25-21.82-7.28-43.62-14.56-65.99-22.03q5.92-6.36.05-16.13Zm-48.3,37.13c2.29,4.22,4.46,7.37,5.64,11,.34,1.02-2.25,3.49-3.5,5.29-1.87-3.92-3.84-7.77-5.48-11.82-.19-.47,1.52-2.1,3.34-4.47Zm-160.08-26.87c4.52.68,8.79,4.97,12.92,8.11,9.41,7.17,18.65,3.32,21.36-9.78,1.33-6.33,1.77-13.02,2.01-19.57.23-5.85,2.28-8.98,6.8-10.42,33.3-10.7,66.37-8.29,98.82,2.6-14.47,8.08-29.97,4.66-45.38,3.33-10.6-.92-15.54,3.47-16.44,14.35-1.34,16.48.96,20.8,13.01,22.54,13.39,1.91,25.62,7.05,36.54,16.89,1.82,1.65,4.42,1.96,6.29,3.55,2.98,2.57,6.23,5.24,8.22,8.82.93,1.69-.17,6.27-1.55,8.31-.81,1.2-4.12.46-6.09-.3-6.02-2.33-11.78-5.98-17.92-7.49-10.34-2.55-20.87-3.95-31.34-5.61-9.31-1.49-18.74-1.04-26.55,5.7-7.22,6.25-14.48,7.42-22.66,5.3-4.38-1.12-8.79-1.97-13.18-3.04-8.49-2.09-16.94-5.72-25.47-6-14.95-.51-24.58-9.52-32.83-26.35,11.78-4.18,21.59-12.75,33.44-10.93Zm125.71,211.73c-11.93-1.99-21.85-2.6-31.32-5.43-30.77-9.17-61.38-19.08-92.02-28.9-3.13-1-6.65-2.52-8.79-5.21-3.79-4.79-7.97-10.13-9.56-16.19-2.28-8.8,3.76-14.56,11.28-12.52,2.89.8,5.97.47,8.97.76,4.85.48,10.07-.13,14.51,1.86,11.53,5.18,23.26,9.73,34.71,15.49,17.72,8.92,35.07,17.71,50.06,32.6,1.26,1.25,2.91,1.86,4.28,2.96,5.45,4.38,10.86,8.83,17.89,14.58ZM101.01,153.62c6.79-.8,13.48-3.67,20.2-3.63,6.22.03,12.46,2.66,18.66,4.17,5.16,1.25,10.32,2.53,15.48,3.8.13-.82.26-1.64.4-2.42-3.11-1.93-6.06-4.42-9.32-5.64-4.81-1.78-9.96-4.29-14.73-3.68-15.85,2.03-31.59,5.29-49.39,8.43,8.51-5.85,15.69-10.98,23-15.77,5.46-3.59,8.74-7.62,5.24-15.84-.62-1.45.98-5.91,2.45-6.86,9.39-6.03,18.99-11.8,28.4.19.96,1.21,2.3,2.12,3.6,2.69,16.86,7.34,25.82,24.07,33.28,42.5-8.76,6.83-17.16,8.91-32.18,5.64-20.63-4.48-38.19,2.54-54.96,17.38-8,7.08-18.22,10.36-28.88,16.16,7.57-24.79,16.28-44.51,38.75-47.12Zm361.7,284.15c-2.77-1.84-5.31-5.47-6.62-9.03-4.34-11.69-15.94-20.06-25.15-16.99.23,2.9.44,5.87.73,9.49-11.55.43-21.18-4.22-29.87-12.15-1.12-1.02-2.36-3.45-2.14-4.85,1.41-7.94-2.7-12.16-5.73-15.93,0,5.48-.3,11,.12,16.44.22,2.56,1.32,6.33,2.89,7.21,9.08,5.06,18.13,10.89,27.75,13.59,8.94,2.53,10.1.15,11.94-11.22,7.96,3.62,15.38,7.02,16.53,19.65.26,2.87,3.43,6.01,5.88,7.77,5.78,4.18,11.91,7.62,18.93,11.99-15.2,1.61-28.35-2.22-40.61-10.1-16.38-10.57-33.28-16.96-52.11-15.39-5.86.48-12.24-1.61-17.85-4.24-13.25-6.22-28.01-8.95-38.08-23.19-4.3-6.06-8.9-10.97-14.43-2.79-7-11.15-12.82-23.03-20.7-32.25-7.86-9.19-17.37-17.09-29.82-15.24,2.24,16.92.55,18.96-13.01,17.6-4.78-.48-9.58-.64-14.38-.94-.11.95-.22,1.91-.33,2.87,7.67,1.61,15.32,3.41,23.02,4.76,6.59,1.16,11.21-1.07,10.98-10.84-.05-1.95,1.19-3.96,2.22-7.15,13.12,10.57,28.25,16.12,33.48,36.3,1.49,5.69,5.91,11.87,10.46,8.19,6.1-4.96,7.96-.2,11.42,3.33,3.76,3.87,7.86,7.21,11.97,10.5,2.91,2.33,6.08,4.17,9.12,6.24-11.84-2.78-22.82-7.83-34.04-11.95-8.73-3.19-17.71-5.31-26.6-7.73-10.75-2.94-21.9-4.4-32.17-8.9-10.98-4.8-21.14-12.37-31.65-18.79-2.29-1.41-4.49-3.03-6.74-4.56.21-.57.43-1.12.65-1.68,3.93.31,7.89.62,11.75.94-18.67-9.33-37.12-18.53-55.13-27.52.03.09.09.22.15.37.08.18.17.43.26.66.02.06.04.12.07.17.04.11.09.23.13.31.08.22.16.39.19.46-1.77-.92-3.56-1.86-5.35-2.82-3.06-1.59-6.14-3.22-9.24-4.87-1.11-.57-2.21-1.16-3.31-1.75-3.12-1.66-6.28-3.32-9.44-4.98-5.57-2.96-11.2-5.92-16.81-8.93-1.06-.55-1.96-1.59-2.85-2.53-10.1-10.42-13.46-28.31-8.12-43.24,1.18-3.25,2.49-6.44,3.71-9.66-15.69,21.22-6.59,41.67,1.93,62.09-8.45,3.57-14.48-.92-19.77-6.89-14.92-16.9-14.98-35.6-1.75-55.56-1.29-.22-2.58-.44-3.87-.66-3.04,9.45-6.06,18.87-9.87,30.67-3.9-15.89-7.77-30.02-10.58-44.49-.58-2.97,2.47-9.98,4.3-10.23,9.52-1.31,15.53-12.98,26.41-11.25,8.4,1.35,12.19-9.12,15.97-17.04,5.85,2.13,11.3,4.1,16.84,6.12-5.69,10.12-13.72,15.11-22.8,18.08-5.45,1.77-11.37,2.53-16.21,5.72-4.44,2.89-8.43,7.85-11.24,13.01-1.99,3.67-.81,8.63,4.16,9.3.54.05,1.15-.64,2.25-1.28-1.43-1.48-2.55-2.62-5.42-5.57,6.74-4.99,12.38-9.82,18.47-13.54,10.49-6.38,21.11-12.41,31.93-17.83,4.4-2.21,9.45-2.39,14.22-3.51.37,1.14.75,2.28,1.13,3.41-9.96,9.45-19.94,18.88-29.9,28.33.35.71.7,1.41,1.05,2.13,6.38-4.28,12.78-8.55,19.84-13.28-.51,3.45-1,6.17-1.28,8.94-1.04,10.13-2.02,20.47,3.68,29.06,5.04,7.59,7.16,15.81,7.03,25.53-.08,6.28.77,12.67,1.97,18.79.53,2.83,2.86,5.13,4.37,7.68,1.3-2.53,1.55-4.41.97-5.71-4.31-9.54-4.7-18.97-.74-28.96.74-1.83-.34-5.92-1.71-7.66-5.29-6.79-6.38-14.21-4.38-21.14,17.88,8.31,35.36,17.46,53.39,24.55,19.57,7.71,38.93,15.72,56.27,29.46,14.27,11.3,29.24,18.49,46.6,15.62,2.27-.38,4.79-.16,7,.59,19.71,6.59,39.4,13.27,59.01,20.24,2.28.82,4.52,3.15,6.04,5.49,14.02,21.6,32.88,28.74,54.41,27.14,8.83-.65,13.89,2.29,17.78,12.17,1.19,3.01,2.69,6.54,4.86,8.14,12.66,9.24,25.59,17.93,38.33,27.01,1.91,1.36,3.33,3.78,5.38,6.2-12.43,5.69-33.14,2.39-48.1-7.5Zm52.41-276.52c26.41,10.78,51.97,31.08,60.4,46.31-25.33-3.69-40.42-29.61-60.4-46.31Zm-51.48,429.9c-.24.8-.48,1.61-.72,2.4,8.43,3.17,16.88,6.33,25.32,9.49-.15.43-.28.85-.41,1.29-21.35-4.02-42.7-7.97-64.01-12.22-1.82-.36-3.4-2.63-5.08-4.03.18-.76.38-1.52.58-2.29,1.94-.24,3.91-.36,5.84-.74,2.31-.47,4.61-1.21,6.89-1.82-2.03-1.73-3.94-3.89-6.18-5.07-1.88-.98-4.18-.66-6.26-1.17-15.13-3.71-30.26-7.49-46.39-11.5,4.65-6.24,2.35-9.78-1.47-12.7-.67-.51-1.62-.43-3.14-.81.66,2.94,1.11,4.97,1.69,7.58-25.33,2.01-48.27-7.41-70.91-18.13-2.08-.97-4.37-5.16-4.32-7.76.06-1.94,3.61-4.55,5.94-5.39,6.51-2.33,13.19-3.89,20.9-6.08-12.81-6.71-34.64,5.39-41.27,21.42-12.18-14.14-13.98-24.1-3.96-28.42,1.7,2.88,3.32,5.68,4.97,8.51,2.31-2.59,4.63-5.15,6.95-7.71,2.36-2.63,4.47-7.09,7.11-7.58,7.94-1.53,16.24-3.08,24.1-1.81,13.45,2.14,26.69,6.3,39.96,9.9,4.46,1.19,8.79,3.19,13.16,4.8-7.96.73-15.56-.7-23.18-1.23-7.63-.51-15.29-.1-22.94-.1-.11,1.12-.23,2.27-.31,3.39,27.44-2.11,52.31,9.8,77.78,18.98-10.94,3.43-22.67-1.03-33.01,6.06,9.62-.13,19.21-.4,28.75-1.53,15.44-1.82,29.44,2.62,41.95,13.7,12.36,10.92,25.71,18.99,40.37,24.23,14.39,5.15,28.58,11.12,42.88,16.66,1.12.43,2.38.23,3.59.33.2-.56.38-1.11.58-1.67-3.31-2.73-6.63-5.47-9.93-8.23,15.32,2.82,28.37,11.38,40.74,22.22,6.45,5.67,13.4,10.77,20.66,14.67,11.62,6.24,23.4,12.7,35.64,16.42,11.92,3.6,24.52,5.29,36.79,5.07,7.94-.14,15.85-5.19,24.13-8.19-3.56,11.4-11.36,15.65-20.07,17.77-34.12,8.28-64.79-2.94-93.14-25.93-5.88-4.75-11.3-10.36-16.92-15.58-.14.25-.27.48-.42.73,3.32,4.86,6.64,9.73,9.96,14.61-.39.66-.79,1.31-1.21,1.97-29.63-18.31-58.26-40.05-91.97-44.55Zm228.41,142.11c-13.02-4.06-25.93-8.05-38.73-12.01q6.66-16.86,2.43-20.81c-.63,1.27-1.15,2.95-2.08,4.16-3.21,4.18-6.07,10.64-9.94,11.76-9.04,2.66-17.95,1.54-24.69-9.14-2.45-3.89-7.64-5.62-11.84-7.38-7.55-3.16-15.33-5.58-24.28-8.76,2.87-1.97,4.22-2.88,5.55-3.77-26.39,6.95-52.41,5.26-78.3-1.43.02-.99.02-1.99.02-2.98,8.59,0,17.18.19,25.77-.08,4.67-.14,9.44-2.12,13.97-1.41,14.45,2.25,28.2,1.73,42.1-5.34,11.52-5.84,23.12-.8,30.91,10.71h-18.28c25.48,10.74,49.76,3.55,74.62-7.05,0,7.58-.5,14.45.1,21.17,1.8,20.78,4.62,23.19,20.83,19.15.15-.04.36.24.73.5-3.15,4.54-6.31,9.01-8.89,12.71Zm30.08-318.01c-1.78-1.25-3.57-2.5-5.35-3.75-27.07-19.24-54.02-38.73-81.25-57.57-15.99-11.05-32.6-20.65-48.64-31.56-11.39-7.75-20.09-18.54-23.73-34.85-1.44-6.45-4.89-12.46-8.2-18-4.93-8.27-10.53-15.95-15.85-23.87,32.75,33.52,63.91,69.54,102.69,92.41-1.61-2.07-3.42-4.84-5.61-7.07-5.76-5.91-12.32-10.87-17.37-17.56-3.76-5-7.49-7.89-12.86-9.22-9.71-2.42-15.18-11.75-20.78-20.82,17.08,7.65,34.23,14.82,48.4,29.1,21.08,21.24,42.26,42.35,62.75,64.41,10.04,10.82,18.64,23.66,27.88,35.56-.7.94-1.37,1.87-2.07,2.8Zm7.48-6.25c2.54,1.61,4.72,3.34,7.09,4.42,4.78,2.19,10.42,6.92,14.36,5.4,7.8-3.03,12.38,1.69,16.58,6.87,6.92,8.48,12.95,18.05,19.35,27.18-31.05-3.72-51.83-20.44-57.38-43.87Zm113.59,162.17c4.23,13.93-11.66,8.21-10.97,18.7-2.88-12.64,9.7-10.14,10.97-18.7Z"/>
  <path class="cls-1" d="m832.23,589.86c-2.88-12.64,9.7-10.14,10.97-18.7,4.23,13.93-11.66,8.21-10.97,18.7Z"/>
  <path class="cls-1" d="m348.24,139.06c-1.87-3.92-3.84-7.77-5.48-11.82-.19-.47,1.52-2.1,3.34-4.47,2.29,4.22,4.46,7.37,5.64,11,.34,1.02-2.25,3.49-3.5,5.29Z"/>
  <path class="cls-1" d="m494.03,175.61c-2.5-3.9-4.75-7.37-6.97-10.83,8.44-.51,10.43,3.2,6.97,10.83Z"/>
  <path class="cls-1" d="m240.23,70.95c-.69-1.2-1.4-2.41-2.09-3.6-3.56,2.81-7.98,4.78-10.5,8.63-3.59,5.51-3.07,12.17,1.13,18.28-.93-11.2,2.66-19.06,11.46-23.31Z"/>
</svg>